<svg width="1232" height="443" viewBox="0 0 1232 443" fill="none" xmlns="http://www.w3.org/2000/svg">
<path d="M226.5 432.5H114M114 432.5L123.5 423M114 432.5L123.5 442" stroke="black"/>
<path d="M51.5944 117.656L119.162 27.7064M119.162 27.7064L121.052 41.0078M119.162 27.7064L105.861 29.5964" stroke="black"/>
<path d="M1221.5 129L1221.5 241.5M1221.5 241.5L1212 232M1221.5 241.5L1231 232" stroke="black"/>
<path d="M1221.5 1H189.5H139.5L1 185V273.5V432.5H1221.5V1Z" stroke="black"/>
<path d="M265.5 141.5V360.5" stroke="#C4C4C4"/>
<path d="M439.5 54.5L439.5 384.5" stroke="#C4C4C4"/>
<path d="M613.5 54.5L613.5 354.5" stroke="#C4C4C4"/>
<path d="M787.5 54.5L787.5 384.5" stroke="#C4C4C4"/>
<path d="M961.5 82.5L961.5 356.5" stroke="#C4C4C4"/>
<path d="M242.909 82.1623V54.5H907.792V68.1364H928.035V81.3831H1163.55V179.175H1139.8V190.084H1149.92V217.747H1163.55V292.162H1149.92V316.318H1157.71L1172.5 342.422V357.617H1004.33V366.968H965.016V357.617H907.792V384.5H674.616V357.617H492.824V384.5H284.951V357.617L271.716 350.993L259.648 369.305L54.5 223.591L79.0244 189.305L61.1177 174.11L118.341 94.2403L135.08 105.149L159.604 70.474L265.487 141.383V82.1623H242.909Z" stroke="black"/>
<path d="M183.068 232.5L181.244 226.9H171.452L169.596 232.5H166.044L173.66 210.1H179.132L186.748 232.5H183.068ZM176.348 212.052L172.348 224.148H180.316L176.348 212.052Z" fill="#565656"/>
<path d="M359.876 221.012C361.967 221.14 363.641 221.673 364.9 222.612C366.159 223.529 366.788 224.852 366.788 226.58C366.788 228.479 366.063 229.94 364.612 230.964C363.161 231.988 361.273 232.5 358.948 232.5H349.124V210.1H358.788C360.985 210.1 362.756 210.569 364.1 211.508C365.465 212.447 366.148 213.855 366.148 215.732C366.148 218.953 364.057 220.713 359.876 221.012ZM352.708 212.884V219.764H358.596C359.855 219.764 360.825 219.455 361.508 218.836C362.212 218.217 362.564 217.364 362.564 216.276C362.564 215.209 362.201 214.377 361.476 213.78C360.751 213.183 359.737 212.884 358.436 212.884H352.708ZM358.628 229.716C360.1 229.716 361.231 229.407 362.02 228.788C362.809 228.148 363.204 227.252 363.204 226.1C363.204 224.969 362.82 224.084 362.052 223.444C361.305 222.783 360.228 222.452 358.82 222.452H352.708V229.716H358.628Z" fill="#565656"/>
<path d="M516.876 221.3C516.876 217.823 517.74 215.028 519.468 212.916C521.196 210.783 523.617 209.716 526.732 209.716C529.292 209.716 531.383 210.399 533.004 211.764C534.625 213.108 535.585 214.932 535.884 217.236L532.492 217.524C532.279 216.052 531.639 214.868 530.572 213.972C529.527 213.076 528.247 212.628 526.732 212.628C524.684 212.628 523.127 213.46 522.06 215.124C520.993 216.788 520.46 218.847 520.46 221.3C520.46 223.817 521.036 225.897 522.188 227.54C523.34 229.161 524.94 229.972 526.988 229.972C528.609 229.972 529.921 229.481 530.924 228.5C531.927 227.497 532.524 226.239 532.716 224.724L536.14 224.948C535.841 227.38 534.903 229.311 533.324 230.74C531.767 232.169 529.655 232.884 526.988 232.884C523.767 232.884 521.271 231.839 519.5 229.748C517.751 227.636 516.876 224.82 516.876 221.3Z" fill="#565656"/>
<path d="M695.124 232.5V210.1H703.636C706.836 210.1 709.3 211.092 711.028 213.076C712.756 215.039 713.62 217.78 713.62 221.3C713.62 224.82 712.756 227.572 711.028 229.556C709.3 231.519 706.836 232.5 703.636 232.5H695.124ZM698.708 229.556H703.284C705.46 229.556 707.124 228.82 708.276 227.348C709.449 225.876 710.036 223.86 710.036 221.3C710.036 218.74 709.449 216.724 708.276 215.252C707.124 213.78 705.46 213.044 703.284 213.044H698.708V229.556Z" fill="#565656"/>
<path d="M861.124 232.5V210.1H876.644V212.916H864.708V219.764H874.116V222.452H864.708V229.684H877.092V232.5H861.124Z" fill="#565656"/>
<path d="M1056.12 232.5V210.1H1071.23V213.044H1059.71V220.148H1068.99V223.028H1059.71V232.5H1056.12Z" fill="#565656"/>
<rect x="504.5" y="321.5" width="44" height="78.7438" rx="15" fill="white"/>
<rect x="724.5" y="321.5" width="44" height="78.7438" rx="15" fill="white"/>
<rect x="847.5" y="321.5" width="44" height="78.7438" rx="15" fill="white"/>
<rect x="1041.5" y="321.5" width="44" height="78.7438" rx="15" fill="white"/>
<rect x="302.5" y="321.5" width="44" height="78.7438" rx="15" fill="white"/>
<rect x="504.5" y="15.5" width="44" height="78.7438" rx="15" fill="white"/>
<rect x="724.5" y="15.5" width="44" height="78.7438" rx="15" fill="white"/>
<rect x="847.5" y="15.5" width="44" height="78.7438" rx="15" fill="white"/>
<rect x="1041.5" y="15.5" width="44" height="78.7438" rx="15" fill="white"/>
<rect x="302.5" y="15.5" width="44" height="78.7438" rx="15" fill="white"/>
</svg>
