<svg width="390" height="29" viewBox="0 0 390 29" fill="none" xmlns="http://www.w3.org/2000/svg">
<path fill-rule="evenodd" clip-rule="evenodd" d="M39.7283 14.6939L43.0422 21.9827H46.0864L36.0676 0.0387702L35.9905 0H35.1813L25.0469 21.9827H26.3186L29.7095 14.6939H39.7283ZM34.7189 3.72194L39.1503 13.5308H30.249L34.7189 3.72194ZM67.0489 5.3889C67.0489 7.9865 65.4305 9.92501 62.7716 10.5841C66.2782 11.0106 68.3205 12.8715 68.3205 15.7793C68.3205 19.8889 65.4305 22.0601 59.9972 22.0601C58.7422 22.0601 56.6864 21.9929 55.4444 21.9524L55.1805 21.9438H55.0649V0.34878H55.1805L55.4864 0.338047C56.6415 0.297306 58.4798 0.232469 60.3825 0.232469C63.4267 0.232469 67.0489 1.12418 67.0489 5.3889ZM59.5733 1.27926C58.8027 1.27926 58.3403 1.27926 57.8779 1.31803V10.1964H59.6889C62.5404 10.1964 64.0433 8.87821 64.0433 5.89291C64.0433 2.83007 62.3478 1.27926 59.5733 1.27926ZM57.9164 20.897C58.5329 21.0133 59.1109 21.052 60.1899 21.052C63.5038 21.052 65.3149 19.54 65.3534 16.2058C65.3534 12.0186 62.2707 11.3595 59.6889 11.3595H57.9164V20.897ZM179.721 13.0655L190.434 0.310086H191.975L184.885 8.72321L193.247 21.9826H189.971L183.074 10.8943L179.721 14.8877V21.9826H176.87V0.310086H179.721V13.0655ZM106.199 3.72194L114.484 21.9827H117.489L107.471 0.0775403L107.432 0H106.623L96.5271 21.9827H97.8372L106.199 3.72194ZM209.855 0H210.664L210.703 0.0775403L220.76 21.9827H217.716L214.402 14.6939H204.383L201.031 21.9827H199.759L209.855 0ZM209.431 3.72194L204.923 13.5308H213.862L209.431 3.72194ZM243.032 0.31001C241.838 0.27124 238.562 0.232469 237.946 0.232469C233.052 0.232469 229.892 2.71376 229.892 6.552C229.892 9.18837 231.511 11.5146 234.247 12.4451L227.734 21.9825H231.087L236.79 13.1429H240.296V21.9825H243.109V0.31001H243.032ZM240.296 12.0186H238.177C234.94 12.0186 232.859 9.92501 232.859 6.66832C232.859 3.02392 234.786 0.969102 238.139 0.969102C238.986 0.969102 239.564 1.00787 240.296 1.08541V12.0186ZM167.429 20.7807V21.2847H167.468V23.9599C167.468 27.2553 165.772 29 162.574 29C160.493 29 157.95 28.1858 155.561 27.2553L154.675 26.9839C152.517 26.131 151.207 25.627 149.203 25.627C147.469 25.627 146.428 26.635 146.428 28.3409V28.9612H145.812V28.3797C145.812 25.627 147.816 23.5722 150.513 23.5722C152.593 23.5722 154.534 24.3021 156.141 24.9062C156.231 24.9401 156.321 24.9737 156.409 25.0067C156.544 25.0648 156.688 25.1133 156.833 25.1618C156.977 25.2102 157.122 25.2587 157.256 25.3168L157.757 25.5107L157.84 25.5412C159.703 26.2299 161.638 26.9452 163.46 26.9452C165.426 26.9452 166.35 25.9759 166.35 23.9211V21.9826H147.739V0.310086H150.552V20.8195H161.726V0.310086H164.539V20.7807H167.429ZM0 0.232469V21.905H2.81296V1.43434H14.4502V21.905H17.3017V0.232469H0ZM90.1304 0.310086V1.47319H80.9594V10.1189H88.4734V11.282H80.9594V20.8195H90.1304V21.9826H78.1464V0.310086H90.1304ZM137.951 1.47319V0.310086H125.967V21.9826H137.951V20.8195H128.78V11.282H136.294V10.1189H128.78V1.47319H137.951ZM383.642 15.0817H373.623L370.271 22.3318H368.999L379.095 0.349083H379.904L379.943 0.426623L390 22.3705H386.956L383.642 15.0817ZM383.102 13.9186L378.671 4.10979L374.163 13.9186H383.102ZM325.61 15.0817H335.629L338.943 22.3705H341.987L331.968 0.426623L331.93 0.349083H331.121L320.986 22.3705H322.258L325.61 15.0817ZM330.658 4.10979L335.09 13.9186H326.15L330.658 4.10979ZM311.622 22.3705L303.338 4.10979L294.937 22.3705H293.666L303.723 0.387853H303.761V0.349083H304.571L304.609 0.426623L314.628 22.3705H311.622ZM268.58 0.659168V22.3705H271.432V1.86104H283.069V22.3705H285.882V0.659168H268.58ZM361.87 5.81537C361.87 8.29666 360.329 10.1964 357.593 11.1269C360.868 11.786 362.718 13.7633 362.641 16.5935C362.641 20.0828 359.867 22.5253 355.628 22.7967C355.512 22.8355 354.78 22.8355 354.78 22.8355C351.235 22.7967 349.039 21.4397 347.806 20.3154L348.615 19.4625C349.655 20.4317 351.466 21.5561 354.395 21.6724C357.709 21.6724 359.635 20.1991 359.635 16.8261C359.635 13.3756 357.015 12.0186 354.549 12.0186H352.314V10.8167H354.703C357.555 10.8167 358.942 9.53731 358.942 6.24184C358.942 3.21777 357.169 1.43434 354.472 1.43434C352.468 1.47311 350.811 2.09344 349.462 3.29531L348.692 2.4036C350.31 0.969102 352.353 0.232469 354.742 0.232469H355.165C359.25 0.232469 361.87 2.59745 361.87 5.81537Z" fill="black"/>
</svg>
