<?xml version="1.0" standalone="no"?>
<!DOCTYPE svg PUBLIC "-//W3C//DTD SVG 1.1//EN" "http://www.w3.org/Graphics/SVG/1.1/DTD/svg11.dtd" >
<svg xmlns="http://www.w3.org/2000/svg" xmlns:xlink="http://www.w3.org/1999/xlink" version="1.1">
<metadata>
Created by FontForge 20170731 at Wed Apr 11 20:03:26 2018
 By Aleksey,,,
Copyright (c) 2018 by Russian Fonts. All rights reserved.
</metadata>
<defs>
<font id="RFDewi-Italic" horiz-adv-x="813" >
  <font-face 
    font-family="RF Dewi"
    font-weight="400"
    font-style="italic"
    font-stretch="normal"
    units-per-em="1000"
    panose-1="0 0 5 0 0 0 0 0 0 0"
    ascent="800"
    descent="-200"
    x-height="524"
    cap-height="700"
    bbox="-230 -214 1154 936"
    underline-thickness="50"
    underline-position="-250"
    slope="-9"
    unicode-range="U+0020-277E"
  />
<missing-glyph horiz-adv-x="600" 
 />
    <glyph glyph-name="f_f.liga" unicode="ff" horiz-adv-x="635" 
d="M635 679q-44 0 -63.5 -19.5t-27.5 -70.5l-10 -65h118l-11 -67h-118l-72 -457h-88l73 457h-199l-73 -457h-88l73 457h-98l10 67h98l11 65q13 83 50.5 115t108.5 32q28 0 60 -4l-11 -67q-40 2 -43 2q-36 0 -53.5 -19.5t-25.5 -71.5l-9 -52h199l12 77q14 84 53.5 115.5
t117.5 31.5q37 0 70 -4l-11 -67q-44 2 -53 2z" />
    <glyph glyph-name="f_f_i.liga" unicode="ffi" horiz-adv-x="865" 
d="M544 589l-10 -65h116l-11 -67h-116l-72 -457h-88l73 457h-199l-73 -457h-88l73 457h-98l10 67h98l11 65q13 83 50.5 115t108.5 32q28 0 60 -4l-11 -67q-40 2 -43 2q-36 0 -53.5 -19.5t-25.5 -71.5l-9 -52h199l12 77q14 83 52.5 115t109.5 32q37 0 65 -4l-11 -67
q-34 2 -46 2q-40 0 -58 -19t-26 -71zM777 722h93l-18 -112h-93zM665 0l83 524h88l-83 -524h-88z" />
    <glyph glyph-name="f_i.liga" unicode="fi" horiz-adv-x="578" 
d="M258 589l-11 -65h116l-11 -67h-115l-73 -457h-88l73 457h-98l10 67h98l13 77q13 83 51.5 115t109.5 32q37 0 65 -4l-11 -67q-34 2 -46 2q-39 0 -57 -19t-26 -71zM491 722h92l-18 -112h-92zM378 0l83 524h88l-83 -524h-88z" />
    <glyph glyph-name="f_l.liga" unicode="fl" horiz-adv-x="576" 
d="M258 589l-11 -65h116l-11 -67h-115l-73 -457h-88l73 457h-98l10 67h98l13 77q13 83 51.5 115t109.5 32q37 0 65 -4l-11 -67q-34 2 -46 2q-39 0 -57 -19t-26 -71zM494 736h88l-117 -736h-88z" />
    <glyph glyph-name=".notdef" horiz-adv-x="600" 
 />
    <glyph glyph-name=".null" horiz-adv-x="0" 
 />
    <glyph glyph-name="nonmarkingreturn" horiz-adv-x="333" 
 />
    <glyph glyph-name="space" unicode=" " horiz-adv-x="239" 
 />
    <glyph glyph-name="exclam" unicode="!" horiz-adv-x="281" 
d="M167 204h-72l68 496h94zM48 0l18 115h102l-18 -115h-102z" />
    <glyph glyph-name="quotedbl" unicode="&#x22;" horiz-adv-x="331" 
d="M95 469l30 231h77l-44 -231h-63zM237 469l30 231h77l-44 -231h-63z" />
    <glyph glyph-name="numbersign" unicode="#" horiz-adv-x="580" 
d="M589 441h-118l-49 -181h111l-9 -56h-117l-55 -206h-73l55 206h-137l-56 -206h-73l55 206h-113l9 56h119l49 181h-111l9 56h117l52 191h73l-52 -191h138l52 191h73l-52 -191h112zM349 260l49 181h-138l-48 -181h137z" />
    <glyph glyph-name="dollar" unicode="$" horiz-adv-x="582" 
d="M558 501l-83 -6q6 53 -21 89t-82 45l-39 -242l69 -24q128 -46 128 -155q0 -104 -70 -159.5t-190 -60.5l-13 -84h-48l13 85q-108 6 -158.5 63t-39.5 158l83 4q-15 -142 126 -155l41 256l-63 22q-117 41 -117 151q0 102 69 156t172 57l14 84h48l-14 -86q88 -8 135 -60
t40 -138zM272 408l16 -5l36 228q-65 -3 -102 -36t-37 -88q0 -69 87 -99zM341 291l-22 8l-38 -241q69 4 114 36t45 96q0 35 -23.5 59t-75.5 42z" />
    <glyph glyph-name="percent" unicode="%" horiz-adv-x="784" 
d="M73 507q0 90 52.5 144.5t136.5 54.5q64 0 100.5 -36t36.5 -101q0 -91 -52.5 -146t-137.5 -55q-64 0 -100 37t-36 102zM83 0l586 700h60l-585 -700h-61zM137 513q0 -43 21 -67.5t59 -24.5q53 0 85 39t32 102q0 43 -21 67t-59 24q-53 0 -85 -38.5t-32 -101.5zM414 133
q0 89 52 144t137 55q65 0 100.5 -36.5t35.5 -100.5q0 -90 -51.5 -145.5t-138.5 -55.5q-64 0 -99.5 37t-35.5 102zM477 139q0 -43 21 -68t60 -25q53 0 85 39.5t32 102.5q0 43 -21 67.5t-59 24.5q-53 0 -85.5 -39t-32.5 -102z" />
    <glyph glyph-name="ampersand" unicode="&#x26;" horiz-adv-x="630" 
d="M581 0h-93l-49 73q-90 -85 -220 -85q-96 0 -144.5 41t-48.5 110q0 33 8.5 60t19.5 45t35.5 38.5t42 32.5t53.5 34q2 1 3 2t3 2t3.5 2t3.5 2l35 22l-8 11q-42 62 -55.5 101.5t-7.5 75.5q12 70 65.5 107.5t128.5 37.5q70 0 109.5 -35t39.5 -95q0 -55 -30 -96.5t-104 -88.5
l-40 -26l122 -181q33 59 48 126h68q-27 -105 -78 -182zM295 425l3 -5l35 22q51 32 72.5 62t21.5 68q0 36 -22 57t-59 21t-67 -21t-37 -64q-5 -31 7.5 -61t45.5 -79zM232 52q102 0 172 72l-138 206l-39 -24q-62 -41 -87.5 -71.5t-25.5 -80.5q0 -45 29.5 -73.5t88.5 -28.5z
" />
    <glyph glyph-name="quotesingle" unicode="'" horiz-adv-x="189" 
d="M95 469l30 231h77l-44 -231h-63z" />
    <glyph glyph-name="parenleft" unicode="(" horiz-adv-x="317" 
d="M56 209q0 98 23 185t62.5 151.5t79 109.5t85.5 81h76q-114 -100 -178.5 -234t-64.5 -293q0 -101 28 -190t78 -149h-77q-47 50 -79.5 137t-32.5 202z" />
    <glyph glyph-name="parenright" unicode=")" horiz-adv-x="317" 
d="M-52 -130q114 99 178 233.5t64 294.5q0 101 -27.5 189.5t-77.5 148.5h77q47 -50 79.5 -137t32.5 -202q0 -98 -23 -185t-62.5 -151.5t-79 -109.5t-85.5 -81h-76z" />
    <glyph glyph-name="asterisk" unicode="*" horiz-adv-x="367" 
d="M54 475l59 31l82 33l-72 33l-49 31l34 45l48 -32l60 -49l3 82l9 64h53l-10 -64l-23 -82l74 49l60 32l19 -45l-59 -31l-82 -33l72 -33l49 -31l-34 -46l-49 32l-59 49l-3 -82l-10 -63h-53l11 63l22 82l-74 -49l-59 -32z" />
    <glyph glyph-name="plus" unicode="+" horiz-adv-x="495" 
d="M454 363l-10 -61h-160l-24 -155h-61l24 155h-159l9 61h160l25 155h61l-25 -155h160z" />
    <glyph glyph-name="comma" unicode="," horiz-adv-x="229" 
d="M4 -115l37 230h101l-11 -70l-87 -160h-40z" />
    <glyph glyph-name="hyphen" unicode="-" horiz-adv-x="372" 
d="M69 332h257l-11 -68h-257z" />
    <glyph glyph-name="period" unicode="." horiz-adv-x="230" 
d="M23 0l18 115h102l-19 -115h-101z" />
    <glyph glyph-name="slash" unicode="/" horiz-adv-x="386" 
d="M344 725h80l-376 -782h-81z" />
    <glyph glyph-name="zero" unicode="0" horiz-adv-x="620" 
d="M58 262q0 199 87.5 324.5t235.5 125.5q102 0 155 -72.5t53 -201.5q0 -199 -87 -324.5t-235 -125.5q-102 0 -155.5 73t-53.5 201zM147 269q0 -98 34 -153.5t97 -55.5q100 0 161.5 105.5t61.5 265.5q0 98 -33.5 153.5t-97.5 55.5q-100 0 -161.5 -105.5t-61.5 -265.5z" />
    <glyph glyph-name="one" unicode="1" horiz-adv-x="380" 
d="M269 700h71l-111 -700h-88l95 599l-165 -104l14 88z" />
    <glyph glyph-name="two" unicode="2" horiz-adv-x="523" 
d="M328 270l-223 -198h357l-11 -72h-476l11 66l268 239q103 91 131 125q46 57 46 114q0 47 -29 71.5t-78 24.5q-63 0 -108.5 -43.5t-65.5 -132.5l-84 7q27 120 99 180.5t171 60.5q84 0 134 -41.5t50 -116.5q0 -71 -39.5 -129t-152.5 -155z" />
    <glyph glyph-name="three" unicode="3" horiz-adv-x="548" 
d="M562 700l-10 -65l-261 -217q116 3 172 -48q44 -41 44 -123q0 -121 -81.5 -190t-206.5 -69q-102 0 -159 52.5t-50 156.5l85 6q-4 -73 33 -108t103 -35q81 0 133.5 47.5t52.5 129.5q0 55 -34.5 88t-101.5 33q-46 0 -103 -12l10 62l249 220h-327l11 72h441z" />
    <glyph glyph-name="four" unicode="4" horiz-adv-x="597" 
d="M457 236h105l-11 -72h-105l-26 -164h-89l26 164h-348l11 66l367 470h144zM368 236l67 416l-327 -416h260z" />
    <glyph glyph-name="five" unicode="5" horiz-adv-x="557" 
d="M541 628h-344l-57 -241q78 75 191 75q86 0 136.5 -51t50.5 -141q0 -130 -81 -206t-206 -76q-99 0 -158.5 51t-58.5 143l86 6q1 -62 40 -95t102 -33q78 0 132.5 52.5t54.5 147.5q0 67 -37 101t-96 34q-47 0 -91.5 -20.5t-75.5 -59.5l-77 6l89 379h411z" />
    <glyph glyph-name="six" unicode="6" horiz-adv-x="601" 
d="M576 519l-86 -6q4 57 -25 92t-87 35q-93 0 -154 -84.5t-73 -221.5q33 58 89.5 89t125.5 31q86 0 139 -51t53 -142q0 -124 -79.5 -198.5t-206.5 -74.5q-215 0 -215 255q0 215 89 342t243 127q94 0 143.5 -52t43.5 -141zM335 385q-80 0 -132.5 -53.5t-52.5 -136.5
q0 -62 36 -98.5t97 -36.5q81 0 133 53t52 137q0 62 -35.5 98.5t-97.5 36.5z" />
    <glyph glyph-name="seven" unicode="7" horiz-adv-x="531" 
d="M100 700h473l-10 -62q-251 -315 -370 -638h-95q119 315 378 628h-387z" />
    <glyph glyph-name="eight" unicode="8" horiz-adv-x="588" 
d="M403 365q64 -17 99.5 -57t35.5 -99q0 -103 -83.5 -162t-204.5 -59q-99 0 -162 44.5t-63 124.5q0 79 52.5 133.5t142.5 74.5q-123 30 -123 141q0 97 77.5 151.5t190.5 54.5q93 0 152.5 -40.5t59.5 -115.5q0 -76 -46.5 -124.5t-127.5 -66.5zM182 502q0 -51 36 -78.5
t98 -27.5q76 0 124 37t48 105q0 51 -36 77.5t-98 26.5q-76 0 -124 -36.5t-48 -103.5zM262 58q82 0 136.5 41t54.5 113q0 55 -41 85.5t-107 30.5q-83 0 -137.5 -41t-54.5 -113q0 -55 41 -85.5t108 -30.5z" />
    <glyph glyph-name="nine" unicode="9" horiz-adv-x="602" 
d="M356 712q216 0 216 -255q0 -215 -87 -342t-243 -127q-96 0 -145.5 52t-43.5 141l86 6q-3 -57 26.5 -92t87.5 -35q93 0 154 86.5t72 225.5q-34 -59 -91 -89.5t-125 -30.5q-85 0 -138.5 51.5t-53.5 139.5q0 122 79.5 195.5t205.5 73.5zM295 321q80 0 132 52.5t52 133.5
q0 61 -35.5 97t-97.5 36q-80 0 -132 -52t-52 -134q0 -61 35.5 -97t97.5 -36z" />
    <glyph glyph-name="colon" unicode=":" horiz-adv-x="230" 
d="M86 397l18 115h101l-18 -115h-101zM23 0l18 115h102l-19 -115h-101z" />
    <glyph glyph-name="semicolon" unicode=";" horiz-adv-x="230" 
d="M86 397l18 115h101l-18 -115h-101zM4 -115l37 230h101l-11 -70l-87 -160h-40z" />
    <glyph glyph-name="less" unicode="&#x3c;" horiz-adv-x="489" 
d="M456 539l-13 -75l-322 -132l283 -121l-12 -75l-335 154l13 82z" />
    <glyph glyph-name="equal" unicode="=" horiz-adv-x="499" 
d="M88 441h380l-9 -61h-380zM61 272h380l-9 -60h-381z" />
    <glyph glyph-name="greater" unicode="&#x3e;" horiz-adv-x="488" 
d="M121 539l332 -167l-13 -82l-383 -154l12 75l321 121l-281 132z" />
    <glyph glyph-name="question" unicode="?" horiz-adv-x="499" 
d="M55 482q26 115 98.5 172.5t174.5 57.5q93 0 143.5 -45t36.5 -135q-9 -60 -43.5 -103.5t-103.5 -90.5q-49 -33 -67 -54.5t-24 -61.5l-2 -16h-85l2 19q9 59 32.5 90t75.5 65q57 39 88.5 72t38.5 79q9 54 -19.5 81t-83.5 27q-140 0 -180 -163zM141 0l19 115h101l-18 -115
h-102z" />
    <glyph glyph-name="at" unicode="@" horiz-adv-x="873" 
d="M498 651q151 0 242 -91t91 -231q0 -122 -55 -192.5t-145 -70.5q-98 0 -111 86q-27 -46 -67.5 -70.5t-84.5 -24.5q-59 0 -95.5 44.5t-36.5 120.5q0 112 58 181.5t140 69.5q42 0 72 -21.5t43 -61.5l12 73h67l-35 -224q-10 -63 3.5 -93t56.5 -30q64 0 98 57.5t34 145.5
q0 125 -80.5 208.5t-213.5 83.5q-159 0 -281 -118.5t-122 -283.5q0 -132 81.5 -212.5t222.5 -80.5q117 0 208 46l20 -35q-104 -51 -234 -51q-159 0 -251 88t-92 238q0 125 63.5 229t168 162t223.5 58zM394 111q51 0 87.5 42t47.5 111q11 70 -12 112t-74 42q-60 0 -99 -53.5
t-39 -134.5q0 -55 23.5 -87t65.5 -32z" />
    <glyph glyph-name="A" unicode="A" horiz-adv-x="668" 
d="M513 0l-33 184h-318l-92 -184h-92l356 700h140l134 -700h-95zM394 650l-197 -396h270z" />
    <glyph glyph-name="B" unicode="B" horiz-adv-x="665" 
d="M431 359q82 -6 130.5 -44t48.5 -105q0 -98 -74.5 -154t-193.5 -56h-299l111 700h295q90 0 143 -38t53 -111q0 -85 -55.5 -134.5t-158.5 -57.5zM235 628l-38 -237h201q68 0 110 38t42 101q0 46 -32 72t-89 26h-194zM346 72q81 0 127 38t46 105q0 50 -33.5 78t-95.5 28
h-204l-39 -249h199z" />
    <glyph glyph-name="C" unicode="C" horiz-adv-x="667" 
d="M54 276q0 185 98.5 310.5t266.5 125.5q115 0 179.5 -62.5t61.5 -168.5l-88 -9q1 75 -44.5 120t-120.5 45q-81 0 -142 -52.5t-89.5 -129.5t-28.5 -164q0 -101 45.5 -164.5t130.5 -63.5q81 0 139 50t79 126l87 -7q-31 -110 -113 -177t-203 -67q-126 0 -192 78t-66 210z" />
    <glyph glyph-name="D" unicode="D" horiz-adv-x="694" 
d="M43 0l111 700h256q125 0 191 -73.5t66 -204.5q0 -191 -99 -306.5t-269 -115.5h-256zM147 75h155q127 0 199.5 92.5t72.5 241.5q0 101 -47.5 158.5t-137.5 57.5h-154z" />
    <glyph glyph-name="E" unicode="E" horiz-adv-x="609" 
d="M43 0l111 700h468l-11 -73h-376l-38 -236h298l-11 -70h-298l-39 -248h389l-11 -73h-482z" />
    <glyph glyph-name="F" unicode="F" horiz-adv-x="578" 
d="M43 0l111 700h455l-12 -75h-362l-40 -247h294l-11 -74h-294l-49 -304h-92z" />
    <glyph glyph-name="G" unicode="G" horiz-adv-x="680" 
d="M55 281q0 118 42 214.5t126 156.5t197 60q111 0 175 -58.5t66 -158.5l-89 -8q-3 68 -48.5 109t-116.5 41q-80 0 -141 -52.5t-89.5 -128.5t-28.5 -161q0 -103 50.5 -167.5t148.5 -64.5q90 0 179 41l30 188h-192l10 64h276l-49 -302q-140 -66 -269 -66q-136 0 -206.5 79.5
t-70.5 213.5z" />
    <glyph glyph-name="H" unicode="H" horiz-adv-x="714" 
d="M607 700h92l-111 -700h-92l50 318h-360l-51 -318h-92l111 700h92l-48 -306h361z" />
    <glyph glyph-name="I" unicode="I" horiz-adv-x="262" 
d="M43 0l111 700h92l-111 -700h-92z" />
    <glyph glyph-name="J" unicode="J" horiz-adv-x="565" 
d="M30 201l10 64h85l-10 -63q-10 -68 21 -103.5t90 -35.5q60 0 101 38t53 111l77 488h92l-78 -494q-17 -107 -85 -162.5t-171 -55.5q-104 0 -152.5 56t-32.5 157z" />
    <glyph glyph-name="K" unicode="K" horiz-adv-x="669" 
d="M695 700l-320 -340l229 -360h-110l-197 318h-111l-51 -318h-92l111 700h92l-49 -310h109l281 310h108z" />
    <glyph glyph-name="L" unicode="L" horiz-adv-x="548" 
d="M43 0l111 700h92l-99 -625h339l-12 -75h-431z" />
    <glyph glyph-name="M" unicode="M" horiz-adv-x="906" 
d="M730 700h160l-111 -700h-89l104 648l-320 -648h-126l-114 646l-102 -646h-89l111 700h161l105 -648z" />
    <glyph glyph-name="N" unicode="N" horiz-adv-x="725" 
d="M621 700h89l-111 -700h-155l-210 645l-102 -645h-89l111 700h155l210 -644z" />
    <glyph glyph-name="O" unicode="O" horiz-adv-x="720" 
d="M55 279q0 120 43.5 217.5t130 156.5t202.5 59q128 0 195 -79.5t67 -211.5q0 -120 -43.5 -217.5t-130 -156.5t-202.5 -59q-128 0 -195 79.5t-67 211.5zM148 291q0 -102 46.5 -165t133.5 -63q82 0 145 48.5t95 126.5t32 171q0 102 -46.5 165t-134.5 63q-122 0 -196.5 -101
t-74.5 -245z" />
    <glyph glyph-name="P" unicode="P" horiz-adv-x="641" 
d="M43 0l111 700h278q91 0 148.5 -44t57.5 -133q0 -124 -77 -183.5t-193 -59.5h-188l-45 -280h-92zM191 351h176q80 0 129 40.5t49 119.5q0 57 -36.5 85.5t-98.5 28.5h-175z" />
    <glyph glyph-name="Q" unicode="Q" horiz-adv-x="720" 
d="M693 421q0 -124 -47.5 -224.5t-134.5 -155.5l52 -88l-67 -40l-56 94q-59 -19 -123 -19q-128 0 -195 79.5t-67 211.5q0 120 43.5 217.5t130 156.5t202.5 59q128 0 195 -79.5t67 -211.5zM424 187l46 -78q62 45 96 125t34 175q0 102 -46.5 165t-134.5 63q-122 0 -196.5 -101
t-74.5 -245q0 -102 46.5 -165t133.5 -63q37 0 73 11l-44 73z" />
    <glyph glyph-name="R" unicode="R" horiz-adv-x="662" 
d="M647 525q0 -108 -63.5 -166.5t-163.5 -68.5l173 -290h-111l-160 288h-141l-46 -288h-92l111 700h286q91 0 149 -43.5t58 -131.5zM192 358h184q80 0 129 40.5t49 115.5q0 55 -36.5 83.5t-99.5 28.5h-184z" />
    <glyph glyph-name="S" unicode="S" horiz-adv-x="607" 
d="M25 215l87 3q-8 -75 32 -116t131 -41q80 0 133 32t53 100q0 35 -25 59t-80 43l-136 46q-124 42 -124 155q0 72 38.5 122.5t96.5 72t130 21.5q109 0 170 -54t53 -150l-87 -6q6 62 -32 99.5t-116 37.5q-73 0 -115.5 -33t-42.5 -91q0 -70 93 -100l136 -46q136 -46 136 -157
q0 -110 -79.5 -167t-213.5 -57q-129 0 -189 58.5t-49 168.5z" />
    <glyph glyph-name="T" unicode="T" horiz-adv-x="580" 
d="M82 625l12 75h530l-11 -75h-219l-99 -625h-92l99 625h-220z" />
    <glyph glyph-name="U" unicode="U" horiz-adv-x="718" 
d="M85 263l69 437h92l-68 -429q-16 -107 20.5 -157.5t128.5 -50.5q183 0 216 208l68 429h92l-70 -437q-43 -275 -317 -275q-276 0 -231 275z" />
    <glyph glyph-name="V" unicode="V" horiz-adv-x="644" 
d="M596 700h96l-344 -700h-137l-121 700h98l102 -643z" />
    <glyph glyph-name="W" unicode="W" horiz-adv-x="961" 
d="M908 700h96l-287 -700h-137l-41 635l-244 -635h-138l-62 700h99l46 -632l245 632h132l41 -632z" />
    <glyph glyph-name="X" unicode="X" horiz-adv-x="650" 
d="M669 700l-277 -342l188 -358h-107l-145 287l-237 -287h-105l299 358l-170 342h108l127 -270l214 270h105z" />
    <glyph glyph-name="Y" unicode="Y" horiz-adv-x="654" 
d="M605 700h102l-330 -411l-46 -289h-92l46 288l-199 412h105l152 -338z" />
    <glyph glyph-name="Z" unicode="Z" horiz-adv-x="576" 
d="M609 700l-10 -64l-494 -561h414l-11 -75h-528l10 64l493 561h-382l12 75h496z" />
    <glyph glyph-name="bracketleft" unicode="[" horiz-adv-x="295" 
d="M27 -129l136 857h177l-11 -69h-98l-114 -720h98l-10 -68h-178z" />
    <glyph glyph-name="backslash" unicode="\" horiz-adv-x="386" 
d="M188 725l129 -782h-81l-128 782h80z" />
    <glyph glyph-name="bracketright" unicode="]" horiz-adv-x="296" 
d="M-33 -129l11 68h98l114 720h-98l11 69h178l-136 -857h-178z" />
    <glyph glyph-name="asciicircum" unicode="^" horiz-adv-x="386" 
d="M395 463h-70l-68 202l-132 -202h-70l165 237h85z" />
    <glyph glyph-name="underscore" unicode="_" horiz-adv-x="400" 
d="M-34 -43h371l-10 -59h-370z" />
    <glyph glyph-name="grave" unicode="`" horiz-adv-x="251" 
d="M263 592h-70l-78 143h92z" />
    <glyph glyph-name="a" unicode="a" horiz-adv-x="555" 
d="M20 113q0 162 234 185l158 15l8 50q7 49 -19 79t-87 30q-56 0 -96 -25.5t-51 -76.5h-81q16 85 80.5 125.5t157.5 40.5q103 0 149.5 -49t31.5 -141l-55 -346h-80l17 107q-72 -119 -219 -119q-74 0 -111 34.5t-37 90.5zM109 127q0 -34 23.5 -55t71.5 -21q75 0 127 46.5
t66 120.5l6 39l-147 -15q-147 -15 -147 -115z" />
    <glyph glyph-name="b" unicode="b" horiz-adv-x="594" 
d="M28 0l117 736h88l-49 -309q34 51 85 80t109 29q83 0 131.5 -58t48.5 -161q0 -148 -76.5 -238.5t-190.5 -90.5q-63 0 -106 33t-58 93l-18 -114h-81zM153 263q-14 -94 19 -150t105 -56q85 0 139 70.5t54 177.5q0 74 -33.5 118t-94.5 44q-71 0 -121.5 -54.5t-67.5 -149.5z
" />
    <glyph glyph-name="c" unicode="c" horiz-adv-x="545" 
d="M36 207q0 153 80.5 241t209.5 88q90 0 144 -48t52 -137l-85 -8q-1 61 -34.5 92.5t-87.5 31.5q-82 0 -136 -68.5t-54 -181.5q0 -76 34 -118t94 -42q56 0 99.5 33.5t64.5 95.5l83 -7q-26 -91 -96 -141t-162 -50q-97 0 -151.5 57t-54.5 162z" />
    <glyph glyph-name="d" unicode="d" horiz-adv-x="594" 
d="M512 736h88l-117 -736h-81l18 114q-34 -60 -87.5 -93t-115.5 -33q-83 0 -132 58t-49 161q0 148 76.5 238.5t190.5 90.5q59 0 101 -29t59 -80zM253 57q72 0 123 56t65 149q15 96 -19 150.5t-105 54.5q-84 0 -138 -70.5t-54 -177.5q0 -74 33.5 -118t94.5 -44z" />
    <glyph glyph-name="e" unicode="e" horiz-adv-x="562" 
d="M332 536q236 0 191 -287l-1 -12h-398v-21q0 -80 36.5 -122t102.5 -42q103 0 153 90l82 -5q-31 -70 -94.5 -109.5t-150.5 -39.5q-102 0 -159.5 55.5t-57.5 163.5q0 156 83.5 242.5t212.5 86.5zM322 472q-70 0 -121.5 -46t-69.5 -131h313q10 82 -22.5 129.5t-99.5 47.5z
" />
    <glyph glyph-name="f" unicode="f" horiz-adv-x="348" 
d="M348 679q-44 0 -63 -19.5t-27 -70.5l-11 -65h118l-10 -67h-118l-73 -457h-88l73 457h-98l10 67h98l13 77q13 84 52.5 115.5t117.5 31.5q37 0 70 -4l-11 -67q-42 2 -53 2z" />
    <glyph glyph-name="g" unicode="g" horiz-adv-x="590" 
d="M481 524h81l-77 -486q-20 -129 -85.5 -189.5t-184.5 -60.5q-99 0 -149 42.5t-40 127.5h81q-5 -51 26.5 -77t92.5 -26q76 0 116 40.5t52 119.5l15 96q-71 -101 -187 -101q-84 0 -134 58t-50 156q0 137 77 224.5t190 87.5q61 0 102.5 -29.5t57.5 -82.5zM255 77
q71 0 122 53.5t65 140.5q14 88 -20 142t-105 54q-82 0 -137 -66.5t-55 -167.5q0 -71 35 -113.5t95 -42.5z" />
    <glyph glyph-name="h" unicode="h" horiz-adv-x="580" 
d="M381 536q87 0 125.5 -47.5t23.5 -142.5l-55 -346h-88l50 318q23 146 -98 146q-69 0 -115 -43.5t-61 -118.5l-47 -302h-88l117 736h88l-48 -299q68 99 196 99z" />
    <glyph glyph-name="i" unicode="i" horiz-adv-x="229" 
d="M123 610l17 112h93l-17 -112h-93zM29 0l83 524h87l-83 -524h-87z" />
    <glyph glyph-name="j" unicode="j" horiz-adv-x="229" 
d="M124 610l17 112h93l-18 -112h-92zM112 524h88l-97 -609q-10 -69 -42.5 -98t-98.5 -29q-22 0 -68 4l11 70q32 -2 40 -2q35 0 51.5 16t23.5 62z" />
    <glyph glyph-name="k" unicode="k" horiz-adv-x="545" 
d="M564 524l-268 -252l197 -272h-109l-159 231h-73l-36 -231h-88l117 736h88l-70 -436h73l220 224h108z" />
    <glyph glyph-name="l" unicode="l" horiz-adv-x="227" 
d="M145 736h88l-117 -736h-88z" />
    <glyph glyph-name="m" unicode="m" horiz-adv-x="882" 
d="M696 536q77 0 113.5 -47t23.5 -135l-56 -354h-88l53 331q9 63 -13 98t-75 35q-60 0 -103.5 -44t-56.5 -121l-48 -299h-87l52 331q10 62 -12.5 97.5t-74.5 35.5q-60 0 -103.5 -44.5t-57.5 -122.5l-47 -297h-88l83 524h81l-16 -98q64 110 189 110q127 0 139 -115
q65 115 192 115z" />
    <glyph glyph-name="n" unicode="n" horiz-adv-x="580" 
d="M381 536q87 0 125.5 -47.5t23.5 -142.5l-55 -346h-88l50 318q23 146 -98 146q-70 0 -116 -44.5t-60 -122.5l-47 -297h-88l83 524h81l-16 -100q67 112 205 112z" />
    <glyph glyph-name="o" unicode="o" horiz-adv-x="578" 
d="M36 211q0 146 83 235.5t214 89.5q98 0 153.5 -59.5t55.5 -163.5q0 -146 -83 -235.5t-213 -89.5q-98 0 -154 59.5t-56 163.5zM124 220q0 -75 35 -119t97 -44q86 0 142 70t56 177q0 75 -35 119t-97 44q-86 0 -142 -70t-56 -177z" />
    <glyph glyph-name="p" unicode="p" horiz-adv-x="594" 
d="M378 536q83 0 131.5 -58t48.5 -161q0 -148 -76.5 -238.5t-190.5 -90.5q-59 0 -100.5 29t-59.5 83l-47 -300h-88l115 724h81l-18 -111q34 58 88 90.5t116 32.5zM277 57q84 0 138.5 70.5t54.5 177.5q0 74 -34 118t-95 44q-72 0 -123 -56t-66 -149q-14 -93 19.5 -149
t105.5 -56z" />
    <glyph glyph-name="q" unicode="q" horiz-adv-x="594" 
d="M485 524h81l-114 -724h-88l48 301q-34 -54 -85 -83.5t-110 -29.5q-83 0 -132 58t-49 161q0 148 76.5 238.5t190.5 90.5q62 0 105.5 -32t59.5 -90zM253 57q72 0 123 56t65 149q15 93 -18.5 149t-105.5 56q-84 0 -138 -70.5t-54 -177.5q0 -74 33.5 -118t94.5 -44z" />
    <glyph glyph-name="r" unicode="r" horiz-adv-x="396" 
d="M351 534q21 0 57 -6l-13 -80q-32 6 -67 6q-71 0 -112.5 -46t-57.5 -142l-42 -266h-88l84 524h80l-17 -109q60 119 176 119z" />
    <glyph glyph-name="s" unicode="s" horiz-adv-x="496" 
d="M7 149l80 4q-3 -51 29.5 -76t96.5 -25q65 0 105 24t40 66q0 25 -21 42.5t-69 32.5l-107 33q-101 31 -101 123q0 82 60 122.5t156 40.5q92 0 145.5 -38.5t48.5 -116.5l-81 -5q1 48 -32.5 72t-90.5 24q-54 0 -86.5 -22.5t-32.5 -62.5q0 -48 74 -72l108 -33
q116 -36 116 -125q0 -80 -65 -124.5t-179 -44.5q-99 0 -150 39.5t-44 121.5z" />
    <glyph glyph-name="t" unicode="t" horiz-adv-x="376" 
d="M49 457l10 65h84q31 0 37 31l13 86h83l-19 -115h128l-10 -67h-128l-49 -306q-8 -50 3 -68.5t50 -18.5q25 0 62 5l-11 -70q-36 -7 -78 -7q-76 0 -102 33t-14 112l51 320h-110z" />
    <glyph glyph-name="u" unicode="u" horiz-adv-x="580" 
d="M464 524h88l-83 -524h-81l18 108q-68 -120 -207 -120q-85 0 -124 50t-23 147l53 339h88l-50 -313q-23 -151 99 -151q69 0 116 49t61 128z" />
    <glyph glyph-name="v" unicode="v" horiz-adv-x="540" 
d="M469 524h94l-270 -524h-131l-102 524h95l81 -472z" />
    <glyph glyph-name="w" unicode="w" horiz-adv-x="847" 
d="M769 524h95l-242 -524h-123l-40 479l-194 -479h-126l-75 524h98l54 -462l190 462h122l42 -455z" />
    <glyph glyph-name="x" unicode="x" horiz-adv-x="554" 
d="M560 524l-229 -259l160 -265h-107l-116 203l-181 -203h-105l241 266l-149 258h106l106 -197l169 197h105z" />
    <glyph glyph-name="y" unicode="y" horiz-adv-x="547" 
d="M473 524h95l-287 -584q-42 -87 -84 -119.5t-117 -32.5q-25 0 -58 3l11 68q36 -2 53 -2q41 0 65 20t50 76l23 47h-49l-115 524h96l94 -489z" />
    <glyph glyph-name="z" unicode="z" horiz-adv-x="480" 
d="M489 524l-10 -61l-381 -394h326l-11 -69h-433l10 61l381 394h-299l11 69h406z" />
    <glyph glyph-name="braceleft" unicode="{" horiz-adv-x="330" 
d="M38 269l10 61h8q41 0 69 26.5t39 95.5l19 117q13 87 58.5 123t123.5 36h11l-10 -61h-7q-44 0 -68.5 -24.5t-33.5 -79.5l-19 -121q-19 -123 -122 -141v-4q96 -18 77 -140l-19 -122q-9 -55 7.5 -79t60.5 -24h7l-9 -61h-11q-78 0 -112 36t-20 122l19 117q11 70 -9 96.5
t-61 26.5h-8z" />
    <glyph glyph-name="bar" unicode="|" horiz-adv-x="236" 
d="M159 736h67l-136 -857h-67z" />
    <glyph glyph-name="braceright" unicode="}" horiz-adv-x="331" 
d="M-33 -129l9 61h8q44 0 68 24t33 79l19 122q20 122 123 140v4q-98 18 -77 141l19 121q9 55 -8 79.5t-61 24.5h-7l10 61h11q77 0 111 -36t20 -123l-18 -117q-20 -122 69 -122h8l-9 -61h-8q-90 0 -109 -123l-18 -117q-14 -87 -59.5 -122.5t-122.5 -35.5h-11z" />
    <glyph glyph-name="asciitilde" unicode="~" horiz-adv-x="560" 
d="M79 283q9 58 41 95t88 37q30 0 56.5 -13t42 -29t36 -29t40.5 -13q27 0 44.5 20t23.5 51h56q-9 -57 -41.5 -94.5t-87.5 -37.5q-38 0 -69 21t-56.5 42t-50.5 21q-27 0 -44.5 -20t-22.5 -51h-56z" />
    <glyph glyph-name="uni00A0" unicode="&#xa0;" horiz-adv-x="239" 
 />
    <glyph glyph-name="exclamdown" unicode="&#xa1;" horiz-adv-x="281" 
d="M131 524h102l-19 -115h-102zM185 320l-67 -496h-94l89 496h72z" />
    <glyph glyph-name="cent" unicode="&#xa2;" horiz-adv-x="536" 
d="M268 54q48 5 86 37t58 87l78 -6q-26 -83 -88.5 -130.5t-143.5 -52.5l-12 -75h-45l12 75q-84 8 -130.5 64t-46.5 153q0 146 72.5 233.5t191.5 95.5l11 75h45l-12 -75q77 -5 123 -51t47 -126l-80 -7q-2 52 -29 82.5t-71 36.5zM119 216q0 -69 27.5 -111t77.5 -50l65 415
q-74 -10 -122 -79t-48 -175z" />
    <glyph glyph-name="sterling" unicode="&#xa3;" horiz-adv-x="524" 
d="M522 495l-85 -6q12 139 -92 139q-66 0 -105 -50.5t-39 -142.5q0 -20 2 -62h195l-8 -52h-184q1 -10 1 -28q0 -68 -34.5 -118.5t-102.5 -102.5h403l-11 -72h-484l10 63q64 57 97.5 111.5t33.5 119.5q0 18 -1 27h-78l9 52h66q-3 33 -3 66q0 126 66.5 193.5t177.5 67.5
q185 0 166 -205z" />
    <glyph glyph-name="currency" unicode="&#xa4;" horiz-adv-x="590" 
d="M524 336q0 -103 -61 -170l64 -77l-56 -48l-66 78q-61 -35 -138 -35q-76 0 -125 37l-92 -79l-41 49l91 79q-22 41 -22 95q0 104 61 171l-64 76l55 48l66 -78q61 35 139 35q76 0 125 -37l92 79l41 -48l-92 -79q23 -41 23 -96zM154 275q0 -56 32.5 -89t90.5 -33
q76 0 123 48.5t47 125.5q0 56 -32.5 89t-90.5 33q-76 0 -123 -48.5t-47 -125.5z" />
    <glyph glyph-name="yen" unicode="&#xa5;" horiz-adv-x="619" 
d="M361 313l-1 -6h191l-7 -48h-191l-11 -67h191l-8 -47h-190l-23 -145h-89l23 145h-190l8 47h190l11 67h-190l7 48h190l1 7l-189 374h101l143 -308l244 308h97z" />
    <glyph glyph-name="brokenbar" unicode="&#xa6;" horiz-adv-x="236" 
d="M160 736h67l-54 -340h-67zM80 235h67l-56 -356h-67z" />
    <glyph glyph-name="section" unicode="&#xa7;" horiz-adv-x="503" 
d="M488 554l-77 -4q1 50 -28.5 76t-79.5 26q-47 0 -79 -25t-32 -68q0 -52 68 -77l103 -33q110 -38 110 -125q0 -46 -29.5 -82t-80.5 -56q63 -37 63 -106q0 -82 -60 -127.5t-162 -45.5q-90 0 -139 41t-42 124l76 3q-3 -53 28.5 -80.5t86.5 -27.5t92.5 26.5t37.5 72.5
q0 27 -20 45.5t-66 33.5l-106 35q-101 32 -101 122q0 50 30 85.5t81 53.5q-53 36 -53 105q0 83 58.5 124.5t145.5 41.5q82 0 130.5 -40t44.5 -118zM305 387l-85 29q-89 -24 -89 -95q0 -56 77 -80l100 -32q84 29 84 95q0 54 -87 83z" />
    <glyph glyph-name="dieresis" unicode="&#xa8;" horiz-adv-x="331" 
d="M95 610l17 106h81l-18 -106h-80zM265 610l18 106h80l-17 -106h-81z" />
    <glyph glyph-name="copyright" unicode="&#xa9;" horiz-adv-x="817" 
d="M365 -12q-139 0 -224.5 83.5t-85.5 222.5q0 183 123.5 300.5t301.5 117.5q139 0 224.5 -83.5t85.5 -222.5q0 -183 -123.5 -300.5t-301.5 -117.5zM373 35q152 0 258 105.5t106 256.5q0 117 -72 192.5t-192 75.5q-152 0 -258 -105.5t-106 -256.5q0 -117 72 -192.5
t192 -75.5zM256 307q0 113 55.5 178.5t144.5 65.5q62 0 99 -35.5t35 -100.5l-61 -5q0 45 -22 68t-58 23q-56 0 -93 -52t-37 -135q0 -55 22.5 -85.5t61.5 -30.5q37 0 67 25t44 71l60 -4q-19 -68 -67 -104.5t-111 -36.5q-66 0 -103 41t-37 117z" />
    <glyph glyph-name="guillemotleft" unicode="&#xab;" horiz-adv-x="453" 
d="M30 259l7 42l147 155h88l-170 -176l114 -176h-88zM199 259l7 42l147 155h88l-170 -176l114 -176h-88z" />
    <glyph glyph-name="logicalnot" unicode="&#xac;" horiz-adv-x="511" 
d="M81 364h371l-27 -173h-66l17 112h-304z" />
    <glyph glyph-name="registered" unicode="&#xae;" horiz-adv-x="575" 
d="M280 212q-94 0 -154 60.5t-60 154.5q0 120 88 202.5t205 82.5q94 0 154 -60.5t60 -154.5q0 -120 -88 -202.5t-205 -82.5zM286 248q100 0 174 72t74 172q0 80 -50 132t-130 52q-101 0 -175 -72t-74 -172q0 -80 50.5 -132t130.5 -52zM226 336l41 258h89q27 0 44 -15.5
t17 -46.5q0 -41 -18.5 -64t-46.5 -27l42 -105h-47l-36 103h-30l-16 -103h-39zM286 470h45q45 0 45 56q0 35 -30 35h-45z" />
    <glyph glyph-name="macron" unicode="&#xaf;" horiz-adv-x="365" 
d="M98 627l10 61h284l-9 -61h-285z" />
    <glyph glyph-name="degree" unicode="&#xb0;" horiz-adv-x="367" 
d="M206 401q-58 0 -94.5 35.5t-36.5 95.5q0 80 53 130t127 50q58 0 94.5 -35.5t36.5 -95.5q0 -80 -53 -130t-127 -50zM215 457q46 0 78.5 33t32.5 82q0 37 -22 60.5t-58 23.5q-46 0 -78.5 -33t-32.5 -83q0 -37 22 -60t58 -23z" />
    <glyph glyph-name="plusminus" unicode="&#xb1;" horiz-adv-x="523" 
d="M317 416h159l-10 -61h-159l-20 -124h-61l20 124h-160l10 61h160l22 138h60zM47 106l9 61h381l-10 -61h-380z" />
    <glyph glyph-name="uni00B2" unicode="&#xb2;" horiz-adv-x="360" 
d="M264 497l-133 -109h223l-9 -57h-317l9 52l167 139q46 38 62 52.5t33 39.5t17 49q0 26 -17 40t-45 14q-76 0 -102 -101l-67 6q17 76 65 114t113 38q55 0 89 -27t34 -76q0 -47 -26.5 -82.5t-95.5 -91.5z" />
    <glyph glyph-name="uni00B3" unicode="&#xb3;" horiz-adv-x="379" 
d="M413 764l-9 -50l-162 -119q68 0 103 -28.5t35 -79.5q0 -77 -55 -119t-138 -42q-69 0 -107.5 33t-35.5 98l69 5q-1 -41 20.5 -60t62.5 -19q50 0 81 25t31 70q0 31 -21 49.5t-63 18.5q-26 0 -68 -7l7 48l150 120h-207l9 57h298z" />
    <glyph glyph-name="acute" unicode="&#xb4;" horiz-adv-x="251" 
d="M92 592l102 143h92l-124 -143h-70z" />
    <glyph glyph-name="paragraph" unicode="&#xb6;" horiz-adv-x="546" 
d="M90 480q0 96 64.5 158t165.5 62h49l-125 -790h-58l65 411q-75 0 -118 43.5t-43 115.5zM335 -90l126 790h58l-126 -790h-58z" />
    <glyph glyph-name="periodcentered" unicode="&#xb7;" horiz-adv-x="230" 
d="M62 252l19 115h101l-18 -115h-102z" />
    <glyph glyph-name="cedilla" unicode="&#xb8;" horiz-adv-x="275" 
d="M102 -51q29 0 50.5 -16t21.5 -49q0 -46 -33.5 -69t-77.5 -23q-39 0 -62.5 18t-24.5 51l43 3q3 -34 43 -34q23 0 38.5 12.5t15.5 36.5q0 18 -11 27t-27 9t-42 -11l-34 16l56 80h40l-45 -62q26 11 49 11z" />
    <glyph glyph-name="uni00B9" unicode="&#xb9;" horiz-adv-x="273" 
d="M207 764h58l-69 -431h-70l56 349l-92 -67l12 74z" />
    <glyph glyph-name="guillemotright" unicode="&#xbb;" horiz-adv-x="453" 
d="M18 104l169 176l-113 176h87l98 -155l-6 -42l-148 -155h-87zM187 104l169 176l-113 176h87l98 -155l-6 -42l-148 -155h-87z" />
    <glyph glyph-name="onequarter" unicode="&#xbc;" horiz-adv-x="709" 
d="M590 700h67l-585 -700h-68zM114 340l45 285l-82 -49l10 66l96 58h49l-57 -360h-61zM602 131h63l-8 -50h-63l-13 -81h-61l12 81h-206l7 46l205 233h100zM396 131h145l31 200z" />
    <glyph glyph-name="onehalf" unicode="&#xbd;" horiz-adv-x="721" 
d="M590 700h67l-585 -700h-68zM114 340l45 285l-82 -49l10 66l96 58h49l-57 -360h-61zM581 140l-116 -90h195l-8 -50h-276l7 46l145 115q65 53 80 73q15 21 15 43q0 45 -54 45q-66 0 -86 -83l-59 5q15 64 56.5 96t97.5 32q48 0 78 -23t30 -65q0 -37 -22.5 -68t-82.5 -76z
" />
    <glyph glyph-name="threequarters" unicode="&#xbe;" horiz-adv-x="811" 
d="M339 465q0 -66 -48.5 -101.5t-122.5 -35.5q-61 0 -95.5 28t-31.5 84l61 4q-3 -66 74 -66q44 0 72 21t28 58q0 26 -19 41.5t-57 15.5q-22 0 -62 -6l6 42l134 100h-185l8 50h265l-7 -45l-137 -97q58 -1 87.5 -26t29.5 -67zM692 700h67l-585 -700h-68zM704 131h63l-8 -50
h-63l-13 -81h-62l13 81h-206l7 46l204 233h101zM498 131h144l31 200z" />
    <glyph glyph-name="questiondown" unicode="&#xbf;" horiz-adv-x="499" 
d="M238 409l18 115h101l-17 -115h-102zM-9 -8q9 60 43.5 103.5t103.5 90.5q49 33 67 54.5t24 61.5l2 16h85l-2 -19q-9 -59 -32 -90t-75 -65q-38 -26 -60 -44t-42.5 -46.5t-25.5 -60.5q-9 -54 19.5 -81t84.5 -27q139 0 179 163l83 -6q-27 -115 -99.5 -172.5t-174.5 -57.5
q-92 0 -143 45t-37 135z" />
    <glyph glyph-name="Agrave" unicode="&#xc0;" horiz-adv-x="668" 
d="M444 763h-71l-92 116h92zM513 0l-33 184h-318l-92 -184h-92l356 700h140l134 -700h-95zM394 650l-197 -396h270z" />
    <glyph glyph-name="Aacute" unicode="&#xc1;" horiz-adv-x="668" 
d="M571 879l-128 -116h-71l107 116h92zM513 0l-33 184h-318l-92 -184h-92l356 700h140l134 -700h-95zM394 650l-197 -396h270z" />
    <glyph glyph-name="Acircumflex" unicode="&#xc2;" horiz-adv-x="668" 
d="M427 853l-99 -88h-67l118 117h104l81 -117h-66zM513 0l-33 184h-318l-92 -184h-92l356 700h140l134 -700h-95zM394 650l-197 -396h270z" />
    <glyph glyph-name="Atilde" unicode="&#xc3;" horiz-adv-x="668" 
d="M358 814q-17 0 -28.5 -12.5t-14.5 -32.5h-49q16 97 95 97q35 0 70 -26.5t51 -26.5q36 0 43 45h49q-14 -97 -94 -97q-35 0 -70 26.5t-52 26.5zM513 0l-33 184h-318l-92 -184h-92l356 700h140l134 -700h-95zM394 650l-197 -396h270z" />
    <glyph glyph-name="Adieresis" unicode="&#xc4;" horiz-adv-x="668" 
d="M377 860l-15 -95h-89l15 95h89zM567 860l-15 -95h-88l15 95h88zM513 0l-33 184h-318l-92 -184h-92l356 700h140l134 -700h-95zM394 650l-197 -396h270z" />
    <glyph glyph-name="Aring" unicode="&#xc5;" horiz-adv-x="668" 
d="M410 747q-38 0 -64 20.5t-26 59.5q0 52 36.5 80.5t83.5 28.5q37 0 63.5 -21t26.5 -59q0 -52 -36.5 -80.5t-83.5 -28.5zM433 893q-27 0 -46.5 -16t-19.5 -43q0 -20 14 -32.5t35 -12.5q27 0 46.5 16.5t19.5 43.5q0 21 -13.5 32.5t-35.5 11.5zM513 0l-33 184h-318l-92 -184
h-92l356 700h140l134 -700h-95zM394 650l-197 -396h270z" />
    <glyph glyph-name="AE" unicode="&#xc6;" horiz-adv-x="1006" 
d="M-28 0l482 700h566l-12 -73h-376l-37 -236h297l-11 -70h-298l-39 -248h390l-11 -73h-482l29 184h-274l-126 -184h-98zM242 254h239l59 373h-43z" />
    <glyph glyph-name="Ccedilla" unicode="&#xc7;" horiz-adv-x="667" 
d="M660 481l-88 -9q1 75 -44.5 120t-120.5 45q-81 0 -142 -52.5t-89.5 -129.5t-28.5 -164q0 -101 45.5 -164.5t130.5 -63.5q81 0 139 50t79 126l87 -7q-31 -110 -113 -177t-203 -67h-12l-36 -50q26 11 49 11q28 0 50 -16.5t22 -48.5q0 -46 -33.5 -69t-77.5 -23
q-39 0 -62.5 18t-24.5 51l43 3q3 -34 43 -34q23 0 38.5 12.5t15.5 36.5q0 18 -11 27t-27 9q-17 0 -43 -11l-33 16l50 71q-103 15 -156 91t-53 194q0 185 98.5 310.5t266.5 125.5q115 0 179.5 -62.5t61.5 -168.5z" />
    <glyph glyph-name="Egrave" unicode="&#xc8;" horiz-adv-x="609" 
d="M428 763h-70l-93 116h93zM43 0l111 700h468l-11 -73h-376l-38 -236h298l-11 -70h-298l-39 -248h389l-11 -73h-482z" />
    <glyph glyph-name="Eacute" unicode="&#xc9;" horiz-adv-x="609" 
d="M346 763l107 116h92l-128 -116h-71zM43 0l111 700h468l-11 -73h-376l-38 -236h298l-11 -70h-298l-39 -248h389l-11 -73h-482z" />
    <glyph glyph-name="Ecircumflex" unicode="&#xca;" horiz-adv-x="609" 
d="M236 765l118 117h104l81 -117h-66l-72 88l-98 -88h-67zM43 0l111 700h468l-11 -73h-376l-38 -236h298l-11 -70h-298l-39 -248h389l-11 -73h-482z" />
    <glyph glyph-name="Edieresis" unicode="&#xcb;" horiz-adv-x="609" 
d="M248 765l15 95h89l-15 -95h-89zM438 765l15 95h89l-15 -95h-89zM43 0l111 700h468l-11 -73h-376l-38 -236h298l-11 -70h-298l-39 -248h389l-11 -73h-482z" />
    <glyph glyph-name="Igrave" unicode="&#xcc;" horiz-adv-x="262" 
d="M246 763h-67l-77 116h90zM43 0l111 700h92l-111 -700h-92z" />
    <glyph glyph-name="Iacute" unicode="&#xcd;" horiz-adv-x="262" 
d="M174 763l92 116h90l-115 -116h-67zM43 0l111 700h92l-111 -700h-92z" />
    <glyph glyph-name="Icircumflex" unicode="&#xce;" horiz-adv-x="262" 
d="M59 765l118 117h104l81 -117h-66l-71 88l-99 -88h-67zM43 0l111 700h92l-111 -700h-92z" />
    <glyph glyph-name="Idieresis" unicode="&#xcf;" horiz-adv-x="262" 
d="M92 765l15 95h80l-15 -95h-80zM249 765l15 95h80l-15 -95h-80zM43 0l111 700h92l-111 -700h-92z" />
    <glyph glyph-name="Eth" unicode="&#xd0;" horiz-adv-x="709" 
d="M424 700q125 0 191.5 -73.5t66.5 -204.5q0 -192 -99 -307t-270 -115h-255l51 317h-69l10 66h69l50 317h255zM316 75q128 0 200.5 92.5t72.5 241.5q0 101 -47.5 158.5t-138.5 57.5h-153l-39 -242h194l-10 -66h-194l-39 -242h154z" />
    <glyph glyph-name="Ntilde" unicode="&#xd1;" horiz-adv-x="725" 
d="M388 814q-36 0 -43 -45h-49q16 97 95 97q35 0 70 -26.5t51 -26.5q36 0 43 45h49q-16 -97 -95 -97q-27 0 -49 13.5t-39 26.5t-33 13zM621 700h89l-111 -700h-155l-210 645l-102 -645h-89l111 700h155l210 -644z" />
    <glyph glyph-name="Ograve" unicode="&#xd2;" horiz-adv-x="720" 
d="M480 763h-70l-92 116h92zM55 279q0 120 43.5 217.5t130 156.5t202.5 59q128 0 195 -79.5t67 -211.5q0 -120 -43.5 -217.5t-130 -156.5t-202.5 -59q-128 0 -195 79.5t-67 211.5zM148 291q0 -102 46.5 -165t133.5 -63q82 0 145 48.5t95 126.5t32 171q0 102 -46.5 165
t-134.5 63q-122 0 -196.5 -101t-74.5 -245z" />
    <glyph glyph-name="Oacute" unicode="&#xd3;" horiz-adv-x="720" 
d="M398 763l107 116h92l-128 -116h-71zM55 279q0 120 43.5 217.5t130 156.5t202.5 59q128 0 195 -79.5t67 -211.5q0 -120 -43.5 -217.5t-130 -156.5t-202.5 -59q-128 0 -195 79.5t-67 211.5zM148 291q0 -102 46.5 -165t133.5 -63q82 0 145 48.5t95 126.5t32 171
q0 102 -46.5 165t-134.5 63q-122 0 -196.5 -101t-74.5 -245z" />
    <glyph glyph-name="Ocircumflex" unicode="&#xd4;" horiz-adv-x="720" 
d="M288 765l118 117h104l81 -117h-66l-71 88l-99 -88h-67zM55 279q0 120 43.5 217.5t130 156.5t202.5 59q128 0 195 -79.5t67 -211.5q0 -120 -43.5 -217.5t-130 -156.5t-202.5 -59q-128 0 -195 79.5t-67 211.5zM148 291q0 -102 46.5 -165t133.5 -63q82 0 145 48.5t95 126.5
t32 171q0 102 -46.5 165t-134.5 63q-122 0 -196.5 -101t-74.5 -245z" />
    <glyph glyph-name="Otilde" unicode="&#xd5;" horiz-adv-x="720" 
d="M293 769q16 97 95 97q35 0 70 -26.5t51 -26.5q36 0 43 45h49q-6 -42 -29 -69.5t-66 -27.5q-34 0 -69 26.5t-52 26.5q-36 0 -43 -45h-49zM55 279q0 120 43.5 217.5t130 156.5t202.5 59q128 0 195 -79.5t67 -211.5q0 -120 -43.5 -217.5t-130 -156.5t-202.5 -59
q-128 0 -195 79.5t-67 211.5zM148 291q0 -102 46.5 -165t133.5 -63q82 0 145 48.5t95 126.5t32 171q0 102 -46.5 165t-134.5 63q-122 0 -196.5 -101t-74.5 -245z" />
    <glyph glyph-name="Odieresis" unicode="&#xd6;" horiz-adv-x="720" 
d="M300 765l15 95h89l-15 -95h-89zM490 765l15 95h89l-15 -95h-89zM55 279q0 120 43.5 217.5t130 156.5t202.5 59q128 0 195 -79.5t67 -211.5q0 -120 -43.5 -217.5t-130 -156.5t-202.5 -59q-128 0 -195 79.5t-67 211.5zM148 291q0 -102 46.5 -165t133.5 -63q82 0 145 48.5
t95 126.5t32 171q0 102 -46.5 165t-134.5 63q-122 0 -196.5 -101t-74.5 -245z" />
    <glyph glyph-name="multiply" unicode="&#xd7;" horiz-adv-x="504" 
d="M471 474l-164 -142l119 -141l-51 -44l-119 141l-164 -141l-37 44l164 141l-119 142l51 44l119 -142l164 142z" />
    <glyph glyph-name="Oslash" unicode="&#xd8;" horiz-adv-x="720" 
d="M723 692l-78 -85q48 -75 48 -186q0 -120 -43.5 -217.5t-130 -156.5t-202.5 -59q-111 0 -179 63l-65 -71l-49 29l78 85q-47 72 -47 185q0 120 43.5 217.5t130 156.5t202.5 59q111 0 178 -62l65 70zM148 291q0 -72 22 -122l377 413q-49 55 -128 55q-122 0 -196.5 -101
t-74.5 -245zM600 409q0 69 -23 124l-377 -414q48 -56 128 -56q82 0 145 48.5t95 126.5t32 171z" />
    <glyph glyph-name="Ugrave" unicode="&#xd9;" horiz-adv-x="718" 
d="M480 763h-71l-92 116h92zM85 263l69 437h92l-68 -429q-16 -107 20.5 -157.5t128.5 -50.5q183 0 216 208l68 429h92l-70 -437q-43 -275 -317 -275q-276 0 -231 275z" />
    <glyph glyph-name="Uacute" unicode="&#xda;" horiz-adv-x="718" 
d="M398 763l106 116h93l-129 -116h-70zM85 263l69 437h92l-68 -429q-16 -107 20.5 -157.5t128.5 -50.5q183 0 216 208l68 429h92l-70 -437q-43 -275 -317 -275q-276 0 -231 275z" />
    <glyph glyph-name="Ucircumflex" unicode="&#xdb;" horiz-adv-x="718" 
d="M287 765l118 117h104l82 -117h-67l-71 88l-99 -88h-67zM85 263l69 437h92l-68 -429q-16 -107 20.5 -157.5t128.5 -50.5q183 0 216 208l68 429h92l-70 -437q-43 -275 -317 -275q-276 0 -231 275z" />
    <glyph glyph-name="Udieresis" unicode="&#xdc;" horiz-adv-x="718" 
d="M300 765l15 95h88l-15 -95h-88zM490 765l15 95h88l-15 -95h-88zM85 263l69 437h92l-68 -429q-16 -107 20.5 -157.5t128.5 -50.5q183 0 216 208l68 429h92l-70 -437q-43 -275 -317 -275q-276 0 -231 275z" />
    <glyph glyph-name="Yacute" unicode="&#xdd;" horiz-adv-x="654" 
d="M564 879l-128 -116h-71l107 116h92zM605 700h102l-330 -411l-46 -289h-92l46 288l-199 412h105l152 -338z" />
    <glyph glyph-name="Thorn" unicode="&#xde;" horiz-adv-x="641" 
d="M412 576q91 0 149 -43.5t58 -129.5q0 -119 -77 -177t-192 -58h-188l-27 -168h-92l111 700h92l-19 -124h185zM349 240q80 0 128.5 39t48.5 112q0 53 -36.5 81t-99.5 28h-175l-42 -260h176z" />
    <glyph glyph-name="germandbls" unicode="&#xdf;" horiz-adv-x="569" 
d="M357 429q83 -8 126.5 -54t43.5 -125q0 -125 -73.5 -190.5t-182.5 -65.5q-25 0 -63 6l11 72q32 -6 52 -6q68 0 118.5 44.5t50.5 140.5q0 65 -37 102.5t-108 37.5h-31l11 69h28q70 0 108 39t38 104q0 47 -27.5 72t-76.5 25q-119 0 -142 -147l-87 -553h-88l90 565
q15 97 76 149t161 52q81 0 132.5 -38t51.5 -112q0 -80 -47 -128t-135 -59z" />
    <glyph glyph-name="agrave" unicode="&#xe0;" horiz-adv-x="555" 
d="M382 592h-70l-78 143h92zM20 113q0 162 234 185l158 15l8 50q7 49 -19 79t-87 30q-56 0 -96 -25.5t-51 -76.5h-81q16 85 80.5 125.5t157.5 40.5q103 0 149.5 -49t31.5 -141l-55 -346h-80l17 107q-72 -119 -219 -119q-74 0 -111 34.5t-37 90.5zM109 127q0 -34 23.5 -55
t71.5 -21q75 0 127 46.5t66 120.5l6 39l-147 -15q-147 -15 -147 -115z" />
    <glyph glyph-name="aacute" unicode="&#xe1;" horiz-adv-x="555" 
d="M280 592l102 143h92l-124 -143h-70zM20 113q0 162 234 185l158 15l8 50q7 49 -19 79t-87 30q-56 0 -96 -25.5t-51 -76.5h-81q16 85 80.5 125.5t157.5 40.5q103 0 149.5 -49t31.5 -141l-55 -346h-80l17 107q-72 -119 -219 -119q-74 0 -111 34.5t-37 90.5zM109 127
q0 -34 23.5 -55t71.5 -21q75 0 127 46.5t66 120.5l6 39l-147 -15q-147 -15 -147 -115z" />
    <glyph glyph-name="acircumflex" unicode="&#xe2;" horiz-adv-x="555" 
d="M188 592l117 143h98l71 -143h-65l-61 110l-95 -110h-65zM20 113q0 162 234 185l158 15l8 50q7 49 -19 79t-87 30q-56 0 -96 -25.5t-51 -76.5h-81q16 85 80.5 125.5t157.5 40.5q103 0 149.5 -49t31.5 -141l-55 -346h-80l17 107q-72 -119 -219 -119q-74 0 -111 34.5
t-37 90.5zM109 127q0 -34 23.5 -55t71.5 -21q75 0 127 46.5t66 120.5l6 39l-147 -15q-147 -15 -147 -115z" />
    <glyph glyph-name="atilde" unicode="&#xe3;" horiz-adv-x="555" 
d="M181 605q7 44 31 72.5t68 28.5q36 0 71.5 -28t53.5 -28q36 0 45 48h51q-17 -101 -99 -101q-28 0 -51 14t-41 28t-34 14q-18 0 -29.5 -13t-14.5 -35h-51zM20 113q0 162 234 185l158 15l8 50q7 49 -19 79t-87 30q-56 0 -96 -25.5t-51 -76.5h-81q16 85 80.5 125.5
t157.5 40.5q103 0 149.5 -49t31.5 -141l-55 -346h-80l17 107q-72 -119 -219 -119q-74 0 -111 34.5t-37 90.5zM109 127q0 -34 23.5 -55t71.5 -21q75 0 127 46.5t66 120.5l6 39l-147 -15q-147 -15 -147 -115z" />
    <glyph glyph-name="adieresis" unicode="&#xe4;" horiz-adv-x="555" 
d="M209 610l17 106h81l-18 -106h-80zM379 610l17 106h81l-17 -106h-81zM20 113q0 162 234 185l158 15l8 50q7 49 -19 79t-87 30q-56 0 -96 -25.5t-51 -76.5h-81q16 85 80.5 125.5t157.5 40.5q103 0 149.5 -49t31.5 -141l-55 -346h-80l17 107q-72 -119 -219 -119
q-74 0 -111 34.5t-37 90.5zM109 127q0 -34 23.5 -55t71.5 -21q75 0 127 46.5t66 120.5l6 39l-147 -15q-147 -15 -147 -115z" />
    <glyph glyph-name="aring" unicode="&#xe5;" horiz-adv-x="555" 
d="M241 670q0 54 36.5 83t83.5 29q38 0 64 -20.5t26 -60.5q0 -54 -36.5 -83t-83.5 -29q-38 0 -64 20.5t-26 60.5zM288 678q0 -22 14 -34.5t36 -12.5q26 0 45.5 17.5t19.5 44.5q0 22 -13.5 34.5t-35.5 12.5q-26 0 -46 -17.5t-20 -44.5zM20 113q0 162 234 185l158 15l8 50
q7 49 -19 79t-87 30q-56 0 -96 -25.5t-51 -76.5h-81q16 85 80.5 125.5t157.5 40.5q103 0 149.5 -49t31.5 -141l-55 -346h-80l17 107q-72 -119 -219 -119q-74 0 -111 34.5t-37 90.5zM109 127q0 -34 23.5 -55t71.5 -21q75 0 127 46.5t66 120.5l6 39l-147 -15
q-147 -15 -147 -115z" />
    <glyph glyph-name="ae" unicode="&#xe6;" horiz-adv-x="911" 
d="M691 536q107 0 154.5 -71.5t25.5 -215.5l-1 -12h-381q-9 -89 27 -137t103 -48q46 0 84 24t61 66l82 -5q-30 -69 -92.5 -109t-144.5 -40q-162 0 -192 140q-36 -65 -100 -102.5t-146 -37.5q-76 0 -113.5 34.5t-37.5 90.5q0 82 59.5 128.5t173.5 53.5l158 11l9 56
q6 50 -19.5 80t-86.5 30q-56 0 -96 -25.5t-51 -76.5h-81q16 85 80 125.5t155 40.5q145 0 166 -102q76 102 204 102zM792 295q11 81 -20 129t-93 48q-61 0 -110.5 -46t-69.5 -131h293zM398 225l4 25l-147 -11q-146 -9 -146 -112q0 -34 23.5 -55t71.5 -21q77 0 130 48.5
t64 125.5z" />
    <glyph glyph-name="ccedilla" unicode="&#xe7;" horiz-adv-x="545" 
d="M315 467q-82 0 -136 -68.5t-54 -181.5q0 -76 34 -118t94 -42q56 0 99.5 33.5t64.5 95.5l83 -7q-26 -91 -96 -141t-162 -50h-3l-37 -50q28 11 50 11q28 0 49.5 -16t21.5 -49q0 -46 -33.5 -69t-76.5 -23q-40 0 -63 18t-24 51l43 3q3 -34 43 -34q23 0 38.5 12.5t15.5 36.5
q0 18 -11 27t-27 9q-17 0 -43 -11l-34 16l50 71q-79 11 -122 67t-43 149q0 153 80.5 241t209.5 88q90 0 144 -48t52 -137l-85 -8q-1 61 -34.5 92.5t-87.5 31.5z" />
    <glyph glyph-name="egrave" unicode="&#xe8;" horiz-adv-x="562" 
d="M383 592h-70l-78 143h92zM332 536q236 0 191 -287l-1 -12h-398v-21q0 -80 36.5 -122t102.5 -42q103 0 153 90l82 -5q-31 -70 -94.5 -109.5t-150.5 -39.5q-102 0 -159.5 55.5t-57.5 163.5q0 156 83.5 242.5t212.5 86.5zM322 472q-70 0 -121.5 -46t-69.5 -131h313
q10 82 -22.5 129.5t-99.5 47.5z" />
    <glyph glyph-name="eacute" unicode="&#xe9;" horiz-adv-x="562" 
d="M475 735l-124 -143h-70l102 143h92zM332 536q236 0 191 -287l-1 -12h-398v-21q0 -80 36.5 -122t102.5 -42q103 0 153 90l82 -5q-31 -70 -94.5 -109.5t-150.5 -39.5q-102 0 -159.5 55.5t-57.5 163.5q0 156 83.5 242.5t212.5 86.5zM322 472q-70 0 -121.5 -46t-69.5 -131
h313q10 82 -22.5 129.5t-99.5 47.5z" />
    <glyph glyph-name="ecircumflex" unicode="&#xea;" horiz-adv-x="562" 
d="M349 702l-95 -110h-65l117 143h98l71 -143h-65zM332 536q236 0 191 -287l-1 -12h-398v-21q0 -80 36.5 -122t102.5 -42q103 0 153 90l82 -5q-31 -70 -94.5 -109.5t-150.5 -39.5q-102 0 -159.5 55.5t-57.5 163.5q0 156 83.5 242.5t212.5 86.5zM322 472q-70 0 -121.5 -46
t-69.5 -131h313q10 82 -22.5 129.5t-99.5 47.5z" />
    <glyph glyph-name="edieresis" unicode="&#xeb;" horiz-adv-x="562" 
d="M307 716l-17 -106h-81l18 106h80zM478 716l-17 -106h-81l17 106h81zM332 536q236 0 191 -287l-1 -12h-398v-21q0 -80 36.5 -122t102.5 -42q103 0 153 90l82 -5q-31 -70 -94.5 -109.5t-150.5 -39.5q-102 0 -159.5 55.5t-57.5 163.5q0 156 83.5 242.5t212.5 86.5zM322 472
q-70 0 -121.5 -46t-69.5 -131h313q10 82 -22.5 129.5t-99.5 47.5z" />
    <glyph glyph-name="igrave" unicode="&#xec;" horiz-adv-x="224" 
d="M202 592h-68l-61 143h90zM25 0l83 524h88l-83 -524h-88z" />
    <glyph glyph-name="iacute" unicode="&#xed;" horiz-adv-x="223" 
d="M125 592l85 143h90l-106 -143h-69zM27 0l83 524h88l-83 -524h-88z" />
    <glyph glyph-name="icircumflex" unicode="&#xee;" horiz-adv-x="234" 
d="M26 592l117 143h98l71 -143h-65l-60 110l-95 -110h-66zM32 0l83 524h87l-83 -524h-87z" />
    <glyph glyph-name="idieresis" unicode="&#xef;" horiz-adv-x="221" 
d="M55 610l16 106h76l-16 -106h-76zM201 610l17 106h75l-16 -106h-76zM25 0l83 524h88l-83 -524h-88z" />
    <glyph glyph-name="eth" unicode="&#xf0;" horiz-adv-x="586" 
d="M434 664q118 -93 118 -272q0 -202 -86 -303t-222 -101q-97 0 -153 57t-56 157q0 136 80.5 221t197.5 85q72 0 116.5 -37t57.5 -104q2 94 -28.5 156t-97.5 102l-138 -73l-14 34l112 59q-52 24 -142 42l27 71q119 -23 195 -71l114 61l14 -34zM257 57q87 0 140.5 63.5
t53.5 165.5q0 71 -35 112t-99 41q-86 0 -140.5 -64t-54.5 -164q0 -71 36 -112.5t99 -41.5z" />
    <glyph glyph-name="ntilde" unicode="&#xf1;" horiz-adv-x="580" 
d="M192 605q16 101 98 101q29 0 51.5 -14t40 -28t33.5 -14q36 0 45 48h51q-16 -101 -98 -101q-37 0 -73 28t-54 28q-36 0 -43 -48h-51zM381 536q87 0 125.5 -47.5t23.5 -142.5l-55 -346h-88l50 318q23 146 -98 146q-70 0 -116 -44.5t-60 -122.5l-47 -297h-88l83 524h81
l-16 -100q67 112 205 112z" />
    <glyph glyph-name="ograve" unicode="&#xf2;" horiz-adv-x="578" 
d="M392 592h-69l-79 143h92zM36 211q0 146 83 235.5t214 89.5q98 0 153.5 -59.5t55.5 -163.5q0 -146 -83 -235.5t-213 -89.5q-98 0 -154 59.5t-56 163.5zM124 220q0 -75 35 -119t97 -44q86 0 142 70t56 177q0 75 -35 119t-97 44q-86 0 -142 -70t-56 -177z" />
    <glyph glyph-name="oacute" unicode="&#xf3;" horiz-adv-x="578" 
d="M291 592l101 143h92l-124 -143h-69zM36 211q0 146 83 235.5t214 89.5q98 0 153.5 -59.5t55.5 -163.5q0 -146 -83 -235.5t-213 -89.5q-98 0 -154 59.5t-56 163.5zM124 220q0 -75 35 -119t97 -44q86 0 142 70t56 177q0 75 -35 119t-97 44q-86 0 -142 -70t-56 -177z" />
    <glyph glyph-name="ocircumflex" unicode="&#xf4;" horiz-adv-x="578" 
d="M198 592l117 143h98l71 -143h-65l-60 110l-95 -110h-66zM36 211q0 146 83 235.5t214 89.5q98 0 153.5 -59.5t55.5 -163.5q0 -146 -83 -235.5t-213 -89.5q-98 0 -154 59.5t-56 163.5zM124 220q0 -75 35 -119t97 -44q86 0 142 70t56 177q0 75 -35 119t-97 44
q-86 0 -142 -70t-56 -177z" />
    <glyph glyph-name="otilde" unicode="&#xf5;" horiz-adv-x="578" 
d="M191 605q17 101 99 101q28 0 50.5 -14t40.5 -28t34 -14q36 0 45 48h51q-7 -44 -31 -72.5t-68 -28.5q-28 0 -51 14t-41 28t-34 14q-18 0 -29.5 -13t-14.5 -35h-51zM36 211q0 146 83 235.5t214 89.5q98 0 153.5 -59.5t55.5 -163.5q0 -146 -83 -235.5t-213 -89.5
q-98 0 -154 59.5t-56 163.5zM124 220q0 -75 35 -119t97 -44q86 0 142 70t56 177q0 75 -35 119t-97 44q-86 0 -142 -70t-56 -177z" />
    <glyph glyph-name="odieresis" unicode="&#xf6;" horiz-adv-x="578" 
d="M219 610l17 106h81l-18 -106h-80zM389 610l18 106h80l-17 -106h-81zM36 211q0 146 83 235.5t214 89.5q98 0 153.5 -59.5t55.5 -163.5q0 -146 -83 -235.5t-213 -89.5q-98 0 -154 59.5t-56 163.5zM124 220q0 -75 35 -119t97 -44q86 0 142 70t56 177q0 75 -35 119t-97 44
q-86 0 -142 -70t-56 -177z" />
    <glyph glyph-name="divide" unicode="&#xf7;" horiz-adv-x="499" 
d="M278 442q-17 0 -28 11.5t-11 28.5q0 21 16 36.5t38 15.5q17 0 28 -11.5t11 -28.5q0 -21 -16.5 -36.5t-37.5 -15.5zM75 364h381l-10 -63h-381zM229 131q-17 0 -28 11.5t-11 28.5q0 21 16 36.5t37 15.5q17 0 28 -11.5t11 -28.5q0 -21 -16 -36.5t-37 -15.5z" />
    <glyph glyph-name="oslash" unicode="&#xf8;" horiz-adv-x="578" 
d="M562 525l-61 -66q41 -56 41 -146q0 -146 -83 -235.5t-213 -89.5q-82 0 -136 43l-53 -58l-40 26l60 66q-41 58 -41 146q0 146 83 235.5t214 89.5q83 0 135 -43l53 58zM124 220q0 -48 16 -86l272 297q-34 36 -90 36q-86 0 -142 -70t-56 -177zM454 304q0 51 -16 86
l-271 -297q34 -36 89 -36q86 0 142 70t56 177z" />
    <glyph glyph-name="ugrave" unicode="&#xf9;" horiz-adv-x="580" 
d="M394 592h-69l-79 143h92zM464 524h88l-83 -524h-81l18 108q-68 -120 -207 -120q-85 0 -124 50t-23 147l53 339h88l-50 -313q-23 -151 99 -151q69 0 116 49t61 128z" />
    <glyph glyph-name="uacute" unicode="&#xfa;" horiz-adv-x="580" 
d="M293 592l101 143h92l-124 -143h-69zM464 524h88l-83 -524h-81l18 108q-68 -120 -207 -120q-85 0 -124 50t-23 147l53 339h88l-50 -313q-23 -151 99 -151q69 0 116 49t61 128z" />
    <glyph glyph-name="ucircumflex" unicode="&#xfb;" horiz-adv-x="580" 
d="M200 592l117 143h98l71 -143h-65l-60 110l-95 -110h-66zM464 524h88l-83 -524h-81l18 108q-68 -120 -207 -120q-85 0 -124 50t-23 147l53 339h88l-50 -313q-23 -151 99 -151q69 0 116 49t61 128z" />
    <glyph glyph-name="udieresis" unicode="&#xfc;" horiz-adv-x="580" 
d="M221 610l17 106h81l-18 -106h-80zM391 610l18 106h80l-17 -106h-81zM464 524h88l-83 -524h-81l18 108q-68 -120 -207 -120q-85 0 -124 50t-23 147l53 339h88l-50 -313q-23 -151 99 -151q69 0 116 49t61 128z" />
    <glyph glyph-name="yacute" unicode="&#xfd;" horiz-adv-x="547" 
d="M467 735l-124 -143h-69l101 143h92zM473 524h95l-287 -584q-42 -87 -84 -119.5t-117 -32.5q-25 0 -58 3l11 68q36 -2 53 -2q41 0 65 20t50 76l23 47h-49l-115 524h96l94 -489z" />
    <glyph glyph-name="thorn" unicode="&#xfe;" horiz-adv-x="594" 
d="M-4 -200l148 936h88l-49 -311q34 53 85 82t110 29q83 0 131.5 -58t48.5 -161q0 -148 -76.5 -238.5t-190.5 -90.5q-59 0 -100.5 29t-59.5 83l-47 -300h-88zM152 262q-14 -93 19.5 -149t105.5 -56q84 0 138.5 70.5t54.5 177.5q0 74 -34 118t-95 44q-72 0 -123 -56t-66 -149
z" />
    <glyph glyph-name="ydieresis" unicode="&#xff;" horiz-adv-x="547" 
d="M300 716l-17 -106h-81l17 106h81zM470 716l-17 -106h-81l18 106h80zM473 524h95l-287 -584q-42 -87 -84 -119.5t-117 -32.5q-25 0 -58 3l11 68q36 -2 53 -2q41 0 65 20t50 76l23 47h-49l-115 524h96l94 -489z" />
    <glyph glyph-name="Amacron" unicode="&#x100;" horiz-adv-x="668" 
d="M575 834l-9 -62h-304l9 62h304zM513 0l-33 184h-318l-92 -184h-92l356 700h140l134 -700h-95zM394 650l-197 -396h270z" />
    <glyph glyph-name="amacron" unicode="&#x101;" horiz-adv-x="555" 
d="M194 627l10 61h284l-9 -61h-285zM20 113q0 162 234 185l158 15l8 50q7 49 -19 79t-87 30q-56 0 -96 -25.5t-51 -76.5h-81q16 85 80.5 125.5t157.5 40.5q103 0 149.5 -49t31.5 -141l-55 -346h-80l17 107q-72 -119 -219 -119q-74 0 -111 34.5t-37 90.5zM109 127
q0 -34 23.5 -55t71.5 -21q75 0 127 46.5t66 120.5l6 39l-147 -15q-147 -15 -147 -115z" />
    <glyph glyph-name="Abreve" unicode="&#x102;" horiz-adv-x="668" 
d="M412 759q-70 0 -100.5 34.5t-24.5 91.5h55q-2 -30 15.5 -50.5t62.5 -20.5q83 0 102 71h55q-11 -57 -53 -91.5t-112 -34.5zM513 0l-33 184h-318l-92 -184h-92l356 700h140l134 -700h-95zM394 650l-197 -396h270z" />
    <glyph glyph-name="abreve" unicode="&#x103;" horiz-adv-x="555" 
d="M213 731h53q-3 -36 14 -59.5t60 -23.5q82 0 101 83h53q-13 -63 -53.5 -100.5t-108.5 -37.5t-97.5 37.5t-21.5 100.5zM20 113q0 162 234 185l158 15l8 50q7 49 -19 79t-87 30q-56 0 -96 -25.5t-51 -76.5h-81q16 85 80.5 125.5t157.5 40.5q103 0 149.5 -49t31.5 -141
l-55 -346h-80l17 107q-72 -119 -219 -119q-74 0 -111 34.5t-37 90.5zM109 127q0 -34 23.5 -55t71.5 -21q75 0 127 46.5t66 120.5l6 39l-147 -15q-147 -15 -147 -115z" />
    <glyph glyph-name="Aogonek" unicode="&#x104;" horiz-adv-x="668" 
d="M513 -155q42 0 57 51l37 -10q-31 -82 -113 -82q-33 0 -52.5 16t-19.5 46q0 48 35.5 77.5t97.5 56.5h-42l-33 184h-318l-92 -184h-92l356 700h140l134 -700q-60 -33 -92.5 -61.5t-32.5 -63.5q0 -30 30 -30zM394 650l-197 -396h270z" />
    <glyph glyph-name="aogonek" unicode="&#x105;" horiz-adv-x="555" 
d="M324 536q103 0 149.5 -49t31.5 -141l-55 -346q-60 -33 -92.5 -61.5t-32.5 -63.5q0 -30 30 -30q41 0 58 51l36 -10q-31 -82 -112 -82q-33 0 -53 16t-20 46q0 48 35.5 77.5t97.5 56.5h-27l17 107q-72 -119 -219 -119q-74 0 -111 34.5t-37 90.5q0 162 234 185l158 15l8 50
q7 49 -19 79t-87 30q-56 0 -96 -25.5t-51 -76.5h-81q16 85 80.5 125.5t157.5 40.5zM397 218l6 39l-147 -15q-147 -15 -147 -115q0 -34 23.5 -55t71.5 -21q75 0 127 46.5t66 120.5z" />
    <glyph glyph-name="Cacute" unicode="&#x106;" horiz-adv-x="667" 
d="M374 763l107 116h92l-128 -116h-71zM54 276q0 185 98.5 310.5t266.5 125.5q115 0 179.5 -62.5t61.5 -168.5l-88 -9q1 75 -44.5 120t-120.5 45q-81 0 -142 -52.5t-89.5 -129.5t-28.5 -164q0 -101 45.5 -164.5t130.5 -63.5q81 0 139 50t79 126l87 -7q-31 -110 -113 -177
t-203 -67q-126 0 -192 78t-66 210z" />
    <glyph glyph-name="cacute" unicode="&#x107;" horiz-adv-x="545" 
d="M277 592l101 143h92l-124 -143h-69zM36 207q0 153 80.5 241t209.5 88q90 0 144 -48t52 -137l-85 -8q-1 61 -34.5 92.5t-87.5 31.5q-82 0 -136 -68.5t-54 -181.5q0 -76 34 -118t94 -42q56 0 99.5 33.5t64.5 95.5l83 -7q-26 -91 -96 -141t-162 -50q-97 0 -151.5 57
t-54.5 162z" />
    <glyph glyph-name="Cdotaccent" unicode="&#x10a;" horiz-adv-x="667" 
d="M366 764l15 97h99l-15 -97h-99zM54 276q0 185 98.5 310.5t266.5 125.5q115 0 179.5 -62.5t61.5 -168.5l-88 -9q1 75 -44.5 120t-120.5 45q-81 0 -142 -52.5t-89.5 -129.5t-28.5 -164q0 -101 45.5 -164.5t130.5 -63.5q81 0 139 50t79 126l87 -7q-31 -110 -113 -177
t-203 -67q-126 0 -192 78t-66 210z" />
    <glyph glyph-name="cdotaccent" unicode="&#x10b;" horiz-adv-x="545" 
d="M284 610l18 112h93l-18 -112h-93zM36 207q0 153 80.5 241t209.5 88q90 0 144 -48t52 -137l-85 -8q-1 61 -34.5 92.5t-87.5 31.5q-82 0 -136 -68.5t-54 -181.5q0 -76 34 -118t94 -42q56 0 99.5 33.5t64.5 95.5l83 -7q-26 -91 -96 -141t-162 -50q-97 0 -151.5 57t-54.5 162
z" />
    <glyph glyph-name="Ccaron" unicode="&#x10c;" horiz-adv-x="667" 
d="M282 879h67l71 -88l99 88h66l-118 -117h-103zM54 276q0 185 98.5 310.5t266.5 125.5q115 0 179.5 -62.5t61.5 -168.5l-88 -9q1 75 -44.5 120t-120.5 45q-81 0 -142 -52.5t-89.5 -129.5t-28.5 -164q0 -101 45.5 -164.5t130.5 -63.5q81 0 139 50t79 126l87 -7
q-31 -110 -113 -177t-203 -67q-126 0 -192 78t-66 210z" />
    <glyph glyph-name="ccaron" unicode="&#x10d;" horiz-adv-x="545" 
d="M207 732h65l60 -110l95 110h66l-117 -143h-98zM36 207q0 153 80.5 241t209.5 88q90 0 144 -48t52 -137l-85 -8q-1 61 -34.5 92.5t-87.5 31.5q-82 0 -136 -68.5t-54 -181.5q0 -76 34 -118t94 -42q56 0 99.5 33.5t64.5 95.5l83 -7q-26 -91 -96 -141t-162 -50
q-97 0 -151.5 57t-54.5 162z" />
    <glyph glyph-name="Dcaron" unicode="&#x10e;" horiz-adv-x="694" 
d="M292 879h66l71 -88l99 88h67l-118 -117h-104zM43 0l111 700h256q125 0 191 -73.5t66 -204.5q0 -191 -99 -306.5t-269 -115.5h-256zM147 75h155q127 0 199.5 92.5t72.5 241.5q0 101 -47.5 158.5t-137.5 57.5h-154z" />
    <glyph glyph-name="dcaron" unicode="&#x10f;" horiz-adv-x="611" 
d="M512 736h88l-117 -736h-81l18 114q-34 -60 -87.5 -93t-115.5 -33q-83 0 -132 58t-49 161q0 148 76.5 238.5t190.5 90.5q59 0 101 -29t59 -80zM637 583l25 153h66l-8 -54l-49 -99h-34zM253 57q72 0 123 56t65 149q15 96 -19 150.5t-105 54.5q-84 0 -138 -70.5t-54 -177.5
q0 -74 33.5 -118t94.5 -44z" />
    <glyph glyph-name="Dcroat" unicode="&#x110;" horiz-adv-x="709" 
d="M424 700q125 0 191.5 -73.5t66.5 -204.5q0 -192 -99 -307t-270 -115h-255l51 317h-69l10 66h69l50 317h255zM316 75q128 0 200.5 92.5t72.5 241.5q0 101 -47.5 158.5t-138.5 57.5h-153l-39 -242h194l-10 -66h-194l-39 -242h154z" />
    <glyph glyph-name="dcroat" unicode="&#x111;" horiz-adv-x="594" 
d="M647 647l-8 -46h-60l-96 -601h-81l18 114q-34 -60 -87.5 -93t-115.5 -33q-83 0 -132 58t-49 161q0 148 76.5 238.5t190.5 90.5q59 0 101 -29t59 -80l28 174h-189l8 46h188l14 89h88l-14 -89h61zM441 262q15 96 -19 150.5t-105 54.5q-84 0 -138 -70.5t-54 -177.5
q0 -74 33.5 -118t94.5 -44q72 0 123 56t65 149z" />
    <glyph glyph-name="Emacron" unicode="&#x112;" horiz-adv-x="609" 
d="M236 772l10 62h304l-9 -62h-305zM43 0l111 700h468l-11 -73h-376l-38 -236h298l-11 -70h-298l-39 -248h389l-11 -73h-482z" />
    <glyph glyph-name="emacron" unicode="&#x113;" horiz-adv-x="562" 
d="M489 688l-10 -61h-284l10 61h284zM332 536q236 0 191 -287l-1 -12h-398v-21q0 -80 36.5 -122t102.5 -42q103 0 153 90l82 -5q-31 -70 -94.5 -109.5t-150.5 -39.5q-102 0 -159.5 55.5t-57.5 163.5q0 156 83.5 242.5t212.5 86.5zM322 472q-70 0 -121.5 -46t-69.5 -131h313
q10 82 -22.5 129.5t-99.5 47.5z" />
    <glyph glyph-name="Edotaccent" unicode="&#x116;" horiz-adv-x="609" 
d="M338 764l15 97h99l-15 -97h-99zM43 0l111 700h468l-11 -73h-376l-38 -236h298l-11 -70h-298l-39 -248h389l-11 -73h-482z" />
    <glyph glyph-name="edotaccent" unicode="&#x117;" horiz-adv-x="562" 
d="M399 722l-18 -112h-92l18 112h92zM332 536q236 0 191 -287l-1 -12h-398v-21q0 -80 36.5 -122t102.5 -42q103 0 153 90l82 -5q-31 -70 -94.5 -109.5t-150.5 -39.5q-102 0 -159.5 55.5t-57.5 163.5q0 156 83.5 242.5t212.5 86.5zM322 472q-70 0 -121.5 -46t-69.5 -131h313
q10 82 -22.5 129.5t-99.5 47.5z" />
    <glyph glyph-name="Eogonek" unicode="&#x118;" horiz-adv-x="609" 
d="M611 627h-376l-38 -236h298l-11 -70h-298l-39 -248h389l-11 -73h-18q-60 -33 -92.5 -61.5t-32.5 -63.5q0 -30 30 -30q42 0 57 51l37 -10q-31 -82 -113 -82q-33 0 -52.5 16t-19.5 46q0 48 35.5 77.5t97.5 56.5h-411l111 700h468z" />
    <glyph glyph-name="eogonek" unicode="&#x119;" horiz-adv-x="562" 
d="M332 536q236 0 191 -287l-1 -12h-398v-21q0 -80 36.5 -122t102.5 -42q103 0 153 90l82 -5q-32 -74 -100 -113q-105 -61 -135 -88t-30 -61q0 -30 30 -30q41 0 58 51l36 -10q-31 -82 -113 -82q-33 0 -52.5 16t-19.5 46q0 42 29 70.5t80 52.5q-9 -1 -28 -1
q-102 0 -159.5 55.5t-57.5 163.5q0 156 83.5 242.5t212.5 86.5zM322 472q-70 0 -121.5 -46t-69.5 -131h313q10 82 -22.5 129.5t-99.5 47.5z" />
    <glyph glyph-name="Ecaron" unicode="&#x11a;" horiz-adv-x="609" 
d="M254 879h67l71 -88l99 88h66l-118 -117h-103zM43 0l111 700h468l-11 -73h-376l-38 -236h298l-11 -70h-298l-39 -248h389l-11 -73h-482z" />
    <glyph glyph-name="ecaron" unicode="&#x11b;" horiz-adv-x="562" 
d="M380 589h-97l-72 143h66l60 -110l95 110h65zM332 536q236 0 191 -287l-1 -12h-398v-21q0 -80 36.5 -122t102.5 -42q103 0 153 90l82 -5q-31 -70 -94.5 -109.5t-150.5 -39.5q-102 0 -159.5 55.5t-57.5 163.5q0 156 83.5 242.5t212.5 86.5zM322 472q-70 0 -121.5 -46
t-69.5 -131h313q10 82 -22.5 129.5t-99.5 47.5z" />
    <glyph glyph-name="Gbreve" unicode="&#x11e;" horiz-adv-x="680" 
d="M297 885h55q-2 -30 15.5 -50.5t62.5 -20.5q82 0 101 71h55q-11 -57 -53 -91.5t-112 -34.5q-69 0 -100 34.5t-24 91.5zM55 281q0 118 42 214.5t126 156.5t197 60q111 0 175 -58.5t66 -158.5l-89 -8q-3 68 -48.5 109t-116.5 41q-80 0 -141 -52.5t-89.5 -128.5t-28.5 -161
q0 -103 50.5 -167.5t148.5 -64.5q90 0 179 41l30 188h-192l10 64h276l-49 -302q-140 -66 -269 -66q-136 0 -206.5 79.5t-70.5 213.5z" />
    <glyph glyph-name="gbreve" unicode="&#x11f;" horiz-adv-x="590" 
d="M229 731h53q-8 -83 74 -83q80 0 101 83h53q-13 -63 -53.5 -100.5t-108.5 -37.5t-97.5 37.5t-21.5 100.5zM481 524h81l-77 -486q-20 -129 -85.5 -189.5t-184.5 -60.5q-99 0 -149 42.5t-40 127.5h81q-5 -51 26.5 -77t92.5 -26q76 0 116 40.5t52 119.5l15 96
q-71 -101 -187 -101q-84 0 -134 58t-50 156q0 137 77 224.5t190 87.5q61 0 102.5 -29.5t57.5 -82.5zM255 77q71 0 122 53.5t65 140.5q14 88 -20 142t-105 54q-82 0 -137 -66.5t-55 -167.5q0 -71 35 -113.5t95 -42.5z" />
    <glyph glyph-name="Gdotaccent" unicode="&#x120;" horiz-adv-x="680" 
d="M373 764l15 97h99l-15 -97h-99zM55 281q0 118 42 214.5t126 156.5t197 60q111 0 175 -58.5t66 -158.5l-89 -8q-3 68 -48.5 109t-116.5 41q-80 0 -141 -52.5t-89.5 -128.5t-28.5 -161q0 -103 50.5 -167.5t148.5 -64.5q90 0 179 41l30 188h-192l10 64h276l-49 -302
q-140 -66 -269 -66q-136 0 -206.5 79.5t-70.5 213.5z" />
    <glyph glyph-name="gdotaccent" unicode="&#x121;" horiz-adv-x="590" 
d="M304 610l18 112h92l-18 -112h-92zM481 524h81l-77 -486q-20 -129 -85.5 -189.5t-184.5 -60.5q-99 0 -149 42.5t-40 127.5h81q-5 -51 26.5 -77t92.5 -26q76 0 116 40.5t52 119.5l15 96q-71 -101 -187 -101q-84 0 -134 58t-50 156q0 137 77 224.5t190 87.5
q61 0 102.5 -29.5t57.5 -82.5zM255 77q71 0 122 53.5t65 140.5q14 88 -20 142t-105 54q-82 0 -137 -66.5t-55 -167.5q0 -71 35 -113.5t95 -42.5z" />
    <glyph glyph-name="Gcommaaccent" unicode="&#x122;" horiz-adv-x="680" 
d="M55 281q0 118 42 214.5t126 156.5t197 60q111 0 175 -58.5t66 -158.5l-89 -8q-3 68 -48.5 109t-116.5 41q-80 0 -141 -52.5t-89.5 -128.5t-28.5 -161q0 -103 50.5 -167.5t148.5 -64.5q90 0 179 41l30 188h-192l10 64h276l-49 -302q-140 -66 -269 -66q-136 0 -206.5 79.5
t-70.5 213.5zM237 -214l26 161h80l-9 -57l-58 -104h-39z" />
    <glyph glyph-name="gcommaaccent" unicode="&#x123;" horiz-adv-x="590" 
d="M416 775l-25 -161h-81l9 58l59 103h38zM481 524h81l-77 -486q-20 -129 -85.5 -189.5t-184.5 -60.5q-99 0 -149 42.5t-40 127.5h81q-5 -51 26.5 -77t92.5 -26q76 0 116 40.5t52 119.5l15 96q-71 -101 -187 -101q-84 0 -134 58t-50 156q0 137 77 224.5t190 87.5
q61 0 102.5 -29.5t57.5 -82.5zM255 77q71 0 122 53.5t65 140.5q14 88 -20 142t-105 54q-82 0 -137 -66.5t-55 -167.5q0 -71 35 -113.5t95 -42.5z" />
    <glyph glyph-name="Hbar" unicode="&#x126;" horiz-adv-x="714" 
d="M748 581l-9 -55h-68l-83 -526h-92l50 318h-360l-51 -318h-92l84 526h-68l9 55h68l18 119h92l-18 -119h360l19 119h92l-19 -119h68zM559 394l21 132h-361l-21 -132h361z" />
    <glyph glyph-name="hbar" unicode="&#x127;" horiz-adv-x="581" 
d="M382 536q87 0 125.5 -47.5t23.5 -142.5l-55 -346h-88l50 318q25 146 -97 146q-69 0 -115 -43t-61 -119l-48 -302h-88l96 601h-62l7 46h62l14 89h88l-14 -89h187l-8 -46h-187l-26 -164q68 99 196 99z" />
    <glyph glyph-name="Imacron" unicode="&#x12a;" horiz-adv-x="262" 
d="M60 772l9 62h304l-9 -62h-304zM43 0l111 700h92l-111 -700h-92z" />
    <glyph glyph-name="imacron" unicode="&#x12b;" horiz-adv-x="227" 
d="M49 627l10 61h244l-10 -61h-244zM28 0l83 524h88l-83 -524h-88z" />
    <glyph glyph-name="Iogonek" unicode="&#x12e;" horiz-adv-x="262" 
d="M49 -155q41 0 58 51l36 -10q-31 -82 -113 -82q-32 0 -51.5 16.5t-19.5 47.5q0 46 32.5 76.5t91.5 55.5h-40l111 700h92l-111 -700q-116 -64 -116 -124q0 -31 30 -31z" />
    <glyph glyph-name="iogonek" unicode="&#x12f;" horiz-adv-x="227" 
d="M140 722h93l-18 -112h-93zM116 0q-57 -31 -87 -60.5t-30 -63.5q0 -31 30 -31q41 0 58 51l36 -10q-14 -38 -43 -60t-69 -22q-33 0 -52.5 16.5t-19.5 47.5q0 46 32.5 76.5t91.5 55.5h-35l83 524h88z" />
    <glyph glyph-name="Idotaccent" unicode="&#x130;" horiz-adv-x="262" 
d="M161 764l15 97h99l-15 -97h-99zM43 0l111 700h92l-111 -700h-92z" />
    <glyph glyph-name="dotlessi" unicode="&#x131;" horiz-adv-x="234" 
d="M32 0l83 524h87l-83 -524h-87z" />
    <glyph glyph-name="Kcommaaccent" unicode="&#x136;" horiz-adv-x="669" 
d="M695 700l-320 -340l229 -360h-110l-197 318h-111l-51 -318h-92l111 700h92l-49 -310h109l281 310h108zM215 -214l26 161h80l-9 -57l-58 -104h-39z" />
    <glyph glyph-name="kcommaaccent" unicode="&#x137;" horiz-adv-x="545" 
d="M564 524l-268 -252l197 -272h-109l-159 231h-73l-36 -231h-88l117 736h88l-70 -436h73l220 224h108zM159 -214l26 161h80l-9 -57l-58 -104h-39z" />
    <glyph glyph-name="Lacute" unicode="&#x139;" horiz-adv-x="548" 
d="M172 763l107 116h92l-128 -116h-71zM43 0l111 700h92l-99 -625h339l-12 -75h-431z" />
    <glyph glyph-name="lacute" unicode="&#x13a;" horiz-adv-x="227" 
d="M158 799l106 116h93l-129 -116h-70zM145 736h88l-117 -736h-88z" />
    <glyph glyph-name="Lcommaaccent" unicode="&#x13b;" horiz-adv-x="548" 
d="M43 0l111 700h92l-99 -625h339l-12 -75h-431zM159 -214l26 161h80l-9 -57l-58 -104h-39z" />
    <glyph glyph-name="lcommaaccent" unicode="&#x13c;" horiz-adv-x="227" 
d="M145 736h88l-117 -736h-88zM-2 -214l25 161h81l-10 -57l-58 -104h-38z" />
    <glyph glyph-name="Lcaron" unicode="&#x13d;" horiz-adv-x="548" 
d="M43 0l111 700h92l-99 -625h339l-12 -75h-431zM318 547l24 153h67l-9 -54l-48 -99h-34z" />
    <glyph glyph-name="lcaron" unicode="&#x13e;" horiz-adv-x="244" 
d="M145 736h88l-117 -736h-88zM270 583l25 153h66l-8 -54l-49 -99h-34z" />
    <glyph glyph-name="Ldot" unicode="&#x13f;" horiz-adv-x="548" 
d="M43 0l111 700h92l-99 -625h339l-12 -75h-431zM296 307l18 115h102l-18 -115h-102z" />
    <glyph glyph-name="ldot" unicode="&#x140;" horiz-adv-x="333" 
d="M145 736h88l-117 -736h-88zM220 252l18 115h102l-18 -115h-102z" />
    <glyph glyph-name="Lslash" unicode="&#x141;" horiz-adv-x="576" 
d="M175 75h339l-12 -75h-431l45 281l-89 -34l10 61l89 34l56 358h92l-51 -320l211 82l-9 -61l-211 -82z" />
    <glyph glyph-name="lslash" unicode="&#x142;" horiz-adv-x="257" 
d="M261 490l-10 -65l-60 -49l-60 -376h-88l47 295l-61 -49l10 65l62 50l59 375h88l-46 -294z" />
    <glyph glyph-name="Nacute" unicode="&#x143;" horiz-adv-x="725" 
d="M600 879l-128 -116h-71l107 116h92zM621 700h89l-111 -700h-155l-210 645l-102 -645h-89l111 700h155l210 -644z" />
    <glyph glyph-name="nacute" unicode="&#x144;" horiz-adv-x="580" 
d="M291 592l102 143h91l-123 -143h-70zM381 536q87 0 125.5 -47.5t23.5 -142.5l-55 -346h-88l50 318q23 146 -98 146q-70 0 -116 -44.5t-60 -122.5l-47 -297h-88l83 524h81l-16 -100q67 112 205 112z" />
    <glyph glyph-name="Ncommaaccent" unicode="&#x145;" horiz-adv-x="725" 
d="M621 700h89l-111 -700h-155l-210 645l-102 -645h-89l111 700h155l210 -644zM247 -214l26 161h80l-9 -57l-58 -104h-39z" />
    <glyph glyph-name="ncommaaccent" unicode="&#x146;" horiz-adv-x="580" 
d="M381 536q87 0 125.5 -47.5t23.5 -142.5l-55 -346h-88l50 318q23 146 -98 146q-70 0 -116 -44.5t-60 -122.5l-47 -297h-88l83 524h81l-16 -100q67 112 205 112zM174 -214l25 161h81l-9 -57l-58 -104h-39z" />
    <glyph glyph-name="Ncaron" unicode="&#x147;" horiz-adv-x="725" 
d="M494 762h-103l-82 117h67l71 -88l99 88h66zM621 700h89l-111 -700h-155l-210 645l-102 -645h-89l111 700h155l210 -644z" />
    <glyph glyph-name="ncaron" unicode="&#x148;" horiz-adv-x="580" 
d="M221 732h65l61 -110l95 110h65l-117 -143h-98zM381 536q87 0 125.5 -47.5t23.5 -142.5l-55 -346h-88l50 318q23 146 -98 146q-70 0 -116 -44.5t-60 -122.5l-47 -297h-88l83 524h81l-16 -100q67 112 205 112z" />
    <glyph glyph-name="Eng" unicode="&#x14a;" horiz-adv-x="725" 
d="M621 700h89l-111 -700l-7 -40q-28 -174 -214 -174q-25 0 -69 4l11 73q21 -4 51 -4q121 0 135 111l4 30h-66l-210 645l-102 -645h-89l111 700h155l210 -644z" />
    <glyph glyph-name="eng" unicode="&#x14b;" horiz-adv-x="580" 
d="M28 0l83 524h81l-16 -100q66 112 205 112q87 0 125.5 -47.5t23.5 -142.5l-69 -431q-10 -69 -43 -98t-99 -29q-21 0 -67 4l11 70q32 -2 40 -2q35 0 51 16t23 62l60 380q23 146 -98 146q-70 0 -116 -44.5t-60 -122.5l-47 -297h-88z" />
    <glyph glyph-name="Omacron" unicode="&#x14c;" horiz-adv-x="720" 
d="M289 772l9 62h304l-9 -62h-304zM55 279q0 120 43.5 217.5t130 156.5t202.5 59q128 0 195 -79.5t67 -211.5q0 -120 -43.5 -217.5t-130 -156.5t-202.5 -59q-128 0 -195 79.5t-67 211.5zM148 291q0 -102 46.5 -165t133.5 -63q82 0 145 48.5t95 126.5t32 171q0 102 -46.5 165
t-134.5 63q-122 0 -196.5 -101t-74.5 -245z" />
    <glyph glyph-name="omacron" unicode="&#x14d;" horiz-adv-x="578" 
d="M204 627l10 61h284l-9 -61h-285zM36 211q0 146 83 235.5t214 89.5q98 0 153.5 -59.5t55.5 -163.5q0 -146 -83 -235.5t-213 -89.5q-98 0 -154 59.5t-56 163.5zM124 220q0 -75 35 -119t97 -44q86 0 142 70t56 177q0 75 -35 119t-97 44q-86 0 -142 -70t-56 -177z" />
    <glyph glyph-name="Ohungarumlaut" unicode="&#x150;" horiz-adv-x="720" 
d="M305 763l97 116h80l-106 -116h-71zM464 763l97 116h80l-105 -116h-72zM55 279q0 120 43.5 217.5t130 156.5t202.5 59q128 0 195 -79.5t67 -211.5q0 -120 -43.5 -217.5t-130 -156.5t-202.5 -59q-128 0 -195 79.5t-67 211.5zM148 291q0 -102 46.5 -165t133.5 -63
q82 0 145 48.5t95 126.5t32 171q0 102 -46.5 165t-134.5 63q-122 0 -196.5 -101t-74.5 -245z" />
    <glyph glyph-name="ohungarumlaut" unicode="&#x151;" horiz-adv-x="578" 
d="M221 592l96 143h71l-102 -143h-65zM364 592l97 143h70l-102 -143h-65zM36 211q0 146 83 235.5t214 89.5q98 0 153.5 -59.5t55.5 -163.5q0 -146 -83 -235.5t-213 -89.5q-98 0 -154 59.5t-56 163.5zM124 220q0 -75 35 -119t97 -44q86 0 142 70t56 177q0 75 -35 119t-97 44
q-86 0 -142 -70t-56 -177z" />
    <glyph glyph-name="OE" unicode="&#x152;" horiz-adv-x="1021" 
d="M55 278q0 192 98.5 307t269.5 115h610l-11 -73h-376l-37 -236h298l-12 -70h-297l-39 -248h390l-13 -73h-624q-125 0 -191 73.5t-66 204.5zM148 291q0 -101 47.5 -158.5t137.5 -57.5h134l87 550h-134q-127 0 -199.5 -92.5t-72.5 -241.5z" />
    <glyph glyph-name="oe" unicode="&#x153;" horiz-adv-x="970" 
d="M743 536q230 0 188 -287l-2 -12h-395q-10 -90 27 -137.5t109 -47.5q103 0 153 90l83 -5q-31 -70 -94.5 -109.5t-148.5 -39.5q-159 0 -194 131q-76 -131 -226 -131q-96 0 -151.5 59.5t-55.5 163.5q0 146 83 235.5t211 89.5q74 0 121 -34t64 -97q77 131 228 131zM852 295
q10 82 -22.5 129.5t-99.5 47.5q-66 0 -116 -45.5t-70 -131.5h308zM256 57q86 0 142 70t56 177q0 75 -35 119t-97 44q-86 0 -142 -70t-56 -177q0 -75 35 -119t97 -44z" />
    <glyph glyph-name="Racute" unicode="&#x154;" horiz-adv-x="662" 
d="M569 879l-128 -116h-71l107 116h92zM647 525q0 -108 -63.5 -166.5t-163.5 -68.5l173 -290h-111l-160 288h-141l-46 -288h-92l111 700h286q91 0 149 -43.5t58 -131.5zM192 358h184q80 0 129 40.5t49 115.5q0 55 -36.5 83.5t-99.5 28.5h-184z" />
    <glyph glyph-name="racute" unicode="&#x155;" horiz-adv-x="396" 
d="M207 592l101 143h92l-124 -143h-69zM351 534q21 0 57 -6l-13 -80q-32 6 -67 6q-71 0 -112.5 -46t-57.5 -142l-42 -266h-88l84 524h80l-17 -109q60 119 176 119z" />
    <glyph glyph-name="Rcommaaccent" unicode="&#x156;" horiz-adv-x="662" 
d="M647 525q0 -108 -63.5 -166.5t-163.5 -68.5l173 -290h-111l-160 288h-141l-46 -288h-92l111 700h286q91 0 149 -43.5t58 -131.5zM192 358h184q80 0 129 40.5t49 115.5q0 55 -36.5 83.5t-99.5 28.5h-184zM216 -214l26 161h80l-9 -57l-58 -104h-39z" />
    <glyph glyph-name="rcommaaccent" unicode="&#x157;" horiz-adv-x="396" 
d="M351 534q21 0 57 -6l-13 -80q-32 6 -67 6q-71 0 -112.5 -46t-57.5 -142l-42 -266h-88l84 524h80l-17 -109q60 119 176 119zM-2 -214l26 161h80l-9 -57l-58 -104h-39z" />
    <glyph glyph-name="Rcaron" unicode="&#x158;" horiz-adv-x="662" 
d="M463 762h-104l-81 117h66l72 -88l98 88h67zM647 525q0 -108 -63.5 -166.5t-163.5 -68.5l173 -290h-111l-160 288h-141l-46 -288h-92l111 700h286q91 0 149 -43.5t58 -131.5zM192 358h184q80 0 129 40.5t49 115.5q0 55 -36.5 83.5t-99.5 28.5h-184z" />
    <glyph glyph-name="rcaron" unicode="&#x159;" horiz-adv-x="396" 
d="M137 732h65l61 -110l95 110h65l-117 -143h-98zM351 534q21 0 57 -6l-13 -80q-32 6 -67 6q-71 0 -112.5 -46t-57.5 -142l-42 -266h-88l84 524h80l-17 -109q60 119 176 119z" />
    <glyph glyph-name="Sacute" unicode="&#x15a;" horiz-adv-x="607" 
d="M341 763l107 116h92l-129 -116h-70zM25 215l87 3q-8 -75 32 -116t131 -41q80 0 133 32t53 100q0 35 -25 59t-80 43l-136 46q-124 42 -124 155q0 72 38.5 122.5t96.5 72t130 21.5q109 0 170 -54t53 -150l-87 -6q6 62 -32 99.5t-116 37.5q-73 0 -115.5 -33t-42.5 -91
q0 -70 93 -100l136 -46q136 -46 136 -157q0 -110 -79.5 -167t-213.5 -57q-129 0 -189 58.5t-49 168.5z" />
    <glyph glyph-name="sacute" unicode="&#x15b;" horiz-adv-x="496" 
d="M245 592l102 143h91l-123 -143h-70zM7 149l80 4q-3 -51 29.5 -76t96.5 -25q65 0 105 24t40 66q0 25 -21 42.5t-69 32.5l-107 33q-101 31 -101 123q0 82 60 122.5t156 40.5q92 0 145.5 -38.5t48.5 -116.5l-81 -5q1 48 -32.5 72t-90.5 24q-54 0 -86.5 -22.5t-32.5 -62.5
q0 -48 74 -72l108 -33q116 -36 116 -125q0 -80 -65 -124.5t-179 -44.5q-99 0 -150 39.5t-44 121.5z" />
    <glyph glyph-name="Scedilla" unicode="&#x15e;" horiz-adv-x="607" 
d="M584 508l-87 -6q6 62 -32 99.5t-116 37.5q-73 0 -115.5 -33t-42.5 -91q0 -70 93 -100l136 -46q136 -46 136 -157q0 -109 -78.5 -166t-211.5 -58l-36 -50q26 11 49 11q28 0 50 -16.5t22 -48.5q0 -46 -33.5 -69t-77.5 -23q-39 0 -62.5 18t-24.5 51l43 3q3 -34 43 -34
q23 0 38.5 12.5t15.5 36.5q0 18 -11 27t-27 9t-42 -11l-34 16l48 69q-110 8 -161.5 66t-40.5 160l87 3q-8 -75 32 -116t131 -41q80 0 133 32t53 100q0 35 -25 59t-80 43l-136 46q-124 42 -124 155q0 72 38.5 122.5t96.5 72t130 21.5q109 0 170 -54t53 -150z" />
    <glyph glyph-name="scedilla" unicode="&#x15f;" horiz-adv-x="496" 
d="M470 381l-81 -5q1 48 -32.5 72t-90.5 24q-54 0 -86.5 -22.5t-32.5 -62.5q0 -48 74 -72l108 -33q116 -36 116 -125q0 -79 -63.5 -123t-174.5 -46l-36 -50q26 11 49 11q29 0 50.5 -16t21.5 -49q0 -46 -33.5 -69t-77.5 -23q-39 0 -62.5 18t-24.5 51l43 3q3 -34 43 -34
q23 0 38.5 12.5t15.5 36.5q0 18 -11 27t-27 9t-42 -11l-34 16l48 69q-83 6 -125 45.5t-36 114.5l80 4q-3 -51 29.5 -76t96.5 -25q65 0 105 24t40 66q0 25 -21 42.5t-69 32.5l-107 33q-101 31 -101 123q0 82 60 122.5t156 40.5q92 0 145.5 -38.5t48.5 -116.5z" />
    <glyph glyph-name="Scaron" unicode="&#x160;" horiz-adv-x="607" 
d="M249 879h66l71 -88l99 88h67l-118 -117h-104zM25 215l87 3q-8 -75 32 -116t131 -41q80 0 133 32t53 100q0 35 -25 59t-80 43l-136 46q-124 42 -124 155q0 72 38.5 122.5t96.5 72t130 21.5q109 0 170 -54t53 -150l-87 -6q6 62 -32 99.5t-116 37.5q-73 0 -115.5 -33
t-42.5 -91q0 -70 93 -100l136 -46q136 -46 136 -157q0 -110 -79.5 -167t-213.5 -57q-129 0 -189 58.5t-49 168.5z" />
    <glyph glyph-name="scaron" unicode="&#x161;" horiz-adv-x="496" 
d="M175 732h65l61 -110l95 110h65l-117 -143h-98zM7 149l80 4q-3 -51 29.5 -76t96.5 -25q65 0 105 24t40 66q0 25 -21 42.5t-69 32.5l-107 33q-101 31 -101 123q0 82 60 122.5t156 40.5q92 0 145.5 -38.5t48.5 -116.5l-81 -5q1 48 -32.5 72t-90.5 24q-54 0 -86.5 -22.5
t-32.5 -62.5q0 -48 74 -72l108 -33q116 -36 116 -125q0 -80 -65 -124.5t-179 -44.5q-99 0 -150 39.5t-44 121.5z" />
    <glyph glyph-name="uni0162" unicode="&#x162;" horiz-adv-x="580" 
d="M94 700h530l-11 -75h-219l-99 -625h-28l-45 -62q26 11 49 11q28 0 50 -16.5t22 -48.5q0 -46 -33.5 -69t-77.5 -23q-39 0 -62.5 18t-24.5 51l43 3q3 -34 43 -34q23 0 38.5 12.5t15.5 36.5q0 18 -11 27t-27 9t-42 -11l-34 16l56 80h-24l99 625h-220z" />
    <glyph glyph-name="uni0163" unicode="&#x163;" horiz-adv-x="376" 
d="M247 457l-49 -306q-8 -50 3 -68.5t50 -18.5q25 0 62 5l-11 -70q-36 -7 -78 -7h-11l-40 -54q26 11 50 11q28 0 49.5 -16t21.5 -49q0 -46 -33.5 -69t-76.5 -23q-83 0 -88 69l44 3q3 -34 43 -34q23 0 38.5 12.5t15.5 36.5q0 18 -11.5 27t-27.5 9t-42 -11l-34 16l54 76
q-47 10 -62.5 43t-5.5 98l51 320h-110l10 65h84q31 0 37 31l13 86h83l-19 -115h128l-10 -67h-128z" />
    <glyph glyph-name="Tcaron" unicode="&#x164;" horiz-adv-x="580" 
d="M236 879h67l71 -88l99 88h66l-118 -117h-103zM82 625l12 75h530l-11 -75h-219l-99 -625h-92l99 625h-220z" />
    <glyph glyph-name="tcaron" unicode="&#x165;" horiz-adv-x="377" 
d="M327 583l25 153h66l-8 -54l-49 -99h-34zM49 457l10 65h84q31 0 37 31l13 86h83l-19 -115h128l-10 -67h-128l-49 -306q-8 -50 3 -68.5t50 -18.5q25 0 62 5l-11 -70q-36 -7 -78 -7q-76 0 -102 33t-14 112l51 320h-110z" />
    <glyph glyph-name="Tbar" unicode="&#x166;" horiz-adv-x="580" 
d="M613 625h-219l-31 -197h147l-8 -56h-148l-59 -372h-92l59 372h-148l9 56h148l31 197h-220l12 75h530z" />
    <glyph glyph-name="tbar" unicode="&#x167;" horiz-adv-x="376" 
d="M375 457h-128l-22 -139h120l-10 -61h-120l-17 -106q-8 -50 3 -68.5t50 -18.5q25 0 62 5l-11 -70q-36 -7 -78 -7q-76 0 -102 33t-14 112l19 120h-96l9 61h97l22 139h-110l10 65h84q31 0 37 31l13 86h83l-19 -115h128z" />
    <glyph glyph-name="Umacron" unicode="&#x16a;" horiz-adv-x="718" 
d="M288 772l9 62h305l-10 -62h-304zM85 263l69 437h92l-68 -429q-16 -107 20.5 -157.5t128.5 -50.5q183 0 216 208l68 429h92l-70 -437q-43 -275 -317 -275q-276 0 -231 275z" />
    <glyph glyph-name="umacron" unicode="&#x16b;" horiz-adv-x="580" 
d="M206 627l10 61h284l-9 -61h-285zM464 524h88l-83 -524h-81l18 108q-68 -120 -207 -120q-85 0 -124 50t-23 147l53 339h88l-50 -313q-23 -151 99 -151q69 0 116 49t61 128z" />
    <glyph glyph-name="Uring" unicode="&#x16e;" horiz-adv-x="718" 
d="M346 827q0 52 36.5 80.5t83.5 28.5q37 0 63.5 -21t26.5 -59q0 -52 -36.5 -80.5t-83.5 -28.5q-38 0 -64 20.5t-26 59.5zM393 834q0 -21 14 -33t36 -12q26 0 45.5 16.5t19.5 43.5q0 21 -13.5 32.5t-35.5 11.5q-27 0 -46.5 -16t-19.5 -43zM85 263l69 437h92l-68 -429
q-16 -107 20.5 -157.5t128.5 -50.5q183 0 216 208l68 429h92l-70 -437q-43 -275 -317 -275q-276 0 -231 275z" />
    <glyph glyph-name="uring" unicode="&#x16f;" horiz-adv-x="580" 
d="M253 670q0 54 36.5 83t83.5 29q38 0 64 -20.5t26 -60.5q0 -54 -36.5 -83t-83.5 -29q-38 0 -64 20.5t-26 60.5zM300 678q0 -22 14 -34.5t36 -12.5q26 0 45.5 17.5t19.5 44.5q0 22 -13.5 34.5t-35.5 12.5q-26 0 -46 -17.5t-20 -44.5zM464 524h88l-83 -524h-81l18 108
q-68 -120 -207 -120q-85 0 -124 50t-23 147l53 339h88l-50 -313q-23 -151 99 -151q69 0 116 49t61 128z" />
    <glyph glyph-name="Uhungarumlaut" unicode="&#x170;" horiz-adv-x="718" 
d="M304 763l97 116h80l-106 -116h-71zM464 763l97 116h79l-105 -116h-71zM85 263l69 437h92l-68 -429q-16 -107 20.5 -157.5t128.5 -50.5q183 0 216 208l68 429h92l-70 -437q-43 -275 -317 -275q-276 0 -231 275z" />
    <glyph glyph-name="uhungarumlaut" unicode="&#x171;" horiz-adv-x="580" 
d="M223 592l96 143h71l-102 -143h-65zM366 592l97 143h70l-102 -143h-65zM464 524h88l-83 -524h-81l18 108q-68 -120 -207 -120q-85 0 -124 50t-23 147l53 339h88l-50 -313q-23 -151 99 -151q69 0 116 49t61 128z" />
    <glyph glyph-name="Uogonek" unicode="&#x172;" horiz-adv-x="718" 
d="M611 700h92l-70 -437q-34 -219 -214 -264q-39 -22 -62 -37.5t-42.5 -39t-19.5 -47.5q0 -30 30 -30q41 0 58 51l36 -10q-31 -82 -112 -82q-33 0 -53 16t-20 46q0 42 29 70.5t79 52.5q-8 -1 -26 -1q-276 0 -231 275l69 437h92l-68 -429q-16 -107 20.5 -157.5t128.5 -50.5
q183 0 216 208z" />
    <glyph glyph-name="uogonek" unicode="&#x173;" horiz-adv-x="580" 
d="M469 0q-60 -33 -92.5 -61.5t-32.5 -63.5q0 -30 30 -30q42 0 57 51l37 -10q-31 -82 -113 -82q-33 0 -52.5 16t-19.5 46q0 48 35.5 77.5t97.5 56.5h-28l18 108q-68 -120 -207 -120q-85 0 -124 50t-23 147l53 339h88l-50 -313q-23 -151 99 -151q69 0 116 49t61 128l45 287
h88z" />
    <glyph glyph-name="Wcircumflex" unicode="&#x174;" horiz-adv-x="961" 
d="M574 853l-99 -88h-66l118 117h103l82 -117h-67zM908 700h96l-287 -700h-137l-41 635l-244 -635h-138l-62 700h99l46 -632l245 632h132l41 -632z" />
    <glyph glyph-name="wcircumflex" unicode="&#x175;" horiz-adv-x="847" 
d="M492 702l-95 -110h-65l117 143h98l71 -143h-65zM769 524h95l-242 -524h-123l-40 479l-194 -479h-126l-75 524h98l54 -462l190 462h122l42 -455z" />
    <glyph glyph-name="Ycircumflex" unicode="&#x176;" horiz-adv-x="654" 
d="M420 853l-98 -88h-67l118 117h104l81 -117h-66zM605 700h102l-330 -411l-46 -289h-92l46 288l-199 412h105l152 -338z" />
    <glyph glyph-name="ycircumflex" unicode="&#x177;" horiz-adv-x="547" 
d="M342 702l-95 -110h-65l116 143h98l72 -143h-66zM473 524h95l-287 -584q-42 -87 -84 -119.5t-117 -32.5q-25 0 -58 3l11 68q36 -2 53 -2q41 0 65 20t50 76l23 47h-49l-115 524h96l94 -489z" />
    <glyph glyph-name="Ydieresis" unicode="&#x178;" horiz-adv-x="654" 
d="M371 860l-15 -95h-89l15 95h89zM561 860l-15 -95h-89l15 95h89zM605 700h102l-330 -411l-46 -289h-92l46 288l-199 412h105l152 -338z" />
    <glyph glyph-name="Zacute" unicode="&#x179;" horiz-adv-x="576" 
d="M526 879l-128 -116h-71l107 116h92zM609 700l-10 -64l-494 -561h414l-11 -75h-528l10 64l493 561h-382l12 75h496z" />
    <glyph glyph-name="zacute" unicode="&#x17a;" horiz-adv-x="480" 
d="M435 735l-123 -143h-70l102 143h91zM489 524l-10 -61l-381 -394h326l-11 -69h-433l10 61l381 394h-299l11 69h406z" />
    <glyph glyph-name="Zdotaccent" unicode="&#x17b;" horiz-adv-x="576" 
d="M433 861l-15 -97h-99l15 97h99zM609 700l-10 -64l-494 -561h414l-11 -75h-528l10 64l493 561h-382l12 75h496z" />
    <glyph glyph-name="zdotaccent" unicode="&#x17c;" horiz-adv-x="480" 
d="M360 722l-18 -112h-93l18 112h93zM489 524l-10 -61l-381 -394h326l-11 -69h-433l10 61l381 394h-299l11 69h406z" />
    <glyph glyph-name="Zcaron" unicode="&#x17d;" horiz-adv-x="576" 
d="M420 762h-103l-82 117h67l71 -88l99 88h66zM609 700l-10 -64l-494 -561h414l-11 -75h-528l10 64l493 561h-382l12 75h496z" />
    <glyph glyph-name="zcaron" unicode="&#x17e;" horiz-adv-x="480" 
d="M341 589h-98l-71 143h65l61 -110l95 110h65zM489 524l-10 -61l-381 -394h326l-11 -69h-433l10 61l381 394h-299l11 69h406z" />
    <glyph glyph-name="Scommaaccent" unicode="&#x218;" horiz-adv-x="607" 
d="M25 215l87 3q-8 -75 32 -116t131 -41q80 0 133 32t53 100q0 35 -25 59t-80 43l-136 46q-124 42 -124 155q0 72 38.5 122.5t96.5 72t130 21.5q109 0 170 -54t53 -150l-87 -6q6 62 -32 99.5t-116 37.5q-73 0 -115.5 -33t-42.5 -91q0 -70 93 -100l136 -46q136 -46 136 -157
q0 -110 -79.5 -167t-213.5 -57q-129 0 -189 58.5t-49 168.5zM187 -214l25 161h81l-9 -57l-58 -104h-39z" />
    <glyph glyph-name="scommaaccent" unicode="&#x219;" horiz-adv-x="496" 
d="M7 149l80 4q-3 -51 29.5 -76t96.5 -25q65 0 105 24t40 66q0 25 -21 42.5t-69 32.5l-107 33q-101 31 -101 123q0 82 60 122.5t156 40.5q92 0 145.5 -38.5t48.5 -116.5l-81 -5q1 48 -32.5 72t-90.5 24q-54 0 -86.5 -22.5t-32.5 -62.5q0 -48 74 -72l108 -33
q116 -36 116 -125q0 -80 -65 -124.5t-179 -44.5q-99 0 -150 39.5t-44 121.5zM128 -214l26 161h80l-9 -57l-58 -104h-39z" />
    <glyph glyph-name="uni021A" unicode="&#x21a;" horiz-adv-x="580" 
d="M82 625l12 75h530l-11 -75h-219l-99 -625h-92l99 625h-220zM175 -214l26 161h80l-9 -57l-58 -104h-39z" />
    <glyph glyph-name="uni021B" unicode="&#x21b;" horiz-adv-x="376" 
d="M49 457l10 65h84q31 0 37 31l13 86h83l-19 -115h128l-10 -67h-128l-49 -306q-8 -50 3 -68.5t50 -18.5q25 0 62 5l-11 -70q-36 -7 -78 -7q-76 0 -102 33t-14 112l51 320h-110zM130 -214l26 161h80l-9 -57l-58 -104h-39z" />
    <glyph glyph-name="circumflex" unicode="&#x2c6;" horiz-adv-x="366" 
d="M92 592l117 143h98l71 -143h-65l-61 110l-95 -110h-65z" />
    <glyph glyph-name="caron" unicode="&#x2c7;" horiz-adv-x="366" 
d="M114 732h66l60 -110l95 110h65l-117 -143h-97z" />
    <glyph glyph-name="breve" unicode="&#x2d8;" horiz-adv-x="361" 
d="M114 731h53q-3 -36 14 -59.5t60 -23.5q80 0 101 83h53q-13 -63 -53.5 -100.5t-108.5 -37.5t-97.5 37.5t-21.5 100.5z" />
    <glyph glyph-name="dotaccent" unicode="&#x2d9;" horiz-adv-x="173" 
d="M95 610l18 112h93l-19 -112h-92z" />
    <glyph glyph-name="ring" unicode="&#x2da;" horiz-adv-x="288" 
d="M106 670q0 54 36.5 83t83.5 29q38 0 64 -20.5t26 -60.5q0 -54 -36.5 -83t-83.5 -29q-38 0 -64 20.5t-26 60.5zM154 678q0 -22 14 -34.5t35 -12.5q26 0 45.5 17.5t19.5 44.5q0 22 -13.5 34.5t-34.5 12.5q-26 0 -46 -17.5t-20 -44.5z" />
    <glyph glyph-name="ogonek" unicode="&#x2db;" horiz-adv-x="263" 
d="M-21 -134q0 48 35.5 77.5t97.5 56.5h53q-61 -33 -93.5 -61.5t-32.5 -63.5q0 -30 30 -30q43 0 58 51l36 -10q-31 -82 -112 -82q-33 0 -52.5 16t-19.5 46z" />
    <glyph glyph-name="tilde" unicode="&#x2dc;" horiz-adv-x="384" 
d="M94 605q7 44 31 72.5t68 28.5q36 0 71.5 -28t53.5 -28q37 0 44 48h51q-16 -101 -98 -101q-29 0 -51.5 14t-40.5 28t-34 14q-18 0 -29.5 -13t-14.5 -35h-51z" />
    <glyph glyph-name="hungarumlaut" unicode="&#x2dd;" horiz-adv-x="368" 
d="M92 592l97 143h70l-102 -143h-65zM235 592l97 143h71l-102 -143h-66z" />
    <glyph glyph-name="pi" unicode="&#x3c0;" horiz-adv-x="610" 
d="M60 458l10 66h541l-10 -66h-80l-51 -328q-6 -38 3.5 -51t30.5 -13q7 0 35 2l-11 -70q-42 -4 -59 -4q-55 0 -76 25.5t-11 87.5l56 351h-212l-72 -458h-87l73 458h-80z" />
    <glyph glyph-name="uni0401" unicode="&#x401;" horiz-adv-x="609" 
d="M248 765l15 95h89l-15 -95h-89zM438 765l15 95h89l-15 -95h-89zM43 0l111 700h468l-11 -73h-376l-38 -236h298l-11 -70h-298l-39 -248h389l-11 -73h-482z" />
    <glyph glyph-name="uni0404" unicode="&#x404;" horiz-adv-x="671" 
d="M324 63q78 0 136 46.5t82 118.5l87 -6q-33 -106 -116 -170t-201 -64q-125 0 -191 79.5t-66 211.5q0 119 41.5 216t126 157t196.5 60q113 0 178 -59.5t67 -161.5l-88 -8q-2 69 -49 111.5t-120 42.5q-96 0 -161 -70t-88 -176h282l-11 -70h-281q0 -5 -0.5 -15t-0.5 -15
q0 -101 45.5 -164.5t131.5 -63.5z" />
    <glyph glyph-name="uni0406" unicode="&#x406;" horiz-adv-x="262" 
d="M43 0l111 700h92l-111 -700h-92z" />
    <glyph glyph-name="uni0407" unicode="&#x407;" horiz-adv-x="262" 
d="M92 765l15 95h80l-15 -95h-80zM249 765l15 95h80l-15 -95h-80zM43 0l111 700h92l-111 -700h-92z" />
    <glyph glyph-name="uni040E" unicode="&#x40e;" horiz-adv-x="643" 
d="M401 759q-70 0 -101 34t-24 92h59q-2 -31 15 -53t60 -22q77 0 97 75h59q-12 -58 -53.5 -92t-111.5 -34zM593 700h101l-305 -537q-55 -97 -101.5 -133t-108.5 -36q-33 0 -82 6l11 71q36 -4 63 -4q36 0 62.5 18t56.5 71l16 30h-40l-174 514h104l146 -467z" />
    <glyph glyph-name="uni0410" unicode="&#x410;" horiz-adv-x="668" 
d="M513 0l-33 184h-318l-92 -184h-92l356 700h140l134 -700h-95zM394 650l-197 -396h270z" />
    <glyph glyph-name="uni0411" unicode="&#x411;" horiz-adv-x="664" 
d="M612 628h-377l-35 -219h188q93 0 152 -42t59 -129q0 -120 -79.5 -179t-196.5 -59h-280l111 700h470zM369 339h-180l-42 -267h180q83 0 131 40.5t48 114.5q0 54 -36 83t-101 29z" />
    <glyph glyph-name="uni0412" unicode="&#x412;" horiz-adv-x="665" 
d="M431 359q82 -6 130.5 -44t48.5 -105q0 -98 -74.5 -154t-193.5 -56h-299l111 700h295q90 0 143 -38t53 -111q0 -85 -55.5 -134.5t-158.5 -57.5zM235 628l-38 -237h201q68 0 110 38t42 101q0 46 -32 72t-89 26h-194zM346 72q81 0 127 38t46 105q0 50 -33.5 78t-95.5 28
h-204l-39 -249h199z" />
    <glyph glyph-name="uni0413" unicode="&#x413;" horiz-adv-x="544" 
d="M43 0l111 700h431l-13 -75h-338l-99 -625h-92z" />
    <glyph glyph-name="uni0414" unicode="&#x414;" horiz-adv-x="657" 
d="M648 700l-98 -625h61l-38 -239h-86l26 164h-459l-26 -164h-85l38 239h49q85 136 180 625h438zM458 75l87 550h-263q-48 -229 -91 -370q-32 -103 -75 -180h342z" />
    <glyph glyph-name="uni0415" unicode="&#x415;" horiz-adv-x="609" 
d="M43 0l111 700h468l-11 -73h-376l-38 -236h298l-11 -70h-298l-39 -248h389l-11 -73h-482z" />
    <glyph glyph-name="uni0416" unicode="&#x416;" horiz-adv-x="1011" 
d="M1048 700l-312 -340l211 -360h-109l-181 318h-98l-51 -318h-89l50 318h-96l-282 -318h-109l325 360l-204 340h106l174 -310h98l49 310h89l-49 -310h98l273 310h107z" />
    <glyph glyph-name="uni0417" unicode="&#x417;" horiz-adv-x="610" 
d="M366 359q88 -6 138.5 -44.5t50.5 -107.5q0 -103 -81 -161t-213 -58q-127 0 -186.5 55t-52.5 164l88 5q-9 -152 162 -152q89 0 140.5 39.5t51.5 112.5q0 52 -38 80.5t-112 28.5h-90l11 70h88q83 0 128 38.5t45 104.5q0 51 -35 78.5t-96 27.5q-69 0 -122.5 -34.5
t-71.5 -106.5l-86 7q27 104 104 155t188 51q97 0 155.5 -40t58.5 -116q0 -86 -57.5 -138t-167.5 -59z" />
    <glyph glyph-name="uni0418" unicode="&#x418;" horiz-adv-x="729" 
d="M570 700h144l-111 -700h-90l101 636l-427 -636h-144l111 700h91l-101 -635z" />
    <glyph glyph-name="uni0419" unicode="&#x419;" horiz-adv-x="729" 
d="M444 759q-70 0 -101 34t-24 92h59q-4 -75 74 -75t98 75h59q-12 -58 -53.5 -92t-111.5 -34zM570 700h144l-111 -700h-90l101 636l-427 -636h-144l111 700h91l-101 -635z" />
    <glyph glyph-name="uni041A" unicode="&#x41a;" horiz-adv-x="669" 
d="M695 700l-320 -340l229 -360h-110l-197 318h-111l-51 -318h-92l111 700h92l-49 -310h109l281 310h108z" />
    <glyph glyph-name="uni041B" unicode="&#x41b;" horiz-adv-x="695" 
d="M224 700h456l-111 -700h-92l99 625h-279q-9 -46 -25 -130q-20 -104 -29.5 -151.5t-27 -119t-32 -103t-36.5 -67t-48.5 -48t-61.5 -12.5q-14 0 -60 4l11 74q32 -2 41 -2q15 0 29 9t25.5 29t21.5 43.5t20.5 62t18.5 73.5t18.5 88.5t19 97.5t20.5 110t22 117z" />
    <glyph glyph-name="uni041C" unicode="&#x41c;" horiz-adv-x="906" 
d="M730 700h160l-111 -700h-89l104 648l-320 -648h-126l-114 646l-102 -646h-89l111 700h161l105 -648z" />
    <glyph glyph-name="uni041D" unicode="&#x41d;" horiz-adv-x="714" 
d="M607 700h92l-111 -700h-92l50 318h-360l-51 -318h-92l111 700h92l-48 -306h361z" />
    <glyph glyph-name="uni041E" unicode="&#x41e;" horiz-adv-x="720" 
d="M55 279q0 120 43.5 217.5t130 156.5t202.5 59q128 0 195 -79.5t67 -211.5q0 -120 -43.5 -217.5t-130 -156.5t-202.5 -59q-128 0 -195 79.5t-67 211.5zM148 291q0 -102 46.5 -165t133.5 -63q82 0 145 48.5t95 126.5t32 171q0 102 -46.5 165t-134.5 63q-122 0 -196.5 -101
t-74.5 -245z" />
    <glyph glyph-name="uni041F" unicode="&#x41f;" horiz-adv-x="710" 
d="M695 700l-111 -700h-92l98 625h-356l-99 -625h-92l111 700h541z" />
    <glyph glyph-name="uni0420" unicode="&#x420;" horiz-adv-x="641" 
d="M43 0l111 700h278q91 0 148.5 -44t57.5 -133q0 -124 -77 -183.5t-193 -59.5h-188l-45 -280h-92zM191 351h176q80 0 129 40.5t49 119.5q0 57 -36.5 85.5t-98.5 28.5h-175z" />
    <glyph glyph-name="uni0421" unicode="&#x421;" horiz-adv-x="667" 
d="M54 276q0 185 98.5 310.5t266.5 125.5q115 0 179.5 -62.5t61.5 -168.5l-88 -9q1 75 -44.5 120t-120.5 45q-81 0 -142 -52.5t-89.5 -129.5t-28.5 -164q0 -101 45.5 -164.5t130.5 -63.5q81 0 139 50t79 126l87 -7q-31 -110 -113 -177t-203 -67q-126 0 -192 78t-66 210z" />
    <glyph glyph-name="uni0422" unicode="&#x422;" horiz-adv-x="580" 
d="M82 625l12 75h530l-11 -75h-219l-99 -625h-92l99 625h-220z" />
    <glyph glyph-name="uni0423" unicode="&#x423;" horiz-adv-x="643" 
d="M593 700h101l-305 -537q-55 -97 -101.5 -133t-108.5 -36q-33 0 -82 6l11 71q36 -4 63 -4q36 0 62.5 18t56.5 71l16 30h-40l-174 514h104l146 -467z" />
    <glyph glyph-name="uni0424" unicode="&#x424;" horiz-adv-x="842" 
d="M542 651q128 0 203 -60.5t75 -175.5q0 -159 -102 -245t-265 -86h-16l-13 -84h-89l13 84h-15q-128 0 -202.5 60.5t-74.5 175.5q0 159 102 245t264 86h16l10 61h89l-10 -61h15zM350 156h10l67 423h-10q-117 0 -193 -64.5t-76 -182.5q0 -86 55.5 -131t146.5 -45zM459 156
q117 0 192.5 64.5t75.5 182.5q0 86 -55 131t-146 45h-10l-67 -423h10z" />
    <glyph glyph-name="uni0425" unicode="&#x425;" horiz-adv-x="650" 
d="M669 700l-277 -342l188 -358h-107l-145 287l-237 -287h-105l299 358l-170 342h108l127 -270l214 270h105z" />
    <glyph glyph-name="uni0426" unicode="&#x426;" horiz-adv-x="704" 
d="M43 0l111 700h92l-99 -625h356l100 625h92l-100 -625h62l-37 -239h-86l26 164h-517z" />
    <glyph glyph-name="uni0427" unicode="&#x427;" horiz-adv-x="664" 
d="M556 700h92l-111 -700h-92l48 304q-104 -32 -204 -32q-227 0 -193 213l34 215h92l-32 -199q-13 -83 20.5 -118.5t116.5 -35.5q88 0 178 33z" />
    <glyph glyph-name="uni0428" unicode="&#x428;" horiz-adv-x="988" 
d="M43 0l111 700h91l-100 -625h274l99 625h91l-100 -625h274l99 625h91l-111 -700h-819z" />
    <glyph glyph-name="uni0429" unicode="&#x429;" horiz-adv-x="981" 
d="M43 0l111 700h91l-100 -625h274l99 625h91l-100 -625h274l99 625h91l-100 -625h61l-37 -239h-85l25 164h-794z" />
    <glyph glyph-name="uni042A" unicode="&#x42a;" horiz-adv-x="727" 
d="M479 417q91 0 149 -43t58 -131q0 -121 -79.5 -182t-193.5 -61h-272l99 625h-161l12 75h252l-44 -283h180zM415 75q80 0 128.5 40t48.5 116q0 55 -36 83.5t-98 28.5h-170l-43 -268h170z" />
    <glyph glyph-name="uni042B" unicode="&#x42b;" horiz-adv-x="847" 
d="M367 417q91 0 149 -43t58 -131q0 -121 -79 -182t-194 -61h-258l111 700h92l-45 -283h166zM739 700h92l-111 -700h-92zM303 75q80 0 129 40t49 116q0 55 -36.5 83.5t-98.5 28.5h-156l-43 -268h156z" />
    <glyph glyph-name="uni042C" unicode="&#x42c;" horiz-adv-x="629" 
d="M381 417q91 0 149 -43t58 -131q0 -121 -79 -182t-194 -61h-272l111 700h92l-45 -283h180zM317 75q80 0 129 40t49 116q0 55 -36.5 83.5t-98.5 28.5h-170l-43 -268h170z" />
    <glyph glyph-name="uni042D" unicode="&#x42d;" horiz-adv-x="670" 
d="M394 712q122 0 186 -79t64 -210q0 -185 -101 -310t-271 -125q-119 0 -181 63.5t-62 170.5l89 6q1 -72 44.5 -118.5t121.5 -46.5q100 0 168.5 73t89.5 185h-281l11 70h278q1 6 1 20q0 98 -42.5 162t-126.5 64q-72 0 -132.5 -42.5t-84.5 -111.5l-86 8q33 102 118 161.5
t197 59.5z" />
    <glyph glyph-name="uni042E" unicode="&#x42e;" horiz-adv-x="964" 
d="M682 712q126 0 190.5 -77t64.5 -209q0 -123 -40.5 -220.5t-125.5 -157.5t-204 -60q-126 0 -190 77t-64 209q0 30 1 44h-128l-51 -318h-92l111 700h92l-48 -306h126q28 144 120 231t238 87zM580 63q82 0 143 49t91 127.5t30 174.5q0 102 -44 162.5t-130 60.5
q-82 0 -143 -49t-91 -127.5t-30 -174.5q0 -102 44 -162.5t130 -60.5z" />
    <glyph glyph-name="uni042F" unicode="&#x42f;" horiz-adv-x="662" 
d="M647 700l-111 -700h-92l46 288h-162l-231 -288h-110l247 291q-71 10 -112.5 51.5t-41.5 115.5q0 82 40 138.5t100 80t133 23.5h294zM500 358l43 268h-193q-78 0 -127.5 -40.5t-49.5 -115.5q0 -55 36 -83.5t99 -28.5h192z" />
    <glyph glyph-name="uni0430" unicode="&#x430;" horiz-adv-x="555" 
d="M20 113q0 162 234 185l158 15l8 50q7 49 -19 79t-87 30q-56 0 -96 -25.5t-51 -76.5h-81q16 85 80.5 125.5t157.5 40.5q103 0 149.5 -49t31.5 -141l-55 -346h-80l17 107q-72 -119 -219 -119q-74 0 -111 34.5t-37 90.5zM109 127q0 -34 23.5 -55t71.5 -21q75 0 127 46.5
t66 120.5l6 39l-147 -15q-147 -15 -147 -115z" />
    <glyph glyph-name="uni0431" unicode="&#x431;" horiz-adv-x="585" 
d="M361 639q-57 -8 -97 -31t-72 -78q-37 -59 -63 -162q34 66 91.5 103t130.5 37q90 0 142.5 -56.5t52.5 -155.5q0 -139 -81 -223.5t-212 -84.5q-205 0 -205 244q0 174 82 325q66 121 197 146q29 7 80.5 13.5t52.5 6.5q65 9 109 25l-11 -69q-31 -17 -97 -27q-15 -2 -47 -6
t-53 -7zM324 439q-87 0 -141 -64t-54 -165q0 -71 35.5 -112t99.5 -41q87 0 140.5 63.5t53.5 165.5q0 71 -35 112t-99 41z" />
    <glyph glyph-name="uni0432" unicode="&#x432;" horiz-adv-x="546" 
d="M353 270q135 -14 135 -109q0 -67 -51.5 -114t-161.5 -47h-247l83 524h235q82 0 123.5 -31t41.5 -83q0 -119 -158 -140zM188 458l-25 -162h139q61 0 90 26t29 68q0 68 -98 68h-135zM275 66q127 0 127 101q0 71 -105 71h-144l-27 -172h149z" />
    <glyph glyph-name="uni0433" unicode="&#x433;" horiz-adv-x="443" 
d="M28 0l83 524h346l-11 -72h-258l-72 -452h-88z" />
    <glyph glyph-name="uni0434" unicode="&#x434;" horiz-adv-x="556" 
d="M518 524l-72 -452h61l-33 -213h-83l22 141h-359l-22 -141h-83l34 213h38q29 46 53.5 137.5t63.5 271.5q6 28 9 43h371zM358 72l60 380h-207q-58 -257 -81 -321q-12 -34 -25 -59h253z" />
    <glyph glyph-name="uni0435" unicode="&#x435;" horiz-adv-x="562" 
d="M332 536q236 0 191 -287l-1 -12h-398v-21q0 -80 36.5 -122t102.5 -42q103 0 153 90l82 -5q-31 -70 -94.5 -109.5t-150.5 -39.5q-102 0 -159.5 55.5t-57.5 163.5q0 156 83.5 242.5t212.5 86.5zM322 472q-70 0 -121.5 -46t-69.5 -131h313q10 82 -22.5 129.5t-99.5 47.5z
" />
    <glyph glyph-name="uni0436" unicode="&#x436;" horiz-adv-x="806" 
d="M829 524l-250 -252l175 -272h-108l-139 231h-66l-36 -231h-86l37 231h-66l-212 -231h-108l261 272l-170 252h104l134 -224h68l35 224h86l-36 -224h67l205 224h105z" />
    <glyph glyph-name="uni0437" unicode="&#x437;" horiz-adv-x="520" 
d="M320 270q141 -15 141 -112q0 -73 -57.5 -121.5t-188.5 -48.5q-104 0 -157.5 41t-46.5 130l84 4q-3 -56 30.5 -82t99.5 -26q74 0 112 29.5t38 77.5q0 76 -130 76h-66l9 58h62q73 0 109 26.5t36 69.5q0 35 -28.5 56t-75.5 21q-55 0 -94 -26t-53 -77l-83 5q19 83 83.5 124
t156.5 41t138.5 -32.5t46.5 -87.5q0 -57 -40 -96t-126 -50z" />
    <glyph glyph-name="uni0438" unicode="&#x438;" horiz-adv-x="599" 
d="M440 524h131l-83 -524h-84l73 461l-317 -461h-132l83 524h85l-73 -461z" />
    <glyph glyph-name="uni0439" unicode="&#x439;" horiz-adv-x="599" 
d="M353 594q-68 0 -97.5 36.5t-22.5 97.5h59q-3 -34 13 -58t56 -24q72 0 94 82h59q-12 -61 -52.5 -97.5t-108.5 -36.5zM440 524h131l-83 -524h-84l73 461l-317 -461h-132l83 524h85l-73 -461z" />
    <glyph glyph-name="uni043A" unicode="&#x43a;" horiz-adv-x="545" 
d="M564 524l-268 -252l197 -272h-109l-159 231h-73l-36 -231h-88l83 524h88l-36 -224h73l220 224h108z" />
    <glyph glyph-name="uni043B" unicode="&#x43b;" horiz-adv-x="560" 
d="M164 524h368l-83 -524h-88l72 452h-202q-10 -43 -27 -120q-12 -55 -18 -81t-16.5 -68t-17.5 -60.5t-18 -45.5t-22 -38.5t-25.5 -24.5t-32 -17t-38.5 -4q-14 0 -42 4l11 70q10 -1 25 -1q40 0 64.5 74t64.5 265q5 25 8 39t8 37t9 43z" />
    <glyph glyph-name="uni043C" unicode="&#x43c;" horiz-adv-x="766" 
d="M591 524h147l-83 -524h-85l73 463l-247 -463h-110l-100 464l-73 -464h-85l83 524h146l92 -476z" />
    <glyph glyph-name="uni043D" unicode="&#x43d;" horiz-adv-x="585" 
d="M28 0l83 524h88l-36 -221h271l36 221h87l-83 -524h-87l36 231h-271l-36 -231h-88z" />
    <glyph glyph-name="uni043E" unicode="&#x43e;" horiz-adv-x="578" 
d="M36 211q0 146 83 235.5t214 89.5q98 0 153.5 -59.5t55.5 -163.5q0 -146 -83 -235.5t-213 -89.5q-98 0 -154 59.5t-56 163.5zM124 220q0 -75 35 -119t97 -44q86 0 142 70t56 177q0 75 -35 119t-97 44q-86 0 -142 -70t-56 -177z" />
    <glyph glyph-name="uni043F" unicode="&#x43f;" horiz-adv-x="579" 
d="M28 0l83 524h440l-83 -524h-87l72 452h-265l-72 -452h-88z" />
    <glyph glyph-name="uni0440" unicode="&#x440;" horiz-adv-x="594" 
d="M378 536q83 0 131.5 -58t48.5 -161q0 -148 -76.5 -238.5t-190.5 -90.5q-59 0 -100.5 29t-59.5 83l-47 -300h-88l115 724h81l-18 -111q34 58 88 90.5t116 32.5zM277 57q84 0 138.5 70.5t54.5 177.5q0 74 -34 118t-95 44q-72 0 -123 -56t-66 -149q-14 -93 19.5 -149
t105.5 -56z" />
    <glyph glyph-name="uni0441" unicode="&#x441;" horiz-adv-x="545" 
d="M36 207q0 153 80.5 241t209.5 88q90 0 144 -48t52 -137l-85 -8q-1 61 -34.5 92.5t-87.5 31.5q-82 0 -136 -68.5t-54 -181.5q0 -76 34 -118t94 -42q56 0 99.5 33.5t64.5 95.5l83 -7q-26 -91 -96 -141t-162 -50q-97 0 -151.5 57t-54.5 162z" />
    <glyph glyph-name="uni0442" unicode="&#x442;" horiz-adv-x="488" 
d="M53 452l11 72h442l-11 -72h-177l-72 -452h-88l72 452h-177z" />
    <glyph glyph-name="uni0443" unicode="&#x443;" horiz-adv-x="547" 
d="M473 524h95l-287 -584q-42 -87 -84 -119.5t-117 -32.5q-25 0 -58 3l11 68q36 -2 53 -2q41 0 65 20t50 76l23 47h-49l-115 524h96l94 -489z" />
    <glyph glyph-name="uni0444" unicode="&#x444;" horiz-adv-x="728" 
d="M457 536q110 0 171 -59.5t61 -165.5q0 -148 -87 -235.5t-232 -87.5h-6l-30 -188h-85l30 188h-7q-111 0 -172.5 59.5t-61.5 165.5q0 148 88 235.5t233 87.5h6l32 200h85l-31 -200h6zM286 57h4l64 410h-3q-101 0 -163.5 -66t-62.5 -177q0 -79 42.5 -123t118.5 -44zM379 57
q100 0 161.5 66.5t61.5 177.5q0 78 -42 122t-117 44h-3l-65 -410h4z" />
    <glyph glyph-name="uni0445" unicode="&#x445;" horiz-adv-x="554" 
d="M560 524l-229 -259l160 -265h-107l-116 203l-181 -203h-105l241 266l-149 258h106l106 -197l169 197h105z" />
    <glyph glyph-name="uni0446" unicode="&#x446;" horiz-adv-x="590" 
d="M28 0l83 524h88l-72 -452h265l72 452h87l-71 -452h61l-34 -213h-83l23 141h-419z" />
    <glyph glyph-name="uni0447" unicode="&#x447;" horiz-adv-x="552" 
d="M436 524h88l-83 -524h-88l35 218q-101 -21 -168 -21q-181 0 -152 176l24 151h87l-22 -139q-10 -62 15.5 -89t88.5 -27q54 0 138 22z" />
    <glyph glyph-name="uni0448" unicode="&#x448;" horiz-adv-x="855" 
d="M28 0l83 524h86l-71 -452h229l71 452h86l-71 -452h229l71 452h86l-83 -524h-716z" />
    <glyph glyph-name="uni0449" unicode="&#x449;" horiz-adv-x="866" 
d="M28 0l83 524h86l-71 -452h229l71 452h86l-71 -452h229l71 452h86l-71 -452h61l-34 -213h-83l23 141h-695z" />
    <glyph glyph-name="uni044A" unicode="&#x44a;" horiz-adv-x="611" 
d="M53 452l11 72h213l-32 -201h139q177 0 177 -133q0 -88 -54 -139t-174 -51h-227l72 452h-125zM204 67h133q135 0 135 112q0 78 -105 78h-132z" />
    <glyph glyph-name="uni044B" unicode="&#x44b;" horiz-adv-x="724" 
d="M28 0l83 524h88l-32 -201h127q177 0 177 -133q0 -87 -54.5 -138.5t-173.5 -51.5h-215zM525 0l83 524h88l-83 -524h-88zM126 67h120q136 0 136 112q0 78 -105 78h-121z" />
    <glyph glyph-name="uni044C" unicode="&#x44c;" horiz-adv-x="533" 
d="M28 0l83 524h88l-32 -201h139q177 0 177 -133q0 -87 -54.5 -138.5t-173.5 -51.5h-227zM126 67h132q136 0 136 112q0 78 -105 78h-133z" />
    <glyph glyph-name="uni044D" unicode="&#x44d;" horiz-adv-x="544" 
d="M304 536q96 0 150 -56.5t54 -161.5q0 -154 -81 -242t-213 -88q-88 0 -142 47t-55 134l86 6q4 -58 36.5 -89t85.5 -31q71 0 121.5 49t66.5 133h-207l9 60h204v11q0 76 -33.5 118.5t-91.5 42.5q-51 0 -94 -29.5t-64 -84.5l-83 6q28 84 96 129.5t155 45.5z" />
    <glyph glyph-name="uni044E" unicode="&#x44e;" horiz-adv-x="789" 
d="M549 536q96 0 150 -57t54 -162q0 -151 -80.5 -240t-210.5 -89q-96 0 -150 57t-54 162q0 16 1 24h-107l-36 -231h-88l83 524h88l-35 -221h104q24 109 98.5 171t182.5 62zM473 57q84 0 137.5 68.5t53.5 181.5q0 75 -33.5 117.5t-92.5 42.5q-84 0 -138 -68.5t-54 -181.5
q0 -75 34 -117.5t93 -42.5z" />
    <glyph glyph-name="uni044F" unicode="&#x44f;" horiz-adv-x="547" 
d="M283 524h236l-83 -524h-89l34 216h-114l-173 -216h-105l192 220q-58 10 -88 42.5t-30 83.5q0 84 58 131t162 47zM391 274l29 183h-137q-62 0 -97 -29t-35 -76q0 -36 27 -57t76 -21h137z" />
    <glyph glyph-name="uni0451" unicode="&#x451;" horiz-adv-x="562" 
d="M307 716l-17 -106h-81l18 106h80zM478 716l-17 -106h-81l17 106h81zM332 536q236 0 191 -287l-1 -12h-398v-21q0 -80 36.5 -122t102.5 -42q103 0 153 90l82 -5q-31 -70 -94.5 -109.5t-150.5 -39.5q-102 0 -159.5 55.5t-57.5 163.5q0 156 83.5 242.5t212.5 86.5zM322 472
q-70 0 -121.5 -46t-69.5 -131h313q10 82 -22.5 129.5t-99.5 47.5z" />
    <glyph glyph-name="uni0454" unicode="&#x454;" horiz-adv-x="543" 
d="M253 55q53 0 96 31.5t64 88.5l84 -6q-29 -87 -97.5 -134t-157.5 -47q-97 0 -151.5 57t-54.5 162q0 153 80.5 241t209.5 88q87 0 141 -45.5t55 -129.5l-86 -6q-4 55 -37 84.5t-84 29.5q-66 0 -115 -46t-67 -126h206l-9 -60h-205v-21q0 -76 34 -118.5t94 -42.5z" />
    <glyph glyph-name="uni0456" unicode="&#x456;" horiz-adv-x="229" 
d="M123 610l17 112h93l-17 -112h-93zM29 0l83 524h87l-83 -524h-87z" />
    <glyph glyph-name="uni0457" unicode="&#x457;" horiz-adv-x="221" 
d="M55 610l16 106h76l-16 -106h-76zM201 610l17 106h75l-16 -106h-76zM25 0l83 524h88l-83 -524h-88z" />
    <glyph glyph-name="uni045E" unicode="&#x45e;" horiz-adv-x="547" 
d="M325 594q-68 0 -97.5 36.5t-21.5 97.5h59q-3 -34 13 -58t56 -24q72 0 94 82h59q-13 -62 -53.5 -98t-108.5 -36zM473 524h95l-287 -584q-42 -87 -84 -119.5t-117 -32.5q-25 0 -58 3l11 68q36 -2 53 -2q41 0 65 20t50 76l23 47h-49l-115 524h96l94 -489z" />
    <glyph glyph-name="uni0490" unicode="&#x490;" horiz-adv-x="550" 
d="M43 0l111 700h345l27 169h86l-40 -244h-338l-99 -625h-92z" />
    <glyph glyph-name="uni0491" unicode="&#x491;" horiz-adv-x="447" 
d="M28 0l83 524h264l22 146h83l-34 -218h-258l-72 -452h-88z" />
    <glyph glyph-name="uni04C1" unicode="&#x4c1;" horiz-adv-x="1011" 
d="M585 759q-70 0 -101 34t-24 92h59q-2 -31 15 -53t60 -22q77 0 97 75h59q-12 -58 -53.5 -92t-111.5 -34zM1048 700l-312 -340l211 -360h-109l-181 318h-98l-51 -318h-89l50 318h-96l-282 -318h-109l325 360l-204 340h106l174 -310h98l49 310h89l-49 -310h98l273 310h107z
" />
    <glyph glyph-name="uni04C2" unicode="&#x4c2;" horiz-adv-x="806" 
d="M457 594q-68 0 -97.5 36.5t-22.5 97.5h59q-3 -34 13 -58t56 -24q72 0 94 82h59q-13 -62 -53 -98t-108 -36zM829 524l-250 -252l175 -272h-108l-139 231h-66l-36 -231h-86l37 231h-66l-212 -231h-108l261 272l-170 252h104l134 -224h68l35 224h86l-36 -224h67l205 224h105
z" />
    <glyph glyph-name="Wgrave" unicode="&#x1e80;" horiz-adv-x="961" 
d="M601 763h-70l-93 116h93zM908 700h96l-287 -700h-137l-41 635l-244 -635h-138l-62 700h99l46 -632l245 632h132l41 -632z" />
    <glyph glyph-name="wgrave" unicode="&#x1e81;" horiz-adv-x="847" 
d="M526 592h-70l-78 143h92zM769 524h95l-242 -524h-123l-40 479l-194 -479h-126l-75 524h98l54 -462l190 462h122l42 -455z" />
    <glyph glyph-name="Wacute" unicode="&#x1e82;" horiz-adv-x="961" 
d="M718 879l-128 -116h-71l107 116h92zM908 700h96l-287 -700h-137l-41 635l-244 -635h-138l-62 700h99l46 -632l245 632h132l41 -632z" />
    <glyph glyph-name="wacute" unicode="&#x1e83;" horiz-adv-x="847" 
d="M618 735l-124 -143h-70l102 143h92zM769 524h95l-242 -524h-123l-40 479l-194 -479h-126l-75 524h98l54 -462l190 462h122l42 -455z" />
    <glyph glyph-name="Wdieresis" unicode="&#x1e84;" horiz-adv-x="961" 
d="M525 860l-15 -95h-89l15 95h89zM715 860l-15 -95h-89l15 95h89zM908 700h96l-287 -700h-137l-41 635l-244 -635h-138l-62 700h99l46 -632l245 632h132l41 -632z" />
    <glyph glyph-name="wdieresis" unicode="&#x1e85;" horiz-adv-x="847" 
d="M450 716l-17 -106h-81l18 106h80zM621 716l-17 -106h-81l17 106h81zM769 524h95l-242 -524h-123l-40 479l-194 -479h-126l-75 524h98l54 -462l190 462h122l42 -455z" />
    <glyph glyph-name="uni1E9E" unicode="&#x1e9e;" horiz-adv-x="653" 
d="M626 700l-10 -61l-222 -239q106 3 161 -46q49 -44 49 -127q0 -113 -74.5 -174t-194.5 -61q-46 0 -81 8l11 70q40 -6 63 -6q79 0 132 42t53 122q0 57 -37 85t-100 28q-30 0 -77 -9l11 68l205 228h-159q-61 0 -102 -38.5t-53 -116.5l-76 -473h-92l78 485q34 215 264 215
h251z" />
    <glyph glyph-name="Ygrave" unicode="&#x1ef2;" horiz-adv-x="654" 
d="M447 763h-70l-93 116h93zM605 700h102l-330 -411l-46 -289h-92l46 288l-199 412h105l152 -338z" />
    <glyph glyph-name="ygrave" unicode="&#x1ef3;" horiz-adv-x="547" 
d="M375 592h-69l-79 143h92zM473 524h95l-287 -584q-42 -87 -84 -119.5t-117 -32.5q-25 0 -58 3l11 68q36 -2 53 -2q41 0 65 20t50 76l23 47h-49l-115 524h96l94 -489z" />
    <glyph glyph-name="endash" unicode="&#x2013;" horiz-adv-x="551" 
d="M69 332h436l-11 -68h-436z" />
    <glyph glyph-name="emdash" unicode="&#x2014;" horiz-adv-x="680" 
d="M69 332h565l-11 -68h-565z" />
    <glyph glyph-name="quoteleft" unicode="&#x2018;" horiz-adv-x="193" 
d="M206 712l-33 -210h-87l10 65l72 145h38z" />
    <glyph glyph-name="quoteright" unicode="&#x2019;" horiz-adv-x="193" 
d="M94 490l33 210h87l-10 -65l-72 -145h-38z" />
    <glyph glyph-name="quotesinglbase" unicode="&#x201a;" horiz-adv-x="193" 
d="M2 -95l33 210h87l-10 -65l-72 -145h-38z" />
    <glyph glyph-name="quotedblleft" unicode="&#x201c;" horiz-adv-x="343" 
d="M206 712l-33 -210h-87l10 65l72 145h38zM356 712l-34 -210h-86l10 65l71 145h39z" />
    <glyph glyph-name="quotedblright" unicode="&#x201d;" horiz-adv-x="343" 
d="M94 490l33 210h87l-10 -65l-72 -145h-38zM244 490l33 210h87l-11 -65l-71 -145h-38z" />
    <glyph glyph-name="quotedblbase" unicode="&#x201e;" horiz-adv-x="343" 
d="M2 -95l33 210h87l-10 -65l-72 -145h-38zM151 -95l34 210h86l-10 -65l-71 -145h-39z" />
    <glyph glyph-name="dagger" unicode="&#x2020;" horiz-adv-x="427" 
d="M416 524l-11 -66h-119l-82 -513h-82l81 513h-120l10 66h120l28 176h83l-28 -176h120z" />
    <glyph glyph-name="daggerdbl" unicode="&#x2021;" horiz-adv-x="435" 
d="M410 458h-120l-41 -261h119l-10 -66h-120l-29 -186h-83l30 186h-121l11 66h120l41 261h-119l10 66h120l28 176h82l-28 -176h120z" />
    <glyph glyph-name="bullet" unicode="&#x2022;" horiz-adv-x="381" 
d="M182 211q-41 0 -66 24.5t-25 64.5q0 50 36 84t88 35q41 0 66 -25t25 -65q0 -50 -36 -84t-88 -34z" />
    <glyph glyph-name="ellipsis" unicode="&#x2026;" horiz-adv-x="632" 
d="M23 0l18 115h102l-19 -115h-101zM224 0l18 115h102l-18 -115h-102zM425 0l18 115h102l-18 -115h-102z" />
    <glyph glyph-name="perthousand" unicode="&#x2030;" horiz-adv-x="1149" 
d="M73 507q0 90 52.5 144.5t136.5 54.5q64 0 100.5 -36t36.5 -101q0 -91 -52.5 -146t-137.5 -55q-64 0 -100 37t-36 102zM83 0l586 700h60l-585 -700h-61zM137 513q0 -43 21 -67.5t59 -24.5q53 0 85 39t32 102q0 43 -21 67t-59 24q-53 0 -85 -38.5t-32 -101.5zM414 133
q0 89 52 144t137 55q65 0 100.5 -36.5t35.5 -100.5q0 -90 -51.5 -145.5t-138.5 -55.5q-64 0 -99.5 37t-35.5 102zM786 133q0 89 52.5 144t137.5 55q65 0 100.5 -36.5t35.5 -100.5q0 -90 -52 -145.5t-138 -55.5q-65 0 -100.5 37.5t-35.5 101.5zM477 139q0 -43 21 -68t60 -25
q53 0 85 39.5t32 102.5q0 43 -21 67.5t-59 24.5q-53 0 -85.5 -39t-32.5 -102zM850 139q0 -43 21 -68t60 -25q53 0 85 39.5t32 102.5q0 43 -21 67.5t-59 24.5q-53 0 -85.5 -39t-32.5 -102z" />
    <glyph glyph-name="guilsinglleft" unicode="&#x2039;" horiz-adv-x="284" 
d="M30 259l7 42l147 155h88l-170 -176l114 -176h-88z" />
    <glyph glyph-name="guilsinglright" unicode="&#x203a;" horiz-adv-x="284" 
d="M18 104l169 176l-113 176h87l98 -155l-6 -42l-148 -155h-87z" />
    <glyph glyph-name="fraction" unicode="&#x2044;" horiz-adv-x="166" 
d="M-230 0l586 700h68l-586 -700h-68z" />
    <glyph glyph-name="uni2070" unicode="&#x2070;" horiz-adv-x="450" 
d="M88 498q0 123 58.5 199t159.5 76q71 0 108.5 -46.5t37.5 -128.5q0 -122 -58.5 -198.5t-158.5 -76.5q-71 0 -109 46.5t-38 128.5zM159 504q0 -59 22 -91.5t63 -32.5q62 0 100 59t38 154q0 59 -22.5 91t-62.5 32q-62 0 -100 -58.5t-38 -153.5z" />
    <glyph glyph-name="uni2074" unicode="&#x2074;" horiz-adv-x="431" 
d="M368 487h73l-9 -57h-74l-15 -97h-70l15 97h-239l8 53l240 281h114zM127 487h170l39 244z" />
    <glyph glyph-name="uni2075" unicode="&#x2075;" horiz-adv-x="401" 
d="M411 707h-227l-32 -134q49 41 123 41q58 0 92 -29.5t34 -85.5q0 -81 -54 -127t-138 -46q-67 0 -108 32t-41 90l68 4q2 -34 27 -51.5t62 -17.5q47 0 80 28.5t33 79.5q0 37 -23.5 56.5t-60.5 19.5q-62 0 -101 -44l-61 5l56 236h279z" />
    <glyph glyph-name="uni2076" unicode="&#x2076;" horiz-adv-x="433" 
d="M440 652l-68 -4q1 31 -17.5 50t-53.5 19q-59 0 -96.5 -47.5t-44.5 -127.5q47 67 141 67q57 0 93 -30t36 -86q0 -78 -53.5 -123.5t-140.5 -45.5q-149 0 -149 163q0 135 59.5 211t163.5 76q65 0 99 -32t31 -90zM274 561q-44 0 -74.5 -24.5t-37.5 -66.5q-7 -40 16 -64.5
t67 -24.5q51 0 82.5 28.5t31.5 75.5q0 35 -23 55.5t-62 20.5z" />
    <glyph glyph-name="uni2077" unicode="&#x2077;" horiz-adv-x="348" 
d="M100 764h314l-9 -48q-159 -189 -229 -383h-75q70 187 235 374h-246z" />
    <glyph glyph-name="uni2078" unicode="&#x2078;" horiz-adv-x="424" 
d="M326 559q42 -10 67 -35.5t25 -62.5q0 -64 -57 -100.5t-139 -36.5q-68 0 -112.5 28t-44.5 79q0 49 35 82t93 46q-82 19 -82 88q0 61 53 94t130 33q64 0 105.5 -25.5t41.5 -73.5q0 -45 -30.5 -74.5t-84.5 -41.5zM285 721q-48 0 -77 -20.5t-29 -58.5q0 -29 22.5 -44.5
t61.5 -15.5q48 0 77.5 20.5t29.5 58.5q0 29 -23 44.5t-62 15.5zM230 377q54 0 86.5 23t32.5 64q0 31 -25 48.5t-69 17.5q-54 0 -86.5 -23t-32.5 -63q0 -32 25.5 -49.5t68.5 -17.5z" />
    <glyph glyph-name="uni2079" unicode="&#x2079;" horiz-adv-x="435" 
d="M288 774q150 0 150 -163q0 -136 -58 -211.5t-164 -75.5q-65 0 -100 32t-31 90l68 4q-1 -31 17.5 -50t54.5 -19q59 0 96.5 48.5t43.5 128.5q-47 -67 -141 -67q-57 0 -93 30.5t-36 85.5q0 76 53.5 121.5t139.5 45.5zM251 540q44 0 74.5 24t37.5 64q6 40 -17 64.5t-67 24.5
q-50 0 -81.5 -28.5t-31.5 -73.5q0 -35 22.5 -55t62.5 -20z" />
    <glyph glyph-name="uni2080" unicode="&#x2080;" horiz-adv-x="449" 
d="M16 48q0 122 59 198.5t159 76.5q71 0 109 -46.5t38 -128.5q0 -122 -59 -198.5t-159 -76.5q-71 0 -109 46.5t-38 128.5zM87 54q0 -59 22 -91.5t63 -32.5q62 0 100 59t38 154q0 59 -22 91t-63 32q-62 0 -100 -59t-38 -153z" />
    <glyph glyph-name="uni2081" unicode="&#x2081;" horiz-adv-x="274" 
d="M136 315h58l-69 -431h-70l56 349l-92 -67l12 74z" />
    <glyph glyph-name="uni2082" unicode="&#x2082;" horiz-adv-x="361" 
d="M193 47l-133 -109h223l-9 -57h-317l9 52l167 139q46 38 62 52.5t33 39.5t17 49q0 26 -17 40t-45 14q-76 0 -102 -101l-67 6q17 76 65 114t113 38q55 0 89 -27t34 -76q0 -47 -26.5 -82.5t-95.5 -91.5z" />
    <glyph glyph-name="uni2083" unicode="&#x2083;" horiz-adv-x="380" 
d="M342 315l-9 -50l-162 -119q68 0 103 -28.5t35 -79.5q0 -77 -55 -119t-138 -42q-69 0 -107.5 33t-35.5 98l69 5q-1 -41 20.5 -60t62.5 -19q50 0 81 25t31 70q0 31 -21 49.5t-63 18.5q-26 0 -68 -7l7 48l150 120h-207l9 57h298z" />
    <glyph glyph-name="uni2084" unicode="&#x2084;" horiz-adv-x="431" 
d="M296 38h74l-10 -57h-73l-15 -97h-71l16 97h-240l9 53l239 281h115zM56 38h170l38 244z" />
    <glyph glyph-name="uni2085" unicode="&#x2085;" horiz-adv-x="401" 
d="M340 258h-227l-32 -134q49 41 123 41q58 0 92 -29.5t34 -85.5q0 -81 -54 -127t-138 -46q-67 0 -108 32t-41 90l68 4q2 -34 27 -51.5t62 -17.5q47 0 80 28.5t33 79.5q0 37 -23.5 56.5t-60.5 19.5q-62 0 -101 -44l-61 5l56 236h279z" />
    <glyph glyph-name="uni2086" unicode="&#x2086;" horiz-adv-x="434" 
d="M369 202l-68 -4q1 31 -17.5 50t-53.5 19q-59 0 -96.5 -47.5t-44.5 -127.5q47 67 141 67q57 0 93 -30t36 -86q0 -78 -53.5 -123.5t-140.5 -45.5q-149 0 -149 163q0 135 59.5 211t163.5 76q65 0 99 -32t31 -90zM203 111q-44 0 -74.5 -24.5t-37.5 -66.5q-7 -40 16 -64.5
t67 -24.5q51 0 82.5 28.5t31.5 75.5q0 35 -23 55.5t-62 20.5z" />
    <glyph glyph-name="uni2087" unicode="&#x2087;" horiz-adv-x="349" 
d="M29 315h314l-9 -48q-159 -189 -229 -383h-75q70 187 235 374h-246z" />
    <glyph glyph-name="uni2088" unicode="&#x2088;" horiz-adv-x="425" 
d="M255 109q42 -10 67 -35.5t25 -62.5q0 -64 -57 -100.5t-139 -36.5q-68 0 -112.5 28t-44.5 79q0 49 35 82t93 46q-82 19 -82 88q0 61 53 94t130 33q64 0 105.5 -25.5t41.5 -73.5q0 -45 -30.5 -74.5t-84.5 -41.5zM214 271q-48 0 -77 -20.5t-29 -58.5q0 -29 22.5 -44.5
t61.5 -15.5q48 0 77.5 20.5t29.5 58.5q0 29 -23 44.5t-62 15.5zM159 -73q54 0 86.5 23t32.5 64q0 31 -25 48.5t-69 17.5q-54 0 -86.5 -23t-32.5 -63q0 -32 25.5 -49.5t68.5 -17.5z" />
    <glyph glyph-name="uni2089" unicode="&#x2089;" horiz-adv-x="434" 
d="M217 324q149 0 149 -163q0 -136 -58 -211.5t-163 -75.5q-66 0 -100.5 32t-31.5 90l68 4q-1 -31 18 -50t55 -19q58 0 95.5 48.5t43.5 128.5q-46 -67 -141 -67q-57 0 -93 30.5t-36 85.5q0 76 53.5 121.5t140.5 45.5zM179 90q45 0 75.5 24t36.5 64q6 41 -17 65t-67 24
q-49 0 -81 -28.5t-32 -73.5q0 -34 23 -54.5t62 -20.5z" />
    <glyph glyph-name="Euro" unicode="&#x20ac;" horiz-adv-x="643" 
d="M327 60q68 0 118.5 42t74.5 110l83 -4q-33 -99 -108.5 -159.5t-181.5 -60.5q-113 0 -174 75.5t-63 199.5h-66l7 47h60q1 32 8 68h-54l7 47h58q34 124 118 199.5t204 75.5q100 0 158 -52t64 -143l-84 -6q-6 59 -45 94t-100 35q-80 0 -138.5 -57t-86.5 -146h274l-7 -47
h-278q-7 -33 -9 -68h273l-8 -47h-265q4 -90 45.5 -146.5t115.5 -56.5z" />
    <glyph glyph-name="uni20B4" unicode="&#x20b4;" horiz-adv-x="545" 
d="M439 390q-29 -20 -63 -35l-81 -37h233l-7 -40h-308q-49 -27 -70 -57t-21 -71q0 -47 32.5 -69.5t84.5 -22.5q63 0 109.5 31t61.5 97l82 -3q-45 -195 -263 -195q-91 0 -144 39t-53 111q0 84 63 140h-61l7 40h111q5 3 15.5 8t19.5 9.5l17 8.5l99 46h-251l6 39h321
q65 45 65 113q0 41 -26.5 64.5t-74.5 23.5q-29 0 -55.5 -8t-53 -33t-36.5 -65l-81 5q15 63 57.5 103.5t87 54t93.5 13.5q79 0 129 -36.5t50 -107.5q0 -76 -47 -127h58l-6 -39h-100z" />
    <glyph glyph-name="uni20BD" unicode="&#x20bd;" horiz-adv-x="607" 
d="M348 287h-163l-11 -73h219l-9 -55h-219l-25 -159h-89l25 159h-64l8 55h65l12 73h-65l10 66h65l53 335h249q86 0 140.5 -42.5t54.5 -127.5q0 -81 -37 -134.5t-92.5 -75t-126.5 -21.5zM237 616l-41 -263h151q75 0 121 39.5t46 114.5q0 53 -33.5 81t-92.5 28h-151z" />
    <glyph glyph-name="uni2116" unicode="&#x2116;" horiz-adv-x="1163" 
d="M942 333q-71 0 -111.5 42t-40.5 114q0 100 59 161.5t153 61.5q71 0 111.5 -41.5t40.5 -113.5q0 -100 -59.5 -162t-152.5 -62zM519 56l102 644h89l-111 -700h-155l-210 645l-102 -645h-89l111 700h155zM992 652q-56 0 -91 -44t-35 -112q0 -47 22.5 -75t62.5 -28
q56 0 91 44.5t35 111.5q0 47 -22 75t-63 28zM757 212l9 59h331l-9 -59h-331z" />
    <glyph glyph-name="trademark" unicode="&#x2122;" horiz-adv-x="793" 
d="M86 700h280l-7 -42h-114l-52 -327h-52l52 327h-114zM720 700h90l-58 -369h-51l52 334l-159 -334h-72l-54 333l-52 -333h-52l59 369h89l51 -340z" />
    <glyph glyph-name="oneeighth" unicode="&#x215b;" horiz-adv-x="773" 
d="M590 700h67l-585 -700h-68zM114 340l45 285l-82 -49l10 66l96 58h49l-57 -360h-61zM632 185q38 -8 59.5 -29.5t21.5 -52.5q0 -55 -49.5 -85t-121.5 -30q-59 0 -98 23.5t-39 67.5q0 41 30 68t81 38q-72 18 -72 74q0 51 45.5 79t112.5 28q57 0 93 -21.5t36 -62.5
q0 -37 -26.5 -62t-72.5 -35zM503 254q0 -23 20 -36t54 -13q41 0 66.5 17t25.5 47q0 24 -20 37t-54 13q-41 0 -66.5 -17t-25.5 -48zM550 35q45 0 74 19t29 52q0 26 -23 40.5t-60 14.5q-45 0 -74 -18.5t-29 -51.5q0 -26 22.5 -41t60.5 -15z" />
    <glyph glyph-name="threeeighths" unicode="&#x215c;" horiz-adv-x="875" 
d="M339 465q0 -66 -48.5 -101.5t-122.5 -35.5q-61 0 -95.5 28t-31.5 84l61 4q-3 -66 74 -66q44 0 72 21t28 58q0 26 -19 41.5t-57 15.5q-22 0 -62 -6l6 42l134 100h-185l8 50h265l-7 -45l-137 -97q58 -1 87.5 -26t29.5 -67zM692 700h67l-585 -700h-68zM734 185
q38 -8 59.5 -29.5t21.5 -52.5q0 -55 -49.5 -85t-121.5 -30q-59 0 -98 23.5t-39 67.5q0 41 30 68t81 38q-72 18 -72 74q0 51 45.5 79t112.5 28q57 0 93 -21.5t36 -62.5q0 -37 -26.5 -62t-72.5 -35zM605 254q0 -23 20 -36t54 -13q41 0 66.5 17t25.5 47q0 24 -20 37t-54 13
q-41 0 -66.5 -17t-25.5 -48zM652 35q45 0 74 19t29 52q0 26 -23 40.5t-60 14.5q-45 0 -74 -18.5t-29 -51.5q0 -26 22.5 -41t60.5 -15z" />
    <glyph glyph-name="fiveeighths" unicode="&#x215d;" horiz-adv-x="889" 
d="M355 477q0 -69 -48 -108t-123 -39q-60 0 -96.5 27t-36.5 77l58 4q2 -29 24.5 -44.5t58.5 -15.5q45 0 74 23.5t29 67.5q0 32 -21.5 48.5t-56.5 16.5q-60 0 -94 -37l-51 4l49 201h247l-7 -48h-204l-28 -114q44 38 111 38q52 0 83.5 -26.5t31.5 -74.5zM706 700h67l-585 -700
h-68zM748 185q38 -8 59.5 -29.5t21.5 -52.5q0 -55 -49.5 -85t-120.5 -30q-60 0 -99 23.5t-39 67.5q0 41 30 68t81 38q-72 18 -72 74q0 51 46 79t113 28q56 0 92 -21.5t36 -62.5q0 -37 -26.5 -62t-72.5 -35zM619 254q0 -23 20 -36t54 -13q41 0 66.5 17t25.5 47q0 24 -20 37
t-54 13q-41 0 -66.5 -17t-25.5 -48zM666 35q46 0 74.5 18.5t28.5 52.5q0 26 -22.5 40.5t-60.5 14.5q-45 0 -73.5 -18.5t-28.5 -51.5q0 -27 22.5 -41.5t59.5 -14.5z" />
    <glyph glyph-name="seveneighths" unicode="&#x215e;" horiz-adv-x="829" 
d="M647 700h67l-586 -700h-67zM92 340q60 157 199 310h-211l8 50h274l-7 -42q-135 -155 -198 -318h-65zM689 185q37 -8 59 -29.5t22 -52.5q0 -55 -49.5 -85t-121.5 -30q-60 0 -98.5 23.5t-38.5 67.5q0 41 30 68t80 38q-71 17 -71 74q0 51 45.5 79t112.5 28q57 0 93 -21.5
t36 -62.5q0 -37 -26.5 -62t-72.5 -35zM560 254q0 -23 20 -36t54 -13q40 0 66 17t26 47q0 24 -20.5 37t-53.5 13q-41 0 -66.5 -17t-25.5 -48zM607 35q45 0 74 19t29 52q0 26 -23 40.5t-60 14.5q-45 0 -74 -18.5t-29 -51.5q0 -27 22.5 -41.5t60.5 -14.5z" />
    <glyph glyph-name="arrowleft" unicode="&#x2190;" horiz-adv-x="762" 
d="M82 356l304 263h105l-269 -228h493l-11 -70h-492l197 -228h-106z" />
    <glyph glyph-name="arrowup" unicode="&#x2191;" horiz-adv-x="660" 
d="M87 390l18 108l304 262l222 -263l-17 -107l-190 231l-99 -626h-74l99 626z" />
    <glyph glyph-name="arrowright" unicode="&#x2192;" horiz-adv-x="761" 
d="M76 321l11 70h493l-197 228h105l221 -263l-304 -263h-106l270 228h-493z" />
    <glyph glyph-name="arrowdown" unicode="&#x2193;" horiz-adv-x="661" 
d="M75 310l189 -231l99 626h75l-99 -626l262 231l-17 -107l-304 -263l-222 262z" />
    <glyph glyph-name="arrowboth" unicode="&#x2194;" horiz-adv-x="1010" 
d="M82 356l266 230h105l-231 -195h607l-170 195h105l194 -230l-267 -230h-104l230 195h-605l168 -195h-104z" />
    <glyph glyph-name="arrowupdn" unicode="&#x2195;" horiz-adv-x="587" 
d="M47 134l17 106l155 -189l95 603l-214 -189l16 106l257 221l194 -230l-16 -105l-163 197l-95 -604l224 198l-16 -106l-267 -230z" />
    <glyph glyph-name="uni2196" unicode="&#x2196;" horiz-adv-x="628" 
d="M543 151l-59 -51l-309 367l-49 -326l-66 76l59 371h372l63 -72l-321 3z" />
    <glyph glyph-name="uni2197" unicode="&#x2197;" horiz-adv-x="627" 
d="M49 151l426 368l-322 -3l87 72h372l-59 -371l-90 -76l54 326l-425 -367z" />
    <glyph glyph-name="uni2198" unicode="&#x2198;" horiz-adv-x="627" 
d="M529 564l67 -76l-59 -372h-372l-64 73l322 -4l-310 368l58 51l310 -367z" />
    <glyph glyph-name="uni2199" unicode="&#x2199;" horiz-adv-x="628" 
d="M44 116l59 372l90 76l-54 -327l425 367l43 -51l-426 -368l322 4l-87 -73h-372z" />
    <glyph glyph-name="partialdiff" unicode="&#x2202;" horiz-adv-x="553" 
d="M515 628q32 -100 4 -271q-30 -191 -111 -280t-194 -89q-101 0 -149.5 63.5t-30.5 181.5q18 110 89.5 177.5t168.5 67.5q99 0 146 -76q14 121 -4 190q-26 97 -121 97q-83 0 -153 -75l-39 54q90 88 208 88q145 0 186 -128zM221 57q71 0 123 60.5t78 180.5q-10 53 -43.5 82
t-81.5 29q-68 0 -115.5 -49t-60.5 -127q-13 -86 15 -131t85 -45z" />
    <glyph glyph-name="emptyset" unicode="&#x2205;" horiz-adv-x="572" 
d="M577 519l-90 -78q28 -44 28 -105q0 -115 -73.5 -183.5t-183.5 -68.5q-83 0 -133 45l-91 -79l-27 32l90 78q-28 44 -28 105q0 115 73.5 183.5t183.5 68.5q84 0 133 -44l91 78zM146 275q0 -36 13 -62l241 208q-33 28 -85 28q-75 0 -122 -48.5t-47 -125.5zM438 327
q0 33 -13 61l-241 -208q33 -27 85 -27q76 0 122.5 48.5t46.5 125.5z" />
    <glyph glyph-name="product" unicode="&#x220f;" horiz-adv-x="633" 
d="M617 700l-124 -787h-85l113 717h-293l-113 -717h-86l124 787h464z" />
    <glyph glyph-name="summation" unicode="&#x2211;" horiz-adv-x="494" 
d="M-20 -87l9 62l285 350l-168 313l10 62h414l-10 -70h-313l162 -305l-277 -342h333l-11 -70h-434z" />
    <glyph glyph-name="minus" unicode="&#x2212;" horiz-adv-x="495" 
d="M73 364h381l-10 -63h-381z" />
    <glyph glyph-name="radical" unicode="&#x221a;" horiz-adv-x="569" 
d="M34 310l10 65h133l51 -404l305 741h75l-340 -805h-101l-56 403h-77z" />
    <glyph glyph-name="infinity" unicode="&#x221e;" horiz-adv-x="610" 
d="M39 300q0 80 45 124t114 44q42 0 71 -20.5t54 -72.5q41 52 76.5 72.5t77.5 20.5q53 0 84 -29.5t31 -85.5q0 -80 -45 -124.5t-115 -44.5q-42 0 -71 20.5t-54 72.5q-41 -52 -76.5 -72.5t-77.5 -20.5q-52 0 -83 30t-31 86zM103 309q0 -34 17.5 -52.5t46.5 -18.5q57 0 120 88
q-35 89 -93 89q-39 0 -65 -28t-26 -78zM343 326q35 -88 93 -88q38 0 64.5 28.5t26.5 77.5q0 34 -17.5 52.5t-46.5 18.5q-56 0 -120 -89z" />
    <glyph glyph-name="integral" unicode="&#x222b;" horiz-adv-x="395" 
d="M9 -88l10 59q10 -3 36 -3q55 0 67 76l88 556q21 128 137 128q21 0 51 -5l-10 -59q-24 3 -37 3q-54 0 -66 -76l-89 -556q-19 -128 -137 -128q-30 0 -50 5z" />
    <glyph glyph-name="approxequal" unicode="&#x2248;" horiz-adv-x="531" 
d="M82 341q8 56 39.5 92t84.5 36q36 0 65.5 -21t54 -42t48.5 -21q26 0 43 20t22 51h53q-9 -55 -40.5 -91.5t-83.5 -36.5q-37 0 -66.5 21.5t-53.5 42.5t-48 21q-27 0 -44 -20.5t-21 -51.5h-53zM57 183q9 57 40 93t84 36q29 0 54 -13t39.5 -29t34.5 -29t40 -13q26 0 43 20
t22 51h53q-8 -56 -39.5 -92t-84.5 -36q-29 0 -54 13t-40 29t-35 29t-39 13q-27 0 -44 -20t-22 -52h-52z" />
    <glyph glyph-name="notequal" unicode="&#x2260;" horiz-adv-x="511" 
d="M465 380h-140l-63 -108h185l-9 -60h-212l-52 -89h-56l51 89h-112l10 60h138l64 108h-184l9 61h211l52 88h56l-52 -88h113z" />
    <glyph glyph-name="lessequal" unicode="&#x2264;" horiz-adv-x="495" 
d="M466 567l-12 -75l-313 -115l281 -86l-11 -75l-341 118l13 82zM34 107l10 61h359l-10 -61h-359z" />
    <glyph glyph-name="greaterequal" unicode="&#x2265;" horiz-adv-x="494" 
d="M125 567l335 -151l-13 -82l-377 -118l11 75l309 87l-276 114zM52 107l10 61h359l-10 -61h-359z" />
    <glyph glyph-name="uni2460" unicode="&#x2460;" 
d="M363 -12q-139 0 -223.5 83.5t-84.5 221.5q0 184 122.5 301.5t300.5 117.5q139 0 223.5 -83.5t84.5 -221.5q0 -184 -122.5 -301.5t-300.5 -117.5zM370 30q157 0 264 104t107 267q0 123 -73.5 196t-195.5 73q-157 0 -264 -104t-107 -267q0 -123 73.5 -196t195.5 -73z
M349 425l10 60l82 43h48l-57 -356h-59l46 290z" />
    <glyph glyph-name="uni2461" unicode="&#x2461;" 
d="M363 -12q-139 0 -223.5 83.5t-84.5 221.5q0 184 122.5 301.5t300.5 117.5q139 0 223.5 -83.5t84.5 -221.5q0 -184 -122.5 -301.5t-300.5 -117.5zM370 30q157 0 264 104t107 267q0 123 -73.5 196t-195.5 73q-157 0 -264 -104t-107 -267q0 -123 73.5 -196t195.5 -73z
M270 173l6 44l132 112q34 28 48.5 41.5t28 33.5t13.5 39q0 21 -13 32.5t-34 11.5q-59 0 -79 -82l-56 5q14 63 52.5 94t90.5 31q44 0 71.5 -22t27.5 -63q0 -36 -20 -65.5t-77 -76.5l-101 -87h172l-7 -48h-255z" />
    <glyph glyph-name="uni2462" unicode="&#x2462;" 
d="M363 -12q-139 0 -223.5 83.5t-84.5 221.5q0 184 122.5 301.5t300.5 117.5q139 0 223.5 -83.5t84.5 -221.5q0 -184 -122.5 -301.5t-300.5 -117.5zM370 30q157 0 264 104t107 267q0 123 -73.5 196t-195.5 73q-157 0 -264 -104t-107 -267q0 -123 73.5 -196t195.5 -73z
M275 275l58 3q-1 -33 16 -48.5t49 -15.5q39 0 63.5 21t24.5 57q0 55 -65 55q-26 0 -55 -6l6 42l117 97h-164l8 48h241l-7 -44l-124 -96q103 -3 103 -88q0 -64 -44.5 -99t-110.5 -35q-56 0 -87.5 27.5t-28.5 81.5z" />
    <glyph glyph-name="uni2463" unicode="&#x2463;" 
d="M363 -12q-139 0 -223.5 83.5t-84.5 221.5q0 184 122.5 301.5t300.5 117.5q139 0 223.5 -83.5t84.5 -221.5q0 -184 -122.5 -301.5t-300.5 -117.5zM370 30q157 0 264 104t107 267q0 123 -73.5 196t-195.5 73q-157 0 -264 -104t-107 -267q0 -123 73.5 -196t195.5 -73z
M243 252l7 45l194 231h97l-37 -227h60l-8 -49h-59l-13 -80h-60l14 80h-195zM309 301h136l31 197z" />
    <glyph glyph-name="uni2464" unicode="&#x2464;" 
d="M363 -12q-139 0 -223.5 83.5t-84.5 221.5q0 184 122.5 301.5t300.5 117.5q139 0 223.5 -83.5t84.5 -221.5q0 -184 -122.5 -301.5t-300.5 -117.5zM370 30q157 0 264 104t107 267q0 123 -73.5 196t-195.5 73q-157 0 -264 -104t-107 -267q0 -123 73.5 -196t195.5 -73z
M274 267l58 4q1 -28 21 -42.5t49 -14.5q37 0 62.5 23.5t25.5 65.5q0 30 -18 46t-47 16q-49 0 -80 -37l-51 5l46 195h227l-8 -48h-182l-26 -109q41 36 99 36q46 0 73.5 -25.5t27.5 -71.5q0 -67 -44.5 -105.5t-112.5 -38.5q-53 0 -86.5 26.5t-33.5 74.5z" />
    <glyph glyph-name="uni2465" unicode="&#x2465;" 
d="M363 -12q-139 0 -223.5 83.5t-84.5 221.5q0 184 122.5 301.5t300.5 117.5q139 0 223.5 -83.5t84.5 -221.5q0 -184 -122.5 -301.5t-300.5 -117.5zM370 30q157 0 264 104t107 267q0 123 -73.5 196t-195.5 73q-157 0 -264 -104t-107 -267q0 -123 73.5 -196t195.5 -73z
M275 301q0 109 49 171t132 62q53 0 80.5 -26.5t25.5 -73.5l-58 -3q2 25 -12.5 40.5t-42.5 15.5q-82 0 -109 -137q38 51 108 51q48 0 77 -25t29 -71q0 -63 -43.5 -101t-113.5 -38q-122 0 -122 135zM337 275q0 -28 18 -44.5t49 -16.5q39 0 64.5 23.5t25.5 59.5q0 28 -18 44.5
t-50 16.5q-39 0 -64 -23t-25 -60z" />
    <glyph glyph-name="uni2466" unicode="&#x2466;" 
d="M363 -12q-139 0 -223.5 83.5t-84.5 221.5q0 184 122.5 301.5t300.5 117.5q139 0 223.5 -83.5t84.5 -221.5q0 -184 -122.5 -301.5t-300.5 -117.5zM370 30q157 0 264 104t107 267q0 123 -73.5 196t-195.5 73q-157 0 -264 -104t-107 -267q0 -123 73.5 -196t195.5 -73z
M319 480l8 48h252l-6 -41q-129 -157 -184 -315h-65q60 156 189 308h-194z" />
    <glyph glyph-name="uni2467" unicode="&#x2467;" 
d="M363 -12q-139 0 -223.5 83.5t-84.5 221.5q0 184 122.5 301.5t300.5 117.5q139 0 223.5 -83.5t84.5 -221.5q0 -184 -122.5 -301.5t-300.5 -117.5zM371 30q157 0 264 104t107 267q0 123 -73.5 196t-195.5 73q-157 0 -264.5 -104t-107.5 -267q0 -123 73.5 -196t196.5 -73z
M264 254q0 40 28 67t75 37q-66 16 -66 72q0 50 43 77t106 27q52 0 86 -21t34 -60q0 -37 -25 -61.5t-68 -33.5q74 -18 74 -80q0 -53 -46 -82.5t-113 -29.5q-56 0 -92 23t-36 65zM359 426q0 -46 67 -46q38 0 61 16t23 45q0 22 -18 34.5t-49 12.5q-38 0 -61 -16.5t-23 -45.5z
M324 266q0 -26 20.5 -39.5t54.5 -13.5q41 0 68 18t27 50q0 25 -21 38.5t-55 13.5q-41 0 -67.5 -17.5t-26.5 -49.5z" />
    <glyph glyph-name="uni2468" unicode="&#x2468;" 
d="M363 -12q-139 0 -223.5 83.5t-84.5 221.5q0 184 122.5 301.5t300.5 117.5q139 0 223.5 -83.5t84.5 -221.5q0 -184 -122.5 -301.5t-300.5 -117.5zM372 30q157 0 264 104t107 267q0 123 -73.5 196t-195.5 73q-157 0 -264 -104t-107 -267q0 -123 73.5 -196t195.5 -73z
M288 397q0 62 44 99.5t113 37.5q123 0 123 -135q0 -109 -48.5 -171t-131.5 -62q-53 0 -81.5 26.5t-26.5 73.5l58 4q-1 -25 14 -40.5t43 -15.5q83 0 108 140q-36 -51 -108 -51q-48 0 -77.5 24.5t-29.5 69.5zM349 405q0 -28 18.5 -44t49.5 -16q39 0 64 22.5t25 58.5
q0 27 -18 44t-49 17q-39 0 -64.5 -23.5t-25.5 -58.5z" />
    <glyph glyph-name="uni24EA" unicode="&#x24ea;" 
d="M363 -12q-139 0 -223.5 83.5t-84.5 221.5q0 184 122.5 301.5t300.5 117.5q139 0 223.5 -83.5t84.5 -221.5q0 -184 -122.5 -301.5t-300.5 -117.5zM370 30q157 0 264 104t107 267q0 123 -73.5 196t-195.5 73q-157 0 -264 -104t-107 -267q0 -123 73.5 -196t195.5 -73z
M272 309q0 100 48 162.5t130 62.5q58 0 88.5 -38t30.5 -105q0 -100 -47.5 -162.5t-129.5 -62.5q-58 0 -89 38t-31 105zM332 314q0 -48 17.5 -74t50.5 -26q49 0 79.5 48t30.5 124q0 48 -17.5 74t-50.5 26q-49 0 -79.5 -47.5t-30.5 -124.5z" />
    <glyph glyph-name="uni24FF" unicode="&#x24ff;" 
d="M363 -12q-139 0 -223.5 83.5t-84.5 221.5q0 184 122.5 301.5t300.5 117.5q139 0 223.5 -83.5t84.5 -221.5q0 -184 -122.5 -301.5t-300.5 -117.5zM272 309q0 -67 31 -105t89 -38q82 0 129.5 62.5t47.5 162.5q0 67 -30.5 105t-88.5 38q-82 0 -130 -62.5t-48 -162.5z
M332 314q0 77 30.5 124.5t79.5 47.5q33 0 50.5 -26t17.5 -74q0 -76 -30.5 -124t-79.5 -48q-33 0 -50.5 26t-17.5 74z" />
    <glyph glyph-name="lozenge" unicode="&#x25ca;" horiz-adv-x="490" 
d="M360 700l108 -350l-218 -350h-93l-108 350l218 350h93zM211 51l182 299l-86 299l-182 -299z" />
    <glyph glyph-name="uni2776" unicode="&#x2776;" 
d="M363 -12q-139 0 -223.5 83.5t-84.5 221.5q0 184 122.5 301.5t300.5 117.5q139 0 223.5 -83.5t84.5 -221.5q0 -184 -122.5 -301.5t-300.5 -117.5zM349 425l70 37l-46 -290h59l57 356h-48l-82 -43z" />
    <glyph glyph-name="uni2777" unicode="&#x2777;" 
d="M363 -12q-139 0 -223.5 83.5t-84.5 221.5q0 184 122.5 301.5t300.5 117.5q139 0 223.5 -83.5t84.5 -221.5q0 -184 -122.5 -301.5t-300.5 -117.5zM270 173h255l7 48h-172l101 87q57 47 77 76.5t20 65.5q0 41 -27.5 63t-71.5 22q-52 0 -90.5 -31t-52.5 -94l56 -5
q20 82 79 82q21 0 34 -11.5t13 -32.5q0 -19 -13.5 -39t-28 -33.5t-48.5 -41.5l-132 -112z" />
    <glyph glyph-name="uni2778" unicode="&#x2778;" 
d="M363 -12q-139 0 -223.5 83.5t-84.5 221.5q0 184 122.5 301.5t300.5 117.5q139 0 223.5 -83.5t84.5 -221.5q0 -184 -122.5 -301.5t-300.5 -117.5zM275 275q-3 -54 28.5 -81.5t87.5 -27.5q66 0 110.5 35t44.5 99q0 85 -103 88l124 96l7 44h-241l-8 -48h164l-117 -97l-6 -42
q29 6 55 6q65 0 65 -55q0 -36 -24.5 -57t-63.5 -21q-32 0 -49 15.5t-16 48.5z" />
    <glyph glyph-name="uni2779" unicode="&#x2779;" 
d="M363 -12q-139 0 -223.5 83.5t-84.5 221.5q0 184 122.5 301.5t300.5 117.5q139 0 223.5 -83.5t84.5 -221.5q0 -184 -122.5 -301.5t-300.5 -117.5zM243 252h195l-14 -80h60l13 80h59l8 49h-60l37 227h-97l-194 -231zM309 301l167 197l-31 -197h-136z" />
    <glyph glyph-name="uni277A" unicode="&#x277a;" 
d="M363 -12q-139 0 -223.5 83.5t-84.5 221.5q0 184 122.5 301.5t300.5 117.5q139 0 223.5 -83.5t84.5 -221.5q0 -184 -122.5 -301.5t-300.5 -117.5zM274 267q0 -48 33.5 -74.5t86.5 -26.5q68 0 112.5 38.5t44.5 105.5q0 46 -27.5 71.5t-73.5 25.5q-58 0 -99 -36l26 109h182
l8 48h-227l-46 -195l51 -5q31 37 80 37q29 0 47 -16t18 -46q0 -42 -25.5 -65.5t-62.5 -23.5q-29 0 -49 14.5t-21 42.5z" />
    <glyph glyph-name="uni277B" unicode="&#x277b;" 
d="M363 -12q-139 0 -223.5 83.5t-84.5 221.5q0 184 122.5 301.5t300.5 117.5q139 0 223.5 -83.5t84.5 -221.5q0 -184 -122.5 -301.5t-300.5 -117.5zM275 301q0 -135 122 -135q70 0 113.5 38t43.5 101q0 46 -29 71t-77 25q-70 0 -108 -51q27 137 109 137q28 0 42.5 -15.5
t12.5 -40.5l58 3q2 47 -25.5 73.5t-80.5 26.5q-83 0 -132 -62t-49 -171zM337 275q0 37 25 60t64 23q32 0 50 -16.5t18 -44.5q0 -36 -25.5 -59.5t-64.5 -23.5q-31 0 -49 16.5t-18 44.5z" />
    <glyph glyph-name="uni277C" unicode="&#x277c;" 
d="M363 -12q-139 0 -223.5 83.5t-84.5 221.5q0 184 122.5 301.5t300.5 117.5q139 0 223.5 -83.5t84.5 -221.5q0 -184 -122.5 -301.5t-300.5 -117.5zM319 480h194q-129 -152 -189 -308h65q55 158 184 315l6 41h-252z" />
    <glyph glyph-name="uni277D" unicode="&#x277d;" 
d="M363 -12q-139 0 -223.5 83.5t-84.5 221.5q0 184 122.5 301.5t300.5 117.5q139 0 223.5 -83.5t84.5 -221.5q0 -184 -122.5 -301.5t-300.5 -117.5zM264 254q0 -42 36 -65t92 -23q67 0 113 29.5t46 82.5q0 62 -74 80q43 9 68 33.5t25 61.5q0 39 -34 60t-86 21
q-63 0 -106 -27t-43 -77q0 -56 66 -72q-47 -10 -75 -37t-28 -67zM359 426q0 29 23 45.5t61 16.5q31 0 49 -12.5t18 -34.5q0 -29 -23 -45t-61 -16q-67 0 -67 46zM324 266q0 31 26.5 49t67.5 18q34 0 55 -14t21 -38q0 -32 -27 -50t-68 -18q-34 0 -54.5 13.5t-20.5 39.5z" />
    <glyph glyph-name="uni277E" unicode="&#x277e;" 
d="M363 -12q-139 0 -223.5 83.5t-84.5 221.5q0 184 122.5 301.5t300.5 117.5q139 0 223.5 -83.5t84.5 -221.5q0 -184 -122.5 -301.5t-300.5 -117.5zM288 397q0 -45 29.5 -69.5t77.5 -24.5q72 0 108 51q-25 -140 -108 -140q-28 0 -43 15.5t-14 40.5l-58 -4q-2 -47 26.5 -73.5
t81.5 -26.5q83 0 131.5 62t48.5 171q0 135 -123 135q-69 0 -113 -37.5t-44 -99.5zM349 405q0 35 25.5 58.5t64.5 23.5q31 0 49 -17t18 -44q0 -36 -25 -58.5t-64 -22.5q-31 0 -49.5 16t-18.5 44z" />
    <glyph glyph-name="i.loclTRK" horiz-adv-x="234" 
d="M126 610l18 112h93l-18 -112h-93zM32 0l83 524h87l-83 -524h-87z" />
    <glyph glyph-name="zero.osf" horiz-adv-x="609" 
d="M45 224q0 157 84.5 254.5t224.5 97.5q103 0 159.5 -63t56.5 -172q0 -157 -84.5 -254t-224.5 -97q-103 0 -159.5 62.5t-56.5 171.5zM133 233q0 -81 36.5 -126.5t102.5 -45.5q95 0 152.5 75t57.5 197q0 81 -36.5 126.5t-102.5 45.5q-95 0 -152.5 -75t-57.5 -197z" />
    <glyph glyph-name="one.osf" horiz-adv-x="492" 
d="M282 71h150l-11 -71h-411l12 71h172l63 399l-162 -88l13 86l182 98h70z" />
    <glyph glyph-name="two.osf" horiz-adv-x="520" 
d="M323 217l-208 -146h350l-11 -71h-475l11 65l268 188q97 71 121 97q39 41 39 80q0 36 -30 55.5t-80 19.5q-137 0 -171 -133l-82 7q24 99 94 148t168 49q86 0 137.5 -35t51.5 -99q0 -57 -41 -106.5t-142 -118.5z" />
    <glyph glyph-name="three.osf" horiz-adv-x="548" 
d="M542 566l-11 -65l-259 -211q118 3 171 -47q44 -41 44 -120q0 -118 -81 -186t-205 -68q-102 0 -159.5 51.5t-50.5 153.5l85 6q-3 -71 33.5 -105t102.5 -34q82 0 134 45.5t52 125.5q0 54 -34.5 86t-102.5 32q-44 0 -103 -11l10 62l248 213h-327l12 72h441z" />
    <glyph glyph-name="four.osf" horiz-adv-x="597" 
d="M434 93h106l-11 -72h-106l-23 -142h-88l23 142h-348l11 66l368 479h143zM346 93l67 426l-327 -426h260z" />
    <glyph glyph-name="five.osf" horiz-adv-x="557" 
d="M519 494h-344l-54 -232q77 72 190 72q86 0 137 -50t51 -139q0 -128 -81 -202t-206 -74q-100 0 -159.5 49.5t-58.5 140.5l86 6q1 -60 41 -92t103 -32q77 0 131.5 50.5t54.5 142.5q0 66 -37.5 99.5t-96.5 33.5q-104 0 -167 -78l-77 6l88 371h411z" />
    <glyph glyph-name="six.osf" horiz-adv-x="601" 
d="M576 519l-86 -6q4 57 -25 92t-87 35q-93 0 -154 -84.5t-73 -221.5q33 58 89.5 89t125.5 31q86 0 139 -51t53 -142q0 -124 -79.5 -198.5t-206.5 -74.5q-215 0 -215 255q0 215 89 342t243 127q94 0 143.5 -52t43.5 -141zM335 385q-80 0 -132.5 -53.5t-52.5 -136.5
q0 -62 36 -98.5t97 -36.5q81 0 133 53t52 137q0 62 -35.5 98.5t-97.5 36.5z" />
    <glyph glyph-name="seven.osf" horiz-adv-x="531" 
d="M79 566h473l-10 -61q-254 -315 -370 -626h-91q120 314 374 615h-387z" />
    <glyph glyph-name="eight.osf" horiz-adv-x="588" 
d="M403 365q64 -17 99.5 -57t35.5 -99q0 -103 -83.5 -162t-204.5 -59q-99 0 -162 44.5t-63 124.5q0 79 52.5 133.5t142.5 74.5q-123 30 -123 141q0 97 77.5 151.5t190.5 54.5q93 0 152.5 -40.5t59.5 -115.5q0 -76 -46.5 -124.5t-127.5 -66.5zM182 502q0 -51 36 -78.5
t98 -27.5q76 0 124 37t48 105q0 51 -36 77.5t-98 26.5q-76 0 -124 -36.5t-48 -103.5zM262 58q82 0 136.5 41t54.5 113q0 55 -41 85.5t-107 30.5q-83 0 -137.5 -41t-54.5 -113q0 -55 41 -85.5t108 -30.5z" />
    <glyph glyph-name="nine.osf" horiz-adv-x="601" 
d="M334 576q217 0 217 -252q0 -209 -86.5 -331.5t-241.5 -122.5q-96 0 -145.5 50.5t-44.5 138.5l86 6q-3 -55 27 -89t88 -34q93 0 154 83.5t70 218.5q-33 -58 -89.5 -87.5t-125.5 -29.5q-85 0 -139 51t-54 137q0 119 79.5 190t204.5 71zM275 196q80 0 131.5 50.5t51.5 128.5
q0 59 -36 94t-98 35q-80 0 -131.5 -50t-51.5 -128q0 -59 36 -94.5t98 -35.5z" />
    <glyph glyph-name="zero.subs" horiz-adv-x="449" 
d="M16 48q0 122 59 198.5t159 76.5q71 0 109 -46.5t38 -128.5q0 -122 -59 -198.5t-159 -76.5q-71 0 -109 46.5t-38 128.5zM87 54q0 -59 22 -91.5t63 -32.5q62 0 100 59t38 154q0 59 -22 91t-63 32q-62 0 -100 -59t-38 -153z" />
    <glyph glyph-name="one.subs" horiz-adv-x="274" 
d="M136 315h58l-69 -431h-70l56 349l-92 -67l12 74z" />
    <glyph glyph-name="two.subs" horiz-adv-x="361" 
d="M193 47l-133 -109h223l-9 -57h-317l9 52l167 139q46 38 62 52.5t33 39.5t17 49q0 26 -17 40t-45 14q-76 0 -102 -101l-67 6q17 76 65 114t113 38q55 0 89 -27t34 -76q0 -47 -26.5 -82.5t-95.5 -91.5z" />
    <glyph glyph-name="three.subs" horiz-adv-x="380" 
d="M342 315l-9 -50l-162 -119q68 0 103 -28.5t35 -79.5q0 -77 -55 -119t-138 -42q-69 0 -107.5 33t-35.5 98l69 5q-1 -41 20.5 -60t62.5 -19q50 0 81 25t31 70q0 31 -21 49.5t-63 18.5q-26 0 -68 -7l7 48l150 120h-207l9 57h298z" />
    <glyph glyph-name="four.subs" horiz-adv-x="431" 
d="M296 38h74l-10 -57h-73l-15 -97h-71l16 97h-240l9 53l239 281h115zM56 38h170l38 244z" />
    <glyph glyph-name="five.subs" horiz-adv-x="401" 
d="M340 258h-227l-32 -134q49 41 123 41q58 0 92 -29.5t34 -85.5q0 -81 -54 -127t-138 -46q-67 0 -108 32t-41 90l68 4q2 -34 27 -51.5t62 -17.5q47 0 80 28.5t33 79.5q0 37 -23.5 56.5t-60.5 19.5q-62 0 -101 -44l-61 5l56 236h279z" />
    <glyph glyph-name="six.subs" horiz-adv-x="434" 
d="M369 202l-68 -4q1 31 -17.5 50t-53.5 19q-59 0 -96.5 -47.5t-44.5 -127.5q47 67 141 67q57 0 93 -30t36 -86q0 -78 -53.5 -123.5t-140.5 -45.5q-149 0 -149 163q0 135 59.5 211t163.5 76q65 0 99 -32t31 -90zM203 111q-44 0 -74.5 -24.5t-37.5 -66.5q-7 -40 16 -64.5
t67 -24.5q51 0 82.5 28.5t31.5 75.5q0 35 -23 55.5t-62 20.5z" />
    <glyph glyph-name="seven.subs" horiz-adv-x="349" 
d="M29 315h314l-9 -48q-159 -189 -229 -383h-75q70 187 235 374h-246z" />
    <glyph glyph-name="eight.subs" horiz-adv-x="425" 
d="M255 109q42 -10 67 -35.5t25 -62.5q0 -64 -57 -100.5t-139 -36.5q-68 0 -112.5 28t-44.5 79q0 49 35 82t93 46q-82 19 -82 88q0 61 53 94t130 33q64 0 105.5 -25.5t41.5 -73.5q0 -45 -30.5 -74.5t-84.5 -41.5zM214 271q-48 0 -77 -20.5t-29 -58.5q0 -29 22.5 -44.5
t61.5 -15.5q48 0 77.5 20.5t29.5 58.5q0 29 -23 44.5t-62 15.5zM159 -73q54 0 86.5 23t32.5 64q0 31 -25 48.5t-69 17.5q-54 0 -86.5 -23t-32.5 -63q0 -32 25.5 -49.5t68.5 -17.5z" />
    <glyph glyph-name="nine.subs" horiz-adv-x="434" 
d="M217 324q149 0 149 -163q0 -136 -58 -211.5t-163 -75.5q-66 0 -100.5 32t-31.5 90l68 4q-1 -31 18 -50t55 -19q58 0 95.5 48.5t43.5 128.5q-46 -67 -141 -67q-57 0 -93 30.5t-36 85.5q0 76 53.5 121.5t140.5 45.5zM179 90q45 0 75.5 24t36.5 64q6 41 -17 65t-67 24
q-49 0 -81 -28.5t-32 -73.5q0 -34 23 -54.5t62 -20.5z" />
    <glyph glyph-name="zero.tf" horiz-adv-x="630" 
d="M73 260q0 198 85 325t229 127q97 0 148 -72.5t51 -199.5q0 -198 -85 -325t-229 -127q-97 0 -148 72.5t-51 199.5zM158 265q0 -97 32 -152t93 -55q97 0 157 107.5t60 268.5q0 97 -32 152t-93 55q-97 0 -157 -107t-60 -269z" />
    <glyph glyph-name="one.tf" horiz-adv-x="630" 
d="M356 72h179l-12 -72h-477l12 72h210l82 526l-208 -134l15 89l228 147h71z" />
    <glyph glyph-name="two.tf" horiz-adv-x="630" 
d="M380 270l-219 -200h349l-11 -70h-464l11 64l263 241q100 91 126 124q48 59 48 118q0 46 -28.5 70.5t-75.5 24.5q-62 0 -107 -43.5t-66 -133.5l-81 7q27 120 98 180t167 60q81 0 130 -40.5t49 -114.5q0 -76 -41 -133.5t-148 -153.5z" />
    <glyph glyph-name="three.tf" horiz-adv-x="630" 
d="M594 700l-11 -65l-253 -216q106 2 158 -42q50 -42 50 -129q0 -121 -80.5 -190.5t-202.5 -69.5q-101 0 -156.5 52.5t-48.5 156.5l86 6q-4 -73 31 -108t100 -35q79 0 130.5 47.5t51.5 129.5q0 55 -33.5 88t-98.5 33q-45 0 -101 -12l10 62l242 220h-318l11 72h433z" />
    <glyph glyph-name="four.tf" horiz-adv-x="630" 
d="M472 234h103l-11 -69h-103l-26 -165h-86l26 165h-341l10 64l360 471h142zM386 234l67 422l-323 -422h256z" />
    <glyph glyph-name="five.tf" horiz-adv-x="630" 
d="M580 628h-336l-56 -239q78 73 187 73q84 0 133 -51t49 -141q0 -130 -80 -206t-203 -76q-97 0 -155.5 51t-56.5 143l86 6q1 -62 39 -95t99 -33q75 0 128.5 53t53.5 148q0 67 -36 100.5t-93 33.5q-46 0 -89 -20.5t-74 -59.5l-76 6l89 379h403z" />
    <glyph glyph-name="six.tf" horiz-adv-x="630" 
d="M590 519l-83 -6q4 58 -24.5 94t-85.5 36q-91 0 -151 -86t-72 -225q32 59 87.5 90t123.5 31q84 0 135.5 -50.5t51.5 -140.5q0 -125 -77.5 -199.5t-202.5 -74.5q-210 0 -210 253q0 215 88 343t239 128q92 0 139.5 -52t41.5 -141zM354 387q-79 0 -130.5 -54t-51.5 -139
q0 -62 35.5 -99.5t95.5 -37.5q79 0 130.5 54.5t51.5 138.5q0 63 -35.5 100t-95.5 37z" />
    <glyph glyph-name="seven.tf" horiz-adv-x="630" 
d="M149 700h464l-10 -62q-244 -312 -363 -638h-96q120 318 372 628h-378z" />
    <glyph glyph-name="eight.tf" horiz-adv-x="630" 
d="M419 365q64 -17 99 -57t35 -99q0 -102 -81.5 -161.5t-200.5 -59.5q-97 0 -158 44.5t-61 124.5q0 79 51.5 133.5t139.5 74.5q-120 30 -120 141q0 97 76 151.5t187 54.5q91 0 148.5 -40.5t57.5 -115.5q0 -76 -46.5 -125t-126.5 -66zM206 502q0 -51 35 -79t95 -28
q75 0 123 38t48 106q0 51 -35.5 78.5t-95.5 27.5q-75 0 -122.5 -37.5t-47.5 -105.5zM282 55q80 0 134 42t54 114q0 56 -40 87t-105 31q-80 0 -134 -42t-54 -114q0 -56 40 -87t105 -31z" />
    <glyph glyph-name="nine.tf" horiz-adv-x="630" 
d="M365 712q210 0 210 -253q0 -216 -85.5 -343.5t-238.5 -127.5q-94 0 -142 52t-42 140l83 7q-3 -58 26 -94t87 -36q92 0 151.5 88t69.5 229q-32 -60 -87.5 -90.5t-123.5 -30.5q-83 0 -135 51t-52 139q0 122 78 195.5t201 73.5zM304 319q79 0 130 53t51 136q0 62 -35 98.5
t-96 36.5q-78 0 -129.5 -53.5t-51.5 -135.5q0 -61 35.5 -98t95.5 -37z" />
    <glyph glyph-name="zero.tosf" horiz-adv-x="630" 
d="M64 223q0 158 82.5 255.5t218.5 97.5q100 0 154 -62t54 -171q0 -158 -82.5 -255.5t-218.5 -97.5q-99 0 -153.5 62t-54.5 171zM151 231q0 -81 34.5 -126.5t98.5 -45.5q92 0 147.5 76.5t55.5 199.5q0 81 -34.5 126.5t-98.5 45.5q-92 0 -147.5 -76.5t-55.5 -199.5z" />
    <glyph glyph-name="one.tosf" horiz-adv-x="630" 
d="M359 71h183l-11 -71h-479l11 71h209l63 402l-195 -91l14 86l214 98h69z" />
    <glyph glyph-name="two.tosf" horiz-adv-x="630" 
d="M372 216l-199 -145h334l-11 -71h-458l11 65l258 188q93 71 118 98q36 41 36 80q0 36 -28.5 55t-76.5 19q-126 0 -160 -133l-83 7q25 99 92.5 148t161.5 49q83 0 132.5 -35t49.5 -99q0 -61 -39.5 -108.5t-137.5 -117.5z" />
    <glyph glyph-name="three.tosf" horiz-adv-x="630" 
d="M569 566l-10 -65l-259 -211q111 2 164 -43q51 -42 51 -127q0 -118 -82 -184.5t-207 -66.5q-104 0 -162 51.5t-51 152.5l86 6q-4 -71 33.5 -104.5t104.5 -33.5q82 0 135 45t53 124q0 55 -35 86.5t-104 31.5q-43 0 -103 -10l10 62l250 214h-331l11 72h446z" />
    <glyph glyph-name="four.tosf" horiz-adv-x="630" 
d="M451 105h105l-11 -72h-105l-25 -154h-88l24 154h-345l10 66l364 467h144zM362 105l65 410l-323 -410h258z" />
    <glyph glyph-name="five.tosf" horiz-adv-x="630" 
d="M557 494h-336l-56 -235q77 72 187 72q84 0 134 -50t50 -138q0 -126 -80.5 -200t-202.5 -74q-97 0 -155.5 49.5t-57.5 139.5l86 6q1 -60 39.5 -91.5t99.5 -31.5q76 0 129 50.5t53 141.5q0 65 -36.5 98t-94.5 33q-45 0 -88.5 -20t-73.5 -57l-77 6l88 373h404z" />
    <glyph glyph-name="six.tosf" horiz-adv-x="630" 
d="M588 519l-83 -6q3 58 -25.5 94t-83.5 36q-90 0 -149.5 -86t-72.5 -225q32 59 87 90t122 31q84 0 135 -50.5t51 -140.5q0 -125 -77.5 -199.5t-201.5 -74.5q-207 0 -207 253q0 215 87.5 343t237.5 128q91 0 138 -52t42 -141zM353 387q-78 0 -129 -54t-51 -139
q0 -62 34.5 -99.5t94.5 -37.5q78 0 129 54.5t51 138.5q0 63 -34.5 100t-94.5 37z" />
    <glyph glyph-name="seven.tosf" horiz-adv-x="630" 
d="M126 566h456l-10 -61q-244 -312 -358 -626h-91q117 313 362 615h-370z" />
    <glyph glyph-name="eight.tosf" horiz-adv-x="630" 
d="M420 365q62 -17 96.5 -57.5t34.5 -98.5q0 -103 -81 -162t-199 -59q-96 0 -156.5 44.5t-60.5 124.5q0 79 51.5 133.5t138.5 74.5q-118 30 -118 140q0 98 75.5 152.5t184.5 54.5q89 0 146 -40.5t57 -115.5t-45 -124t-124 -67zM211 501q0 -51 33.5 -78t91.5 -27
q73 0 119 37.5t46 105.5q0 50 -34 76.5t-92 26.5q-73 0 -118.5 -37t-45.5 -104zM283 58q78 0 130.5 41t52.5 113q0 55 -39 85.5t-102 30.5q-78 0 -130.5 -41t-52.5 -113q0 -55 38.5 -85.5t102.5 -30.5z" />
    <glyph glyph-name="nine.tosf" horiz-adv-x="630" 
d="M348 576q208 0 208 -250q0 -209 -84 -332.5t-235 -123.5q-92 0 -140 50.5t-43 137.5l83 7q-2 -56 26.5 -91t85.5 -35q90 0 149 85.5t68 221.5q-32 -58 -86.5 -88t-121.5 -30q-83 0 -134.5 50.5t-51.5 136.5q0 118 77 189.5t199 71.5zM289 194q77 0 127.5 51.5t50.5 130.5
q0 60 -34.5 95.5t-94.5 35.5q-77 0 -127.5 -51t-50.5 -130q0 -60 34.5 -96t94.5 -36z" />
    <glyph glyph-name="zero.zero" horiz-adv-x="620" 
d="M381 712q102 0 155 -72.5t53 -201.5q0 -199 -87 -324.5t-235 -125.5q-102 0 -155.5 73t-53.5 201q0 199 87.5 324.5t235.5 125.5zM370 640q-100 0 -161.5 -105.5t-61.5 -265.5q0 -46 7 -78l323 374q-33 75 -107 75zM278 60q100 0 161.5 105.5t61.5 265.5q0 43 -8 81
l-323 -375q33 -77 108 -77z" />
    <glyph glyph-name="zero.osf.zero" horiz-adv-x="609" 
d="M354 576q103 0 159.5 -63t56.5 -172q0 -157 -84.5 -254t-224.5 -97q-103 0 -159.5 62.5t-56.5 171.5q0 157 84.5 254.5t224.5 97.5zM343 505q-95 0 -152.5 -75t-57.5 -197q0 -34 8 -66l314 280q-38 58 -112 58zM272 61q95 0 152.5 75t57.5 197q0 41 -8 68l-315 -280
q38 -60 113 -60z" />
    <glyph glyph-name="zero.tf.zero" horiz-adv-x="630" 
d="M387 712q97 0 148 -72.5t51 -199.5q0 -198 -85 -325t-229 -127q-97 0 -148 72.5t-51 199.5q0 198 85 325t229 127zM375 641q-97 0 -157 -107t-60 -269q0 -41 6 -74l315 372q-31 78 -104 78zM283 58q97 0 157 107.5t60 268.5q0 40 -6 75l-315 -373q31 -78 104 -78z" />
    <glyph glyph-name="zero.tosf.zero" horiz-adv-x="630" 
d="M365 576q100 0 154 -62t54 -171q0 -158 -82.5 -255.5t-218.5 -97.5q-99 0 -153.5 62t-54.5 171q0 158 82.5 255.5t218.5 97.5zM354 507q-92 0 -147.5 -76.5t-55.5 -199.5q0 -33 6 -62l307 275q-35 63 -110 63zM284 59q92 0 147.5 76.5t55.5 199.5q0 35 -6 62l-307 -275
q35 -63 110 -63z" />
    <glyph glyph-name="zero.dnom" horiz-adv-x="396" 
d="M25 136q0 103 51 166.5t138 63.5q63 0 96.5 -39.5t33.5 -108.5q0 -103 -51 -166.5t-139 -63.5q-62 0 -95.5 39.5t-33.5 108.5zM87 142q0 -50 19.5 -77t55.5 -27q54 0 87 48t33 126q0 50 -19.5 77t-56.5 27q-54 0 -86.5 -48t-32.5 -126z" />
    <glyph glyph-name="one.dnom" horiz-adv-x="233" 
d="M130 360h49l-57 -360h-62l46 285l-83 -49l11 66z" />
    <glyph glyph-name="two.dnom" horiz-adv-x="321" 
d="M181 140l-116 -90h196l-8 -50h-277l7 46l145 115q65 53 80 73q15 21 15 43q0 45 -53 45q-67 0 -87 -83l-59 5q15 64 56.5 96t97.5 32q48 0 78 -23t30 -65q0 -37 -22.5 -68t-82.5 -76z" />
    <glyph glyph-name="three.dnom" horiz-adv-x="336" 
d="M313 360l-7 -45l-138 -97q59 -1 88.5 -26t29.5 -67q0 -66 -48.5 -101.5t-122.5 -35.5q-61 0 -96 28t-32 84l62 4q-2 -33 17.5 -49.5t56.5 -16.5q43 0 71.5 21t28.5 58q0 26 -19 41.5t-57 15.5q-21 0 -62 -6l6 42l133 100h-185l9 50h265z" />
    <glyph glyph-name="four.dnom" horiz-adv-x="372" 
d="M265 131h63l-8 -50h-63l-13 -81h-62l13 81h-206l7 46l204 233h101zM59 131h144l31 200z" />
    <glyph glyph-name="five.dnom" horiz-adv-x="350" 
d="M307 312h-204l-28 -114q42 38 111 38q52 0 83.5 -26.5t31.5 -74.5q0 -69 -48 -108t-123 -39q-60 0 -96.5 27t-36.5 77l58 4q2 -29 24.5 -44.5t58.5 -15.5q44 0 72 23.5t28 67.5q0 32 -20.5 48.5t-54.5 16.5q-60 0 -94 -37l-51 4l49 201h247z" />
    <glyph glyph-name="six.dnom" horiz-adv-x="375" 
d="M332 264l-59 -5q1 25 -16 41t-48 16q-49 0 -81.5 -38.5t-38.5 -103.5q39 56 120 56q52 0 84 -26t32 -74q0 -65 -46.5 -103.5t-122.5 -38.5q-63 0 -97 35.5t-34 105.5q0 111 53.5 174t138.5 63q56 0 87 -27t28 -75zM188 186q-39 0 -65.5 -20t-31.5 -54q-5 -33 14.5 -53.5
t58.5 -20.5q43 0 70.5 24t27.5 61q0 29 -20 46t-54 17z" />
    <glyph glyph-name="seven.dnom" horiz-adv-x="305" 
d="M34 360h274l-7 -42q-135 -155 -198 -318h-65q60 157 199 310h-211z" />
    <glyph glyph-name="eight.dnom" horiz-adv-x="373" 
d="M232 185q38 -8 59.5 -29.5t21.5 -52.5q0 -55 -49.5 -85t-120.5 -30q-60 0 -99 23.5t-39 67.5q0 41 30 68t81 38q-72 18 -72 74q0 51 46 79t113 28q56 0 92 -21.5t36 -62.5q0 -37 -26.5 -62t-72.5 -35zM103 254q0 -23 20 -36t54 -13q41 0 67 17t26 47q0 24 -20.5 37
t-54.5 13q-41 0 -66.5 -17t-25.5 -48zM150 35q46 0 75 18.5t29 52.5q0 26 -23 40.5t-61 14.5q-44 0 -73 -18.5t-29 -51.5q0 -27 22.5 -41.5t59.5 -14.5z" />
    <glyph glyph-name="nine.dnom" horiz-adv-x="376" 
d="M192 366q132 0 132 -141q0 -112 -51.5 -174.5t-140.5 -62.5q-58 0 -88 27t-28 75l60 5q-1 -26 15.5 -41.5t47.5 -15.5q50 0 82 38.5t38 103.5q-40 -54 -119 -54q-52 0 -84 26t-32 73q0 64 46 102.5t122 38.5zM161 170q39 0 65 20t31 53t-14.5 53t-58.5 20
q-43 0 -70 -23.5t-27 -60.5q0 -29 20 -45.5t54 -16.5z" />
    <glyph glyph-name="zero.numr" horiz-adv-x="397" 
d="M80 482q0 103 51 166.5t138 63.5q63 0 96.5 -39.5t33.5 -108.5q0 -103 -51 -166.5t-139 -63.5q-62 0 -95.5 39.5t-33.5 108.5zM142 488q0 -50 19.5 -77t55.5 -27q54 0 87 48t33 126q0 50 -19.5 77t-56.5 27q-54 0 -86.5 -48t-32.5 -126z" />
    <glyph glyph-name="one.numr" horiz-adv-x="234" 
d="M183 700h49l-57 -360h-61l45 285l-82 -49l10 66z" />
    <glyph glyph-name="two.numr" horiz-adv-x="321" 
d="M235 480l-116 -90h196l-8 -50h-277l7 46l145 115q65 53 80 73q15 21 15 43q0 45 -53 45q-67 0 -87 -83l-59 5q15 64 56.5 96t97.5 32q48 0 78 -23t30 -65q0 -37 -22.5 -68t-82.5 -76z" />
    <glyph glyph-name="three.numr" horiz-adv-x="336" 
d="M366 700l-7 -45l-137 -97q58 -1 87.5 -26t29.5 -67q0 -66 -48.5 -101.5t-122.5 -35.5q-61 0 -95.5 28t-31.5 84l61 4q-3 -66 74 -66q44 0 72 21t28 58q0 26 -19 41.5t-57 15.5q-22 0 -62 -6l6 42l134 100h-185l8 50h265z" />
    <glyph glyph-name="four.numr" horiz-adv-x="372" 
d="M319 471h63l-8 -50h-63l-13 -81h-62l13 81h-206l7 46l204 233h101zM113 471h144l31 200z" />
    <glyph glyph-name="five.numr" horiz-adv-x="350" 
d="M361 654h-204l-28 -114q44 38 111 38q52 0 83.5 -26.5t31.5 -74.5q0 -69 -48 -108t-123 -39q-60 0 -96.5 27t-36.5 77l58 4q2 -29 24.5 -44.5t58.5 -15.5q45 0 74 23.5t29 67.5q0 32 -21.5 48.5t-56.5 16.5q-60 0 -94 -37l-51 4l49 201h247z" />
    <glyph glyph-name="six.numr" horiz-adv-x="375" 
d="M387 610l-59 -5q1 25 -16 41t-48 16q-49 0 -81.5 -38.5t-38.5 -103.5q39 56 120 56q52 0 84 -26t32 -74q0 -65 -46.5 -103.5t-122.5 -38.5q-63 0 -97 35.5t-34 105.5q0 111 53.5 174t138.5 63q56 0 87 -27t28 -75zM243 532q-39 0 -65.5 -20t-31.5 -54q-5 -33 14.5 -53.5
t58.5 -20.5q43 0 70.5 24t27.5 61q0 29 -20 46t-54 17z" />
    <glyph glyph-name="seven.numr" horiz-adv-x="306" 
d="M88 700h274l-7 -42q-135 -155 -198 -318h-65q60 157 199 310h-211z" />
    <glyph glyph-name="eight.numr" horiz-adv-x="373" 
d="M287 531q38 -8 59.5 -29.5t21.5 -52.5q0 -55 -49.5 -85t-120.5 -30q-60 0 -99 23.5t-39 67.5q0 41 30 68t81 38q-72 18 -72 74q0 51 46 79t113 28q56 0 92 -21.5t36 -62.5q0 -37 -26.5 -62t-72.5 -35zM158 600q0 -23 20 -36t54 -13q41 0 67 17t26 47q0 24 -20.5 37
t-54.5 13q-41 0 -66.5 -17t-25.5 -48zM205 381q46 0 75 18.5t29 52.5q0 26 -23 40.5t-61 14.5q-44 0 -73 -18.5t-29 -51.5q0 -27 22.5 -41.5t59.5 -14.5z" />
    <glyph glyph-name="nine.numr" horiz-adv-x="375" 
d="M246 712q132 0 132 -141q0 -112 -51.5 -174.5t-140.5 -62.5q-58 0 -88 27t-28 75l60 5q-1 -26 16 -41.5t48 -15.5q49 0 81 38.5t38 103.5q-40 -54 -119 -54q-52 0 -84 26t-32 73q0 64 46 102.5t122 38.5zM215 516q39 0 65.5 20t31.5 53q5 32 -15 52.5t-59 20.5
q-42 0 -69.5 -23.5t-27.5 -60.5q0 -29 20 -45.5t54 -16.5z" />
    <glyph glyph-name="zero.sups" horiz-adv-x="450" 
d="M88 498q0 123 58.5 199t159.5 76q71 0 108.5 -46.5t37.5 -128.5q0 -122 -58.5 -198.5t-158.5 -76.5q-71 0 -109 46.5t-38 128.5zM159 504q0 -59 22 -91.5t63 -32.5q62 0 100 59t38 154q0 59 -22.5 91t-62.5 32q-62 0 -100 -58.5t-38 -153.5z" />
    <glyph glyph-name="one.sups" horiz-adv-x="273" 
d="M207 764h58l-69 -431h-70l56 349l-92 -67l12 74z" />
    <glyph glyph-name="two.sups" horiz-adv-x="360" 
d="M264 497l-133 -109h223l-9 -57h-317l9 52l167 139q46 38 62 52.5t33 39.5t17 49q0 26 -17 40t-45 14q-76 0 -102 -101l-67 6q17 76 65 114t113 38q55 0 89 -27t34 -76q0 -47 -26.5 -82.5t-95.5 -91.5z" />
    <glyph glyph-name="three.sups" horiz-adv-x="379" 
d="M413 764l-9 -50l-162 -119q68 0 103 -28.5t35 -79.5q0 -77 -55 -119t-138 -42q-69 0 -107.5 33t-35.5 98l69 5q-1 -41 20.5 -60t62.5 -19q50 0 81 25t31 70q0 31 -21 49.5t-63 18.5q-26 0 -68 -7l7 48l150 120h-207l9 57h298z" />
    <glyph glyph-name="four.sups" horiz-adv-x="431" 
d="M368 487h73l-9 -57h-74l-15 -97h-70l15 97h-239l8 53l240 281h114zM127 487h170l39 244z" />
    <glyph glyph-name="five.sups" horiz-adv-x="401" 
d="M411 707h-227l-32 -134q49 41 123 41q58 0 92 -29.5t34 -85.5q0 -81 -54 -127t-138 -46q-67 0 -108 32t-41 90l68 4q2 -34 27 -51.5t62 -17.5q47 0 80 28.5t33 79.5q0 37 -23.5 56.5t-60.5 19.5q-62 0 -101 -44l-61 5l56 236h279z" />
    <glyph glyph-name="six.sups" horiz-adv-x="433" 
d="M440 652l-68 -4q1 31 -17.5 50t-53.5 19q-59 0 -96.5 -47.5t-44.5 -127.5q47 67 141 67q57 0 93 -30t36 -86q0 -78 -53.5 -123.5t-140.5 -45.5q-149 0 -149 163q0 135 59.5 211t163.5 76q65 0 99 -32t31 -90zM274 561q-44 0 -74.5 -24.5t-37.5 -66.5q-7 -40 16 -64.5
t67 -24.5q51 0 82.5 28.5t31.5 75.5q0 35 -23 55.5t-62 20.5z" />
    <glyph glyph-name="seven.sups" horiz-adv-x="348" 
d="M100 764h314l-9 -48q-159 -189 -229 -383h-75q70 187 235 374h-246z" />
    <glyph glyph-name="eight.sups" horiz-adv-x="424" 
d="M326 559q42 -10 67 -35.5t25 -62.5q0 -64 -57 -100.5t-139 -36.5q-68 0 -112.5 28t-44.5 79q0 49 35 82t93 46q-82 19 -82 88q0 61 53 94t130 33q64 0 105.5 -25.5t41.5 -73.5q0 -45 -30.5 -74.5t-84.5 -41.5zM285 721q-48 0 -77 -20.5t-29 -58.5q0 -29 22.5 -44.5
t61.5 -15.5q48 0 77.5 20.5t29.5 58.5q0 29 -23 44.5t-62 15.5zM230 377q54 0 86.5 23t32.5 64q0 31 -25 48.5t-69 17.5q-54 0 -86.5 -23t-32.5 -63q0 -32 25.5 -49.5t68.5 -17.5z" />
    <glyph glyph-name="nine.sups" horiz-adv-x="435" 
d="M288 774q150 0 150 -163q0 -136 -58 -211.5t-164 -75.5q-65 0 -100 32t-31 90l68 4q-1 -31 17.5 -50t54.5 -19q59 0 96.5 48.5t43.5 128.5q-47 -67 -141 -67q-57 0 -93 30.5t-36 85.5q0 76 53.5 121.5t139.5 45.5zM251 540q44 0 74.5 24t37.5 64q6 40 -17 64.5t-67 24.5
q-50 0 -81.5 -28.5t-31.5 -73.5q0 -35 22.5 -55t62.5 -20z" />
    <glyph glyph-name="exclamdown.case" horiz-adv-x="281" 
d="M159 700h102l-19 -115h-102zM213 496l-67 -496h-94l89 496h72z" />
    <glyph glyph-name="questiondown.case" horiz-adv-x="500" 
d="M386 700l-18 -115h-102l18 115h102zM473 218q-27 -115 -99.5 -172.5t-174.5 -57.5q-92 0 -143 45t-37 135q9 60 43.5 103.5t103.5 90.5q49 33 67 54.5t24 61.5l2 16h86l-3 -19q-9 -59 -32 -90t-75 -65q-58 -39 -89 -72t-38 -79q-9 -54 19 -81t84 -27q139 0 179 163z" />
    <glyph glyph-name="braceleft.case" horiz-adv-x="331" 
d="M45 313l10 61h8q89 0 108 123l19 117q14 87 59.5 122.5t122.5 35.5h11l-10 -61h-7q-44 0 -68.5 -24t-33.5 -79l-19 -122q-19 -122 -122 -140v-4q97 -18 78 -141l-20 -121q-9 -55 7.5 -79.5t60.5 -24.5h8l-10 -61h-11q-77 0 -111.5 36t-20.5 123l19 117q20 122 -70 122h-8
z" />
    <glyph glyph-name="braceright.case" horiz-adv-x="330" 
d="M-27 -85l10 61h7q45 0 69 24.5t33 79.5l19 121q19 123 122 141l1 4q-97 18 -78 140l19 122q9 55 -7.5 79t-60.5 24h-8l10 61h11q77 0 111.5 -35.5t20.5 -122.5l-18 -117q-11 -70 8.5 -96.5t60.5 -26.5h8l-10 -61h-8q-90 0 -108 -122l-19 -117q-13 -87 -58.5 -123
t-123.5 -36h-11z" />
    <glyph glyph-name="bracketleft.case" horiz-adv-x="295" 
d="M34 -85l135 857h178l-11 -68h-98l-114 -720h98l-11 -69h-177z" />
    <glyph glyph-name="bracketright.case" horiz-adv-x="295" 
d="M-27 -85l11 69h98l115 720h-99l11 68h178l-136 -857h-178z" />
    <glyph glyph-name="parenleft.case" horiz-adv-x="317" 
d="M63 254q0 98 23 185t62.5 151.5t79 109.5t85.5 81h76q-114 -100 -178.5 -234.5t-64.5 -293.5q0 -101 28 -189.5t78 -148.5h-76q-47 49 -80 136t-33 203z" />
    <glyph glyph-name="parenright.case" horiz-adv-x="317" 
d="M-45 -85q115 98 179 232.5t64 294.5q0 212 -105 339h76q47 -50 79.5 -136.5t32.5 -202.5q0 -98 -23 -185t-62.5 -151.5t-79 -109.5t-84.5 -81h-77z" />
    <glyph glyph-name="emdash.case" horiz-adv-x="680" 
d="M78 389h565l-11 -68h-565z" />
    <glyph glyph-name="endash.case" horiz-adv-x="551" 
d="M78 389h436l-11 -68h-436z" />
    <glyph glyph-name="hyphen.case" horiz-adv-x="372" 
d="M78 389h257l-11 -68h-257z" />
    <glyph glyph-name="guillemotleft.case" horiz-adv-x="453" 
d="M42 329l6 42l148 155h87l-169 -176l113 -176h-87zM211 329l7 42l147 155h87l-169 -176l113 -176h-87z" />
    <glyph glyph-name="guillemotright.case" horiz-adv-x="454" 
d="M29 174l170 176l-114 176h88l98 -155l-7 -42l-147 -155h-88zM198 174l170 176l-114 176h88l98 -155l-7 -42l-147 -155h-88z" />
    <glyph glyph-name="guilsinglleft.case" horiz-adv-x="284" 
d="M42 329l6 42l148 155h87l-169 -176l113 -176h-87z" />
    <glyph glyph-name="guilsinglright.case" horiz-adv-x="285" 
d="M29 174l170 176l-114 176h88l98 -155l-7 -42l-147 -155h-88z" />
    <glyph glyph-name="arrowup.ss01" 
d="M363 -12q-135 0 -221.5 84.5t-86.5 223.5q0 91 35 169.5t94 132t135.5 84t158.5 30.5q135 0 221.5 -85t86.5 -223q0 -91 -35 -169.5t-94 -132t-135.5 -84t-158.5 -30.5zM246 323l167 141l-49 -308h51l49 308l122 -141l11 69l-144 161l-196 -161z" />
    <glyph glyph-name="uni2197.ss01" 
d="M363 -12q-135 0 -221.5 84.5t-86.5 223.5q0 91 35 169.5t94 132t135.5 84t158.5 30.5q135 0 221.5 -85t86.5 -223q0 -91 -35 -169.5t-94 -132t-135.5 -84t-158.5 -30.5zM248 229l28 -33l256 221l-33 -204l55 50l37 233h-234l-57 -47l205 3z" />
    <glyph glyph-name="arrowright.ss01" 
d="M363 -12q-135 0 -221.5 84.5t-86.5 223.5q0 91 35 169.5t94 132t135.5 84t158.5 30.5q135 0 221.5 -85t86.5 -223q0 -91 -35 -169.5t-94 -132t-135.5 -84t-158.5 -30.5zM230 327h300l-166 -146h69l187 169l-133 170h-69l119 -146h-300z" />
    <glyph glyph-name="uni2198.ss01" 
d="M363 -12q-135 0 -221.5 84.5t-86.5 223.5q0 91 35 169.5t94 132t135.5 84t158.5 30.5q135 0 221.5 -85t86.5 -223q0 -91 -35 -169.5t-94 -132t-135.5 -84t-158.5 -30.5zM286 471l187 -223l-204 3l41 -47h235l37 233l-40 50l-31 -204l-186 221z" />
    <glyph glyph-name="arrowdown.ss01" 
d="M363 -12q-135 0 -221.5 84.5t-86.5 223.5q0 91 35 169.5t94 132t135.5 84t158.5 30.5q135 0 221.5 -85t86.5 -223q0 -91 -35 -169.5t-94 -132t-135.5 -84t-158.5 -30.5zM255 377l-11 -69l145 -161l195 161l11 69l-167 -141l49 308h-51l-49 -308z" />
    <glyph glyph-name="uni2199.ss01" 
d="M363 -12q-135 0 -221.5 84.5t-86.5 223.5q0 91 35 169.5t94 132t135.5 84t158.5 30.5q135 0 221.5 -85t86.5 -223q0 -91 -35 -169.5t-94 -132t-135.5 -84t-158.5 -30.5zM593 471l-27 33l-257 -221l34 204l-56 -50l-38 -233h235l56 47l-204 -3z" />
    <glyph glyph-name="arrowleft.ss01" 
d="M363 -12q-135 0 -221.5 84.5t-86.5 223.5q0 91 35 169.5t94 132t135.5 84t158.5 30.5q135 0 221.5 -85t86.5 -223q0 -91 -35 -169.5t-94 -132t-135.5 -84t-158.5 -30.5zM604 327l7 47h-300l167 146h-69l-188 -170l134 -169h69l-121 146h301z" />
    <glyph glyph-name="uni2196.ss01" 
d="M363 -12q-135 0 -221.5 84.5t-86.5 223.5q0 91 35 169.5t94 132t135.5 84t158.5 30.5q135 0 221.5 -85t86.5 -223q0 -91 -35 -169.5t-94 -132t-135.5 -84t-158.5 -30.5zM555 229l-186 223l202 -3l-41 47h-234l-37 -233l40 -50l31 204l186 -221z" />
    <glyph glyph-name="arrowboth.ss01" 
d="M363 -12q-135 0 -221.5 84.5t-86.5 223.5q0 91 35 169.5t94 132t135.5 84t158.5 30.5q135 0 221.5 -85t86.5 -223q0 -91 -35 -169.5t-94 -132t-135.5 -84t-158.5 -30.5zM172 350l109 -137h63l-95 115h336l-131 -115h63l151 137l-108 137h-62l94 -115h-336l132 115h-62z
" />
    <glyph glyph-name="arrowupdn.ss01" 
d="M363 -12q-135 0 -221.5 84.5t-86.5 223.5q0 91 35 169.5t94 132t135.5 84t158.5 30.5q135 0 221.5 -85t86.5 -223q0 -91 -35 -169.5t-94 -132t-135.5 -84t-158.5 -30.5zM265 233l116 -130l158 130l11 63l-132 -112l53 333l96 -111l10 62l-117 130l-158 -130l-10 -62
l131 111l-53 -332l-95 111z" />
    <glyph glyph-name="at.case" horiz-adv-x="873" 
d="M511 734q151 0 242 -91t91 -231q0 -122 -55 -192.5t-145 -70.5q-98 0 -111 86q-27 -46 -67.5 -70.5t-84.5 -24.5q-59 0 -95.5 44.5t-36.5 120.5q0 112 58 181.5t140 69.5q42 0 72 -21.5t43 -61.5l12 73h67l-35 -224q-10 -63 3.5 -93t56.5 -30q64 0 98 57.5t34 145.5
q0 125 -80.5 208.5t-213.5 83.5q-159 0 -281 -118.5t-122 -283.5q0 -132 81.5 -212.5t222.5 -80.5q117 0 208 46l20 -35q-103 -51 -234 -51q-159 0 -251 88t-92 238q0 125 63.5 229t168 162t223.5 58zM407 194q51 0 87.5 42t47.5 111q11 70 -12 112t-74 42q-60 0 -99 -53.5
t-39 -134.5q0 -55 23.5 -87t65.5 -32z" />
    <glyph glyph-name="russianfonts" horiz-adv-x="606" 
d="M54 213q0 -65 13 -114q12 -51 32 -80.5t41 -29.5q38 0 85.5 44.5t88.5 121.5q41 78 60 148q2 6 8 31v-288l-34 -23v-23h173v23l-35 23v322l35 24v23h-139q-6 -22 -16 -49q-11 -32 -33 -91q-51 -128 -97 -176q-28 -30 -43 -30q-8 0 -8 40q0 47 17 115q17 65 54 127.5
t77 94.5q37 30 73 39.5t92 9.5h23v6q0 33 -16 72q-17 44 -48 72t-69 28q-66 0 -143 -46q-84 -49 -137.5 -155t-53.5 -259z" />
    </font>
</defs>
</svg>
